<?xml version="1.0" encoding="utf-8"?>
<!-- Generator: Adobe Illustrator 15.1.0, SVG Export Plug-In . SVG Version: 6.00 Build 0)  -->
<!DOCTYPE svg PUBLIC "-//W3C//DTD SVG 1.1//EN" "http://www.w3.org/Graphics/SVG/1.1/DTD/svg11.dtd">
<svg version="1.1" id="Layer_1" xmlns="http://www.w3.org/2000/svg" xmlns:xlink="http://www.w3.org/1999/xlink" x="0px" y="0px"
	 width="201.667px" height="178.333px" viewBox="0 0 201.667 178.333" enable-background="new 0 0 201.667 178.333"
	 xml:space="preserve">
<g>
	<g>
		<rect x="63.586" y="3.301" fill="#C6A369" width="76.291" height="77.125"/>
		<g>
			<g>
				<path fill="#961A14" d="M80.169,50.458c0.683,1.486,1.358,2.971,2.04,4.455v0.053h6.298c0.136,4.21,0.15,8.418,0.002,12.625
					c-1.643-1.095-3.29-2.203-4.938-3.313c-0.837,0.74-2.497,2.232-3.334,2.971c3.793,3.042,8.175,5.303,12.848,6.781
					c0.136-7.851,0.04-15.707,0.068-23.57C88.832,50.458,84.508,50.458,80.169,50.458z"/>
				<path fill="#961A14" d="M121.3,35.395c-0.57-1.466-1.156-2.932-1.729-4.397c-0.033,0.003-0.066,0.005-0.1,0.007v-0.061h-6.443
					c0-4.222-0.02-8.446,0.111-12.667c1.689,1.108,3.377,2.231,5.051,3.354c1.088-1.083,2.146-2.177,3.207-3.272
					c-3.918-2.835-8.258-5.013-12.832-6.613c-0.127,7.887-0.084,15.789-0.016,23.677C112.791,35.395,117.046,35.409,121.3,35.395z"
					/>
				<path fill="#961A14" d="M113.14,67.59c-0.133-4.253-0.123-8.518-0.111-12.77h5.969c0.188,0.012,0.375,0.021,0.562,0.033
					c0.004-0.013,0.008-0.021,0.014-0.033l0,0v-0.004c0.582-1.451,1.164-2.906,1.742-4.347c-4.254-0.014-8.508-0.014-12.763-0.053
					c-0.081,7.873-0.112,15.748,0.017,23.636c4.603-1.519,8.896-3.777,12.832-6.559c-1.062-1.096-2.118-2.192-3.196-3.274
					C116.517,65.346,114.832,66.467,113.14,67.59z"/>
				<path fill="#961A14" d="M82.262,30.845v0.076c-0.015-0.002-0.029-0.002-0.041-0.004c-0.686,1.492-1.366,2.984-2.052,4.479
					c4.325,0,8.661,0,12.984,0c-0.028-7.89,0.057-15.764-0.055-23.65c-4.591,1.587-8.896,3.82-12.832,6.6
					c1.043,1.109,2.119,2.204,3.194,3.286c1.686-1.123,3.357-2.261,5.047-3.368c0.133,4.189,0.143,8.393,0.012,12.583L82.262,30.845
					L82.262,30.845z"/>
			</g>
		</g>
		<path fill="#961A14" d="M58.908,1.701v82.344h83.853V1.701H58.908L58.908,1.701z M98.33,80.163
			c-9.539-0.766-18.786-5.066-25.091-12.188c-9.917-10.9-12.497-27.582-6.095-40.826C72.472,14.973,84.997,6.716,98.33,5.579
			c0.487,11.642-0.096,23.281,0.068,34.938c-8.339,0.026-16.679,0.026-25.021,0c0.907-5.479,3.042-10.669,6.19-15.271
			c-0.778-0.74-2.34-2.231-3.119-2.985c-9.808,11.642-9.861,29.691-0.016,41.319c0.781-0.74,2.342-2.221,3.135-2.959
			c-3.148-4.616-5.284-9.792-6.19-15.284c8.342-0.026,16.682-0.026,25.007,0C98.217,56.951,98.832,68.549,98.33,80.163z
			 M123.281,72.672c-5.703,4.396-12.762,6.832-19.943,7.49c-0.53-11.6,0.113-23.2-0.082-34.813
			c8.338-0.041,16.681-0.041,25.021-0.014c-0.894,5.492-3.067,10.668-6.18,15.312c0.78,0.728,2.344,2.206,3.127,2.933
			c9.815-11.642,9.815-29.679,0-41.319c-0.783,0.74-2.359,2.232-3.14,2.985c3.148,4.602,5.285,9.791,6.191,15.271
			c-8.34,0.026-16.684,0.026-25.021-0.016c0.182-11.625-0.418-23.253,0.069-34.881c14.089,1.082,27.167,10.383,32.021,23.501
			C141.648,44.146,136.515,62.894,123.281,72.672z"/>
	</g>
	<path fill="#961A14" d="M1.797,143.631c0,0.347,0.31,0.654,0.655,0.654H4.73c0.346,0,0.657-0.311,0.657-0.654v-0.021H1.796
		L1.797,143.631L1.797,143.631z"/>
	<path fill="#961A14" d="M4.73,120.122H2.453c-0.347,0-0.655,0.311-0.655,0.653v22.834h3.591v-22.834
		C5.388,120.431,5.076,120.122,4.73,120.122z"/>
	<path fill="#961A14" d="M55.105,134.965c0.021-0.092,0.038-0.184,0.057-0.272c0.175-0.817,0.275-1.664,0.275-2.534
		c0-4.623-2.657-8.65-6.521-10.67c-0.541-0.291-1.104-0.541-1.69-0.748H47.15c-1.206-0.402-2.49-0.63-3.83-0.63h-4.159v0.63l0,0
		v2.645l0,0v0.005h3.677c0.301,0,0.595,0.017,0.887,0.041c4.587,0.437,7.832,4.069,7.832,8.938c0,0.631-0.056,1.233-0.161,1.815
		c-0.842,4.037-4.183,6.81-8.558,6.81l-3.74,0.012l0.015,0.277l0,0v3.334h4.16c5.709,0,10.521-4.054,11.784-9.449
		C55.071,135.101,55.09,135.034,55.105,134.965z"/>
	<path fill="#961A14" d="M92.958,134.668c-0.021-0.094-0.038-0.184-0.056-0.272c-0.171-0.817-0.27-1.664-0.27-2.535
		c0-4.622,2.593-8.649,6.364-10.67c0.526-0.291,1.078-0.543,1.647-0.748h0.073c1.177-0.401,2.431-0.631,3.737-0.631h4.06v0.631l0,0
		v2.649v-0.004v0.004h-3.587c-0.295,0-0.581,0.017-0.864,0.039c-4.476,0.437-7.644,4.07-7.644,8.939
		c0,0.627,0.057,1.234,0.158,1.816c0.819,4.035,4.081,6.809,8.35,6.809l3.638,0.023l-0.002,0.266l0,0v3.334H104.5
		c-5.568,0-10.266-4.053-11.496-9.451C92.989,134.804,92.973,134.736,92.958,134.668z"/>
	<path fill="#961A14" d="M74.581,145.008c1.827,0,3.562-0.379,5.129-1.055H69.458C71.02,144.629,72.751,145.008,74.581,145.008z"/>
	<path fill="#961A14" d="M118.376,143.62c0,0.348,0.313,0.655,0.656,0.655h2.276c0.381,0,0.655-0.312,0.655-0.655v-0.021h-3.59
		L118.376,143.62L118.376,143.62z"/>
	<path fill="#961A14" d="M133.628,133.642v-3.244h-11.662v-9.633c0-0.347-0.275-0.654-0.654-0.654h-2.277
		c-0.346,0-0.656,0.31-0.656,0.654v22.834h3.591v-9.957H133.628z"/>
	<path fill="#961A14" d="M143.066,143.652c0,0.347,0.313,0.656,0.656,0.656H146c0.349,0,0.656-0.313,0.656-0.656v-0.021h-3.59
		V143.652L143.066,143.652z"/>
	<path fill="#961A14" d="M146,120.142h-2.277c-0.346,0-0.654,0.312-0.654,0.655v22.832h3.59v-22.832
		C146.658,120.452,146.349,120.142,146,120.142z"/>
	<g>
		<rect x="1.813" y="142.698" fill="#961A14" width="2.001" height="1.604"/>
		<rect x="3.37" y="142.698" fill="#961A14" width="2.003" height="1.604"/>
	</g>
	<g>
		<rect x="1.794" y="120.12" fill="#961A14" width="2.021" height="1.565"/>
		<rect x="3.368" y="120.12" fill="#961A14" width="2.022" height="1.565"/>
	</g>
	<rect x="118.349" y="120.077" fill="#961A14" width="3.639" height="24.192"/>
	<rect x="143.042" y="120.142" fill="#961A14" width="3.6" height="24.19"/>
	<path fill="#961A14" d="M29.756,120.736v-0.627h-1.541h-0.439h-1.541v1.548h0.01v15.45h-0.033l-11.388-13.172v4.776l11.966,14.229
		l1.036,0.67l1.512,0.979c0.242-0.09,0.429-0.312,0.429-0.578v-0.4v-22.834C29.765,120.763,29.757,120.75,29.756,120.736z"/>
	<path fill="#961A14" d="M171.011,120.133L171.011,120.133l-1.568,0.007h-0.439h-1.539l0.023,1.368h0.01v15.451h-0.033
		l-11.389-13.174v4.777l11.967,14.23l1.037,0.67l1.512,0.979c0.242-0.09,0.431-0.311,0.431-0.578v-0.4L171.011,120.133
		C171.011,120.118,171.013,120.148,171.011,120.133z"/>
	<g>
		<path fill="#961A14" d="M74.581,122.935c4.476,0,8.232,3.274,9.075,7.504h3.604c-0.863-6.265-6.169-11.063-12.68-11.063
			c-6.513,0-11.787,4.799-12.646,11.063h3.604C66.382,126.209,70.136,122.935,74.581,122.935z"/>
		<path fill="#961A14" d="M74.581,141.448c-3.971,0-7.38-2.552-8.666-6.107H62.18c0.957,3.895,3.67,7.059,7.278,8.615H79.71
			c3.615-1.56,6.343-4.722,7.306-8.615h-3.732C81.995,138.898,78.578,141.448,74.581,141.448z"/>
	</g>
	<g>
		<path fill="#961A14" d="M199.828,144.254l-2.529-5.606l-9.2-18.545l-9.177,18.11l-2.784,6.025
			c-0.035,0.076-0.037,0.148-0.048,0.223h3.675c0.668-1.53,1.985-4.078,2.653-5.61l1.347-2.97l4.235-8.698h0.172l4.224,8.698
			l1.312,2.97l2.494,5.627h3.674C199.865,144.402,199.863,144.331,199.828,144.254z"/>
	</g>
	<g>
		<path fill="#961A14" d="M74.593,145.034c1.827,0,3.561-0.377,5.129-1.054H69.469C71.034,144.657,72.764,145.034,74.593,145.034z"
			/>
		<path fill="#961A14" d="M87.41,132.254c0-7.121-5.697-12.854-12.816-12.854c-7.121,0-12.782,5.731-12.782,12.854
			c0,5.291,3.129,9.771,7.658,11.728h10.253C84.261,142.027,87.41,137.545,87.41,132.254z M74.593,141.476
			c-5.056,0-9.221-4.132-9.221-9.222c0-5.059,4.165-9.293,9.221-9.293c5.09,0,9.256,4.234,9.256,9.293
			C83.849,137.344,79.683,141.476,74.593,141.476z"/>
	</g>
	<g>
		<g>
			<path fill="#696A6D" d="M70.568,155.142c-0.305,0.241-0.785,0.625-1.402,1.131c-0.083,0.067-0.359,0.347-0.822,0.813
				l-1.898,2.746c-1.011,1.439-2.02,3.144-3.046,5.104c-0.205,0.397-0.357,0.746-0.445,1.043c-0.066,0.274-0.168,0.677-0.341,1.213
				c-0.119,0.437-0.36,0.783-0.67,1.043l-0.564,0.002c-0.151-0.141-0.239-0.329-0.239-0.592c0-0.209,0.396-1.127,1.198-2.761
				c0.478-0.938,1.164-2.17,2.055-3.698c1.163-1.963,1.864-3.196,2.12-3.646c-0.358,0.053-0.977,0.276-1.883,0.645
				c-0.789,0.313-1.405,0.469-1.883,0.469c-0.79,0-1.355-0.416-1.731-1.25c-0.293-0.641-0.432-1.402-0.431-2.289
				c-0.001-0.814,0.152-1.391,0.475-1.703c0.088,0.055,0.208,0.142,0.345,0.262l0.002,0.504c-0.001,2.326,0.479,3.488,1.439,3.488
				c1.029-0.004,2.469-0.541,4.266-1.653c0.908-0.572,2.245-1.438,4.042-2.587h0.376c0.088,0.433,0.141,0.623,0.14,0.537
				C71.665,154.152,71.306,154.549,70.568,155.142z"/>
			<path fill="#696A6D" d="M76.62,166.058c-0.239,0.399-1.042,0.78-2.449,1.164c-1.217,0.332-2.177,0.506-2.83,0.506
				c-0.752,0-1.505-0.188-2.244-0.554c-0.909-0.452-1.353-1.008-1.353-1.686c-0.001-0.297,0.17-0.605,0.512-0.92
				c0.292-0.209,0.736-0.627,1.354-1.252c0.41-0.504,1.147-0.887,2.208-1.199c0.894-0.262,1.75-0.398,2.538-0.4
				c0.206,0,0.53,0.105,0.961,0.296c0.426,0.188,0.7,0.381,0.856,0.538c0.17,0.175,0.341,0.482,0.53,0.938
				c0.188,0.45,0.276,0.801,0.276,1.024C76.977,165.12,76.857,165.64,76.62,166.058z M75.382,163.245
				c-0.465-0.361-0.907-0.533-1.353-0.535c-0.069,0-0.721,0.121-1.954,0.365c-0.481,0.104-0.907,0.295-1.284,0.557
				c-1.301,0.955-1.97,1.615-1.971,1.979c0.001,0.297,0.361,0.572,1.082,0.816c0.612,0.207,1.113,0.311,1.488,0.311
				c0.583,0,1.391-0.104,2.437-0.348c0.94-0.209,1.626-0.541,2.02-0.973c0.189-0.191,0.274-0.521,0.274-0.976
				C76.12,164.027,75.88,163.627,75.382,163.245z"/>
			<path fill="#696A6D" d="M85.562,164.592c-0.753,0.851-1.3,1.39-1.66,1.668c-0.154,0.123-0.546,0.416-1.181,0.869
				c-0.24,0.189-0.618,0.363-1.149,0.537c-0.529,0.176-0.942,0.263-1.25,0.263c-0.563,0.002-1.044-0.363-1.404-1.093
				c-0.309-0.606-0.465-1.231-0.463-1.893c0-0.539,0.116-1.094,0.323-1.666c0.085-0.02,0.172-0.053,0.273-0.139
				c0.103,0.068,0.24,0.188,0.428,0.361c-0.052,0.451-0.083,0.834-0.083,1.164c0.002,1.371,0.447,2.063,1.32,2.063
				c0.855,0,1.867-0.541,3.048-1.615c0.155-0.122,1.045-0.976,2.671-2.521h0.14c0.172-0.002,0.273,0.068,0.272,0.226
				C86.847,163.064,86.419,163.654,85.562,164.592z"/>
			<path fill="#696A6D" d="M95.292,163.198l-0.253,0.243c-0.639-0.209-1.115-0.295-1.441-0.276c-0.393,0.02-0.703,0.035-0.909,0.035
				h-0.685c-0.067,0-0.171,0.034-0.306,0.088c-0.087,0.035-0.174,0.067-0.274,0.104c-0.242,0.018-0.583,0.07-1.063,0.191
				c-0.735,0.33-0.94,0.901-1.097,1.754c-0.087,0.434-0.102,0.799-0.086,1.096c0.052,0.641,0.07,1.006,0.07,1.092
				c-0.12,0.037-0.565,0.088-0.856,0.121c-0.151-0.311-0.24-0.537-0.24-0.641c-0.001-0.104,0.018-0.26,0.037-0.484
				c0.032-0.229,0.029-0.4,0.033-0.521c0-0.397,0.119-0.92,0.324-1.563c0.086-0.279,0.188-0.574,0.288-0.904
				c0.154-0.295,0.362-0.52,0.619-0.713c0.563-0.381,1.609-0.59,3.15-0.592c1.541,0,2.435,0.207,2.692,0.607L95.292,163.198z"/>
			<path fill="#696A6D" d="M115.328,163.62c-0.344,0.276-0.959,0.799-1.727,1.649c-1.697,1.856-2.83,2.83-3.479,2.83
				c-0.465,0-1.029-0.414-1.631-1.317c0,0-0.429-0.656-1.304-1.943c-0.237,0.055-0.685,0.506-1.317,1.375
				c-0.599,0.813-1.162,1.231-1.662,1.231l-0.24-0.139c-0.188-0.365-0.514-1.062-0.979-2.117c-0.515-1.181-0.789-1.854-0.789-2.028
				c0.002-0.279,0.172-0.521,0.514-0.713c0.328,0.415,0.672,0.973,0.996,1.698c0.479,1.06,0.754,1.647,0.822,1.787h0.411
				c0.121-0.209,0.375-0.521,0.789-0.955c0.136-0.226,0.358-0.539,0.634-0.938c0.344-0.485,0.614-0.729,0.836-0.729
				c0.223,0,0.396,0.121,0.553,0.366c0.254,0.396,0.615,1.021,1.133,1.82c0.613,0.953,1.063,1.422,1.338,1.422
				c0.289,0,1.074-0.625,2.359-1.858c1.301-1.231,2.055-1.84,2.279-1.843h0.461v0.402H115.328z"/>
			<path fill="#696A6D" d="M124.462,167.536c-0.104,0.176-0.224,0.262-0.359,0.262c-0.17,0-0.479-0.275-0.928-0.814
				c-0.426-0.555-0.771-0.832-1.01-0.832c-0.052-0.002-0.648,0.242-1.832,0.711c-1.168,0.473-1.957,0.713-2.363,0.713
				c-0.275,0.002-0.584-0.137-0.926-0.414c-0.344-0.277-0.517-0.539-0.517-0.781c0-0.623,0.666-1.354,2.019-2.188
				c1.27-0.799,2.244-1.182,2.91-1.182c0.274,0,0.535,0.154,0.76,0.469l-0.002,0.363c-0.119,0.172-0.242,0.242-0.377,0.242
				c-0.051,0-0.152-0.033-0.291-0.104c-0.154-0.067-0.24-0.104-0.31-0.104c-0.204,0-0.717,0.228-1.524,0.693
				c-0.752,0.418-1.25,0.768-1.521,0.975c-0.262,0.228-0.414,0.486-0.502,0.765c0.209,0.19,0.433,0.297,0.705,0.297
				c0.239-0.002,0.91-0.244,2.004-0.713c1.115-0.472,1.832-0.716,2.192-0.716c0.359,0.002,0.617,0.087,0.789,0.277
				c0.033,0.053,0.173,0.297,0.41,0.764c0.189,0.349,0.414,0.658,0.67,0.937L124.462,167.536L124.462,167.536z"/>
			<path fill="#696A6D" d="M132.158,164.616c-0.072,0.241-0.105,0.381-0.121,0.45c0.019,0.14,0,0.363-0.035,0.66
				c-0.271,0.657-0.633,1.666-1.094,3.021c-0.137,0.155-0.43,0.729-0.871,1.686c0.051-0.105-0.121,0.33-0.461,1.32
				c-0.104,0.277-0.342,0.885-0.719,1.807c-0.035,0.262-0.105,0.572-0.176,0.971c-0.014,0.055-0.08,0.279-0.219,0.645
				c-0.104,0.275-0.174,0.484-0.174,0.625c0,0.054,0.021,0.087,0.037,0.121c-0.104,0.191-0.31,0.416-0.601,0.713h-0.361
				c-0.172-0.313-0.256-0.536-0.256-0.694c0-0.571,0.375-1.806,1.111-3.696c0.204-0.572,0.563-1.459,1.063-2.623
				c0.135-0.261,0.375-0.729,0.682-1.404c0.102-0.348,0.207-0.627,0.326-0.887c0.119-0.174,0.291-0.625,0.545-1.373
				c-0.029-0.033-0.031-0.14,0.021-0.312c0.033-0.123,0.016-0.19-0.055-0.19c-0.066,0-0.393,0.141-0.992,0.383
				c-0.6,0.262-0.924,0.383-0.992,0.383c-0.154,0-0.445,0.035-0.842,0.104c-0.41,0.088-0.666,0.123-0.768,0.123
				c-0.445,0-0.857-0.383-1.236-1.129c-0.326-0.643-0.48-1.23-0.48-1.77c0-0.156,0.086-0.398,0.238-0.713h0.479
				c0.414,1.752,0.998,2.639,1.752,2.637c0.617,0,1.369-0.33,2.276-0.99c0,0,0.496-0.363,1.488-1.111
				c0.36,0.121,0.532,0.383,0.53,0.764C132.259,164.215,132.224,164.37,132.158,164.616z"/>
			<path fill="#696A6D" d="M135.927,168.323c-0.52-0.232-0.797-0.361-0.846-0.388c-0.06-0.062-0.152-0.269-0.271-0.603
				c0.438-0.408,0.729-0.61,0.896-0.588c0.086,0.014,0.289,0.164,0.646,0.445C136.24,167.493,136.101,167.857,135.927,168.323z
				 M140.281,155.54c-0.174,0.481-0.607,1.646-1.309,3.477c-0.195,0.27-0.451,0.723-0.764,1.326L136.832,165
				c-0.026,0.082-0.125,0.119-0.274,0.098c-0.168-0.023-0.308-0.254-0.404-0.654c-0.088-0.346-0.114-0.629-0.084-0.854
				c0.033-0.205,0.39-0.994,1.074-2.354c0.021-0.028,0.053-0.233,0.108-0.631c0.025-0.172,0.123-0.353,0.258-0.576
				c0.181-0.271,0.289-0.448,0.322-0.551l0.644-1.903c0.28-0.839,0.721-2.07,1.323-3.687c0.074-0.164,0.203-0.443,0.379-0.839
				c0.134-0.067,0.304-0.166,0.492-0.278c0.302,0.187,0.447,0.383,0.414,0.604C141.072,153.443,140.792,154.159,140.281,155.54z"/>
		</g>
	</g>
	<g>
		<g enable-background="new    ">
			<path fill="#C6A369" d="M46.692,96.545c0-0.171,0.136-0.324,0.307-0.324h3.923c3.292,0,5.988,2.678,5.988,5.953
				c0,3.31-2.695,5.988-5.988,5.988H47c-0.171,0-0.307-0.153-0.307-0.324V96.545z M50.684,106.542c2.508,0,4.333-1.842,4.333-4.367
				c0-2.507-1.825-4.333-4.333-4.333h-2.251v8.7H50.684z"/>
			<path fill="#C6A369" d="M63.117,96.545c0-0.171,0.153-0.324,0.324-0.324h1.126c0.17,0,0.324,0.153,0.324,0.324v11.293
				c0,0.171-0.153,0.324-0.324,0.324h-1.126c-0.171,0-0.324-0.153-0.324-0.324V96.545z"/>
			<path fill="#C6A369" d="M71.184,106.44c0.153-0.222,0.29-0.478,0.443-0.7c0.154-0.222,0.393-0.29,0.58-0.136
				c0.103,0.085,1.416,1.177,2.729,1.177c1.177,0,1.928-0.717,1.928-1.587c0-1.023-0.887-1.672-2.576-2.371
				c-1.74-0.733-3.104-1.638-3.104-3.616c0-1.331,1.023-3.156,3.736-3.156c1.706,0,2.985,0.888,3.156,1.007
				c0.136,0.085,0.272,0.324,0.102,0.58c-0.136,0.204-0.29,0.443-0.426,0.648c-0.137,0.222-0.358,0.324-0.597,0.17
				c-0.12-0.068-1.313-0.853-2.303-0.853c-1.433,0-1.928,0.904-1.928,1.535c0,0.973,0.751,1.569,2.167,2.149
				c1.979,0.802,3.668,1.74,3.668,3.821c0,1.774-1.586,3.225-3.804,3.225c-2.081,0-3.395-1.092-3.668-1.348
				C71.132,106.849,71.013,106.73,71.184,106.44z"/>
			<path fill="#C6A369" d="M90.15,96.05c1.723,0,2.968,0.58,4.128,1.587c0.154,0.137,0.154,0.341,0.017,0.478l-0.75,0.768
				c-0.119,0.153-0.273,0.153-0.426,0c-0.802-0.699-1.894-1.143-2.951-1.143c-2.44,0-4.282,2.047-4.282,4.435
				c0,2.389,1.859,4.419,4.299,4.419c1.246,0,2.116-0.495,2.935-1.126c0.153-0.119,0.307-0.103,0.409-0.018l0.785,0.769
				c0.137,0.119,0.103,0.341-0.017,0.46c-1.16,1.126-2.627,1.655-4.145,1.655c-3.412,0-6.159-2.713-6.159-6.125
				C83.992,98.797,86.738,96.05,90.15,96.05z"/>
			<path fill="#C6A369" d="M105.739,96.05c3.411,0,6.142,2.747,6.142,6.158c0,3.412-2.73,6.125-6.142,6.125
				c-3.412,0-6.125-2.713-6.125-6.125C99.614,98.797,102.327,96.05,105.739,96.05z M105.739,106.627
				c2.439,0,4.435-1.979,4.435-4.419c0-2.422-1.995-4.452-4.435-4.452c-2.423,0-4.418,2.03-4.418,4.452
				C101.32,104.648,103.316,106.627,105.739,106.627z"/>
			<path fill="#C6A369" d="M116.482,96.665c-0.103-0.222,0.034-0.443,0.29-0.443h1.211c0.137,0,0.256,0.103,0.29,0.188l3.753,8.444
				h0.103l3.753-8.444c0.034-0.085,0.137-0.188,0.29-0.188h1.211c0.256,0,0.393,0.222,0.291,0.443l-5.238,11.481
				c-0.051,0.102-0.153,0.188-0.289,0.188h-0.171c-0.12,0-0.239-0.086-0.29-0.188L116.482,96.665z"/>
			<path fill="#C6A369" d="M133.145,96.545c0-0.171,0.136-0.324,0.324-0.324h6.823c0.188,0,0.324,0.153,0.324,0.324V97.5
				c0,0.171-0.137,0.324-0.324,0.324h-5.391v3.48h4.555c0.171,0,0.324,0.153,0.324,0.323v0.956c0,0.188-0.153,0.324-0.324,0.324
				h-4.555v3.667h5.391c0.188,0,0.324,0.154,0.324,0.324v0.938c0,0.171-0.137,0.324-0.324,0.324h-6.823
				c-0.188,0-0.324-0.153-0.324-0.324V96.545z"/>
			<path fill="#C6A369" d="M146.943,96.545c0-0.171,0.137-0.324,0.324-0.324h4.641c2.047,0,3.719,1.62,3.719,3.65
				c0,1.569-1.041,2.866-2.525,3.463l2.338,4.333c0.119,0.222,0,0.495-0.291,0.495h-1.33c-0.137,0-0.238-0.085-0.273-0.153
				l-2.269-4.521H148.7v4.35c0,0.171-0.153,0.324-0.323,0.324h-1.109c-0.188,0-0.324-0.153-0.324-0.324V96.545z M151.771,102.021
				c1.108,0,2.081-0.938,2.081-2.115c0-1.108-0.973-2.03-2.081-2.03h-3.037v4.146H151.771z"/>
		</g>
	</g>
</g>
</svg>
