<?xml version="1.0" encoding="utf-8"?>
<!-- Generator: Adobe Illustrator 15.1.0, SVG Export Plug-In . SVG Version: 6.00 Build 0)  -->
<!DOCTYPE svg PUBLIC "-//W3C//DTD SVG 1.1//EN" "http://www.w3.org/Graphics/SVG/1.1/DTD/svg11.dtd">
<svg version="1.1" id="Layer_1" xmlns="http://www.w3.org/2000/svg" xmlns:xlink="http://www.w3.org/1999/xlink" x="0px" y="0px"
	 width="64.417px" height="64.751px" viewBox="-94.292 -33.75 64.417 64.751" enable-background="new -94.292 -33.75 64.417 64.751"
	 xml:space="preserve">
<g>
	<path fill="none" d="M-63.075-21.51c0.157,0.151,0.341,0.27,0.551,0.356c0.211,0.086,0.437,0.126,0.677,0.121
		c0.238-0.006,0.46-0.057,0.666-0.153s0.385-0.224,0.535-0.384c0.151-0.16,0.269-0.344,0.354-0.553
		c0.084-0.209,0.124-0.431,0.118-0.665c-0.005-0.234-0.056-0.454-0.149-0.659c-0.095-0.204-0.221-0.383-0.379-0.535
		c-0.159-0.153-0.343-0.272-0.554-0.358c-0.21-0.086-0.435-0.126-0.672-0.121c-0.241,0.005-0.464,0.057-0.67,0.152
		c-0.207,0.096-0.384,0.224-0.533,0.382c-0.149,0.158-0.267,0.342-0.351,0.553c-0.084,0.21-0.124,0.433-0.119,0.667
		c0.006,0.234,0.056,0.455,0.15,0.661C-63.356-21.839-63.23-21.661-63.075-21.51z"/>
	<path fill="none" d="M-78.535-15.25l2.282-2.372c-0.167-0.084-0.343-0.139-0.524-0.163c-0.183-0.024-0.362-0.021-0.539,0.01
		c-0.177,0.031-0.347,0.089-0.509,0.174c-0.163,0.085-0.31,0.194-0.438,0.328c-0.129,0.134-0.233,0.284-0.313,0.452
		c-0.08,0.167-0.132,0.34-0.157,0.519c-0.025,0.179-0.022,0.358,0.01,0.539C-78.69-15.583-78.627-15.413-78.535-15.25z"/>
	<path fill="none" d="M-79.223-12.318c-0.14-0.176-0.313-0.32-0.521-0.43c-0.207-0.11-0.422-0.175-0.646-0.193
		c-0.225-0.018-0.442,0.004-0.653,0.067c-0.21,0.063-0.405,0.165-0.583,0.306c-0.179,0.141-0.324,0.316-0.436,0.526
		c-0.114,0.212-0.18,0.432-0.197,0.659c-0.018,0.227,0.006,0.444,0.07,0.652s0.168,0.4,0.31,0.577
		c0.142,0.177,0.315,0.321,0.522,0.431s0.423,0.175,0.649,0.194c0.226,0.019,0.442-0.002,0.651-0.065
		c0.208-0.062,0.401-0.164,0.58-0.305c0.18-0.14,0.326-0.317,0.439-0.529c0.112-0.21,0.177-0.428,0.194-0.655
		c0.017-0.227-0.006-0.445-0.071-0.655C-78.979-11.949-79.082-12.142-79.223-12.318z"/>
	<path fill="none" d="M-73.503,18.326c0.189-0.121,0.349-0.281,0.479-0.475c0.13-0.195,0.215-0.404,0.256-0.625
		c0.04-0.223,0.039-0.441-0.003-0.656c-0.042-0.217-0.124-0.42-0.246-0.611c-0.123-0.191-0.283-0.354-0.48-0.484
		c-0.2-0.135-0.413-0.221-0.637-0.262c-0.224-0.039-0.442-0.037-0.655,0.006s-0.415,0.127-0.604,0.25
		c-0.19,0.125-0.351,0.283-0.48,0.479c-0.131,0.195-0.216,0.404-0.258,0.627c-0.041,0.223-0.041,0.441,0.001,0.654
		c0.041,0.215,0.123,0.418,0.245,0.607c0.123,0.191,0.284,0.355,0.485,0.488c0.197,0.133,0.408,0.219,0.632,0.258
		c0.224,0.041,0.443,0.037,0.659-0.006C-73.895,18.531-73.692,18.449-73.503,18.326z"/>
	<path fill="none" d="M-73.655,24.273h-0.378c3.626,1.701,7.672,2.656,11.943,2.656c15.556,0,28.165-12.609,28.165-28.165
		c0-15.555-12.609-28.165-28.165-28.165c-15.556,0-28.165,12.61-28.165,28.165c0,11.206,6.544,20.882,16.019,25.417
		c-0.001-0.007,0.001-0.015,0-0.021C-74.043,24.17-73.833,24.184-73.655,24.273z M-67.87,22.949
		c-0.129,0.057-0.26,0.059-0.394,0.006c-0.136-0.053-0.23-0.143-0.283-0.268c-0.053-0.125-0.055-0.254-0.007-0.387
		c-0.273,0.082-0.541,0.115-0.804,0.1c-0.263-0.018-0.53-0.078-0.803-0.186c-0.325-0.127-0.606-0.309-0.846-0.547
		c-0.239-0.238-0.424-0.508-0.556-0.807c-0.131-0.299-0.204-0.617-0.217-0.955c-0.014-0.336,0.042-0.668,0.169-0.992l0.876-2.248
		c0.051-0.129,0.141-0.223,0.27-0.279c0.128-0.057,0.26-0.059,0.393-0.008c0.131,0.051,0.224,0.143,0.28,0.271
		s0.06,0.258,0.009,0.389l-0.876,2.248c-0.077,0.195-0.112,0.396-0.105,0.598c0.007,0.201,0.05,0.393,0.129,0.572
		c0.078,0.178,0.189,0.338,0.333,0.48c0.145,0.143,0.314,0.25,0.512,0.328c0.194,0.074,0.393,0.107,0.595,0.104
		c0.201-0.008,0.393-0.051,0.574-0.131s0.343-0.189,0.483-0.332c0.142-0.145,0.25-0.314,0.327-0.51l0.876-2.248
		c0.051-0.129,0.141-0.225,0.27-0.279c0.128-0.057,0.259-0.059,0.393-0.008c0.131,0.051,0.224,0.141,0.28,0.27
		c0.057,0.129,0.06,0.26,0.009,0.389l-1.618,4.148C-67.651,22.799-67.742,22.893-67.87,22.949z M-60.558,21.355l-0.208,2.217
		c-0.013,0.139-0.073,0.254-0.182,0.344c-0.108,0.088-0.231,0.127-0.371,0.113c-0.143-0.014-0.259-0.074-0.349-0.184
		c-0.089-0.105-0.127-0.23-0.114-0.369l0.009-0.098c-0.261,0.172-0.539,0.297-0.834,0.373s-0.604,0.102-0.929,0.07
		c-0.752-0.07-1.369-0.396-1.851-0.98c-0.481-0.58-0.687-1.248-0.616-2c0.071-0.752,0.396-1.367,0.978-1.85
		c0.581-0.482,1.248-0.688,2-0.617c0.745,0.07,1.362,0.396,1.851,0.98C-60.692,19.936-60.485,20.604-60.558,21.355z M-64.028,14.648
		l-2.5-5.416l-5.917,2.107l3.595-9.484c-2.53-1.694-4.198-4.576-4.198-7.849c0-5.212,4.225-9.438,9.437-9.438
		c5.212,0,9.438,4.226,9.438,9.438c0,0.896-0.133,1.761-0.366,2.581l4.289,3c0.104,0.018,0.207,0.032,0.305,0.044
		c-0.013-0.018-0.031-0.036-0.035-0.055c0.075-0.001,0.205-0.006,0.354-0.011c-0.053-0.042-0.109-0.084-0.149-0.125
		c0.258-0.025,0.527,0.034,0.795,0.109c0.47-0.004,0.922,0.014,0.956,0.115h0.043c0.002-0.021,0.007-0.044,0-0.063
		c0.192,0.005,0.402,0.013,0.581,0.061l-0.581,0.002c-0.005,0.046-0.016,0.093-0.002,0.136c-0.316-0.034-0.656-0.156-0.997-0.251
		c-0.229,0.002-0.455,0.009-0.646,0.016c0.043,0.034,0.084,0.067,0.106,0.098c-0.116,0-0.265-0.013-0.425-0.032
		c0.163,0.219,0.92,0.355,1.27,0.411c0.847,0.132,1.755,0.172,2.565,0.371c-0.588,0.128-1.418-0.062-2-0.135
		c-0.416-0.053-0.838-0.07-1.263-0.077l3.263,2.282l-6.084,0.416l2,7.084l-10.167-6.538L-64.028,14.648z M-49.726-8.313l1.125,1.016
		l1.317-0.751l-0.62,1.383l1.122,1.021l-1.507-0.164l-0.623,1.383l-0.313-1.483l-1.506-0.165l1.314-0.756L-49.726-8.313z
		 M-56.145,18.73c-0.034,0.055-0.079,0.102-0.135,0.141c-0.055,0.039-0.118,0.064-0.188,0.08c-0.061,0.012-0.135,0.01-0.222-0.01
		c-0.218-0.037-0.444-0.031-0.68,0.02c-0.232,0.049-0.441,0.139-0.627,0.27s-0.338,0.287-0.457,0.471s-0.201,0.387-0.246,0.607
		c-0.045,0.223-0.042,0.449,0.007,0.684l0.459,2.178c0.029,0.139,0.005,0.266-0.071,0.383c-0.077,0.117-0.184,0.191-0.32,0.221
		c-0.141,0.027-0.27,0.006-0.387-0.07c-0.118-0.076-0.191-0.184-0.22-0.32l-0.919-4.357c-0.029-0.137-0.005-0.264,0.071-0.381
		c0.077-0.119,0.186-0.191,0.325-0.223c0.138-0.027,0.265-0.004,0.383,0.072c0.117,0.072,0.19,0.18,0.22,0.316l0.02,0.096
		c0.199-0.24,0.428-0.441,0.687-0.604c0.259-0.162,0.547-0.275,0.866-0.342c0.14-0.029,0.292-0.053,0.457-0.066
		c0.165-0.016,0.32-0.012,0.466,0.008c0.146,0.021,0.272,0.064,0.38,0.133c0.107,0.066,0.176,0.17,0.204,0.307
		c0.015,0.07,0.016,0.139,0.001,0.205C-56.085,18.611-56.109,18.674-56.145,18.73z M-49.156,20.004
		c-0.042,0.135-0.124,0.234-0.248,0.299c-0.127,0.066-0.258,0.078-0.392,0.037c-0.134-0.043-0.233-0.125-0.299-0.25l-0.045-0.086
		c-0.126,0.287-0.291,0.543-0.497,0.768c-0.205,0.227-0.452,0.414-0.74,0.564c-0.669,0.352-1.363,0.414-2.084,0.189
		c-0.721-0.227-1.257-0.672-1.607-1.342c-0.351-0.668-0.413-1.363-0.188-2.084c0.226-0.723,0.672-1.258,1.341-1.607
		c0.663-0.348,1.358-0.41,2.085-0.189c0.721,0.227,1.256,0.674,1.606,1.342l1.034,1.973C-49.125,19.74-49.114,19.869-49.156,20.004z
		 M-44.388,16.566c-0.112,0.088-0.238,0.125-0.378,0.107c-0.14-0.016-0.253-0.08-0.342-0.193l-1.492-1.889
		c-0.129-0.164-0.283-0.293-0.462-0.389c-0.18-0.094-0.366-0.154-0.561-0.176c-0.194-0.023-0.389-0.01-0.585,0.041
		c-0.196,0.053-0.376,0.143-0.539,0.271c-0.166,0.131-0.297,0.285-0.392,0.461c-0.095,0.178-0.154,0.363-0.177,0.561
		s-0.009,0.393,0.044,0.588c0.052,0.195,0.143,0.373,0.272,0.537l1.492,1.889c0.089,0.113,0.125,0.238,0.108,0.379
		s-0.08,0.252-0.189,0.338c-0.112,0.092-0.238,0.127-0.378,0.109c-0.14-0.016-0.254-0.08-0.342-0.193l-2.755-3.484
		c-0.087-0.109-0.122-0.236-0.106-0.377c0.015-0.141,0.079-0.254,0.191-0.346c0.109-0.086,0.234-0.121,0.375-0.104
		s0.254,0.078,0.337,0.184c0.132-0.531,0.428-0.979,0.888-1.342c0.269-0.213,0.564-0.361,0.889-0.447
		c0.325-0.086,0.649-0.111,0.976-0.076c0.327,0.035,0.639,0.133,0.938,0.291c0.301,0.158,0.56,0.377,0.777,0.652l1.492,1.889
		c0.089,0.113,0.125,0.238,0.108,0.379C-44.215,16.365-44.277,16.479-44.388,16.566z M-41.716,13.729
		c-0.895,0.984-1.834,1.031-2.817,0.141l-1.819-1.65l-0.154,0.172c-0.092,0.102-0.208,0.152-0.349,0.16
		c-0.14,0.008-0.263-0.037-0.369-0.135c-0.104-0.094-0.159-0.211-0.166-0.352c-0.007-0.141,0.036-0.26,0.127-0.361l0.154-0.17
		l-1.36-1.235c-0.104-0.094-0.159-0.211-0.166-0.352c-0.007-0.14,0.038-0.263,0.135-0.369c0.094-0.104,0.211-0.158,0.352-0.166
		c0.14-0.006,0.262,0.037,0.365,0.131l1.36,1.235l0.41-0.454c0.094-0.104,0.21-0.158,0.35-0.164
		c0.139-0.005,0.261,0.039,0.364,0.133c0.106,0.098,0.163,0.215,0.171,0.354c0.008,0.139-0.035,0.26-0.129,0.363l-0.41,0.453
		l1.819,1.648c0.479,0.436,0.938,0.412,1.376-0.07c0.094-0.104,0.21-0.158,0.35-0.164c0.139-0.006,0.261,0.039,0.364,0.133
		c0.105,0.098,0.163,0.215,0.171,0.354C-41.58,13.502-41.623,13.625-41.716,13.729z M-39.368,10.302
		c-0.374,0.657-0.925,1.084-1.653,1.284c-0.729,0.199-1.421,0.111-2.076-0.262c-0.656-0.375-1.084-0.926-1.283-1.654
		c-0.2-0.729-0.112-1.42,0.262-2.076c0.371-0.65,0.922-1.078,1.653-1.283c0.361-0.102,0.716-0.13,1.063-0.086
		c0.348,0.045,0.686,0.16,1.014,0.348c0.127,0.072,0.208,0.176,0.242,0.31c0.034,0.134,0.016,0.263-0.055,0.388l-1.915,3.359
		c0.183,0.041,0.365,0.051,0.547,0.031c0.182-0.021,0.354-0.068,0.519-0.141c0.163-0.075,0.313-0.172,0.451-0.295
		c0.137-0.122,0.252-0.265,0.346-0.429c0.106-0.188,0.176-0.375,0.208-0.563c0.032-0.188,0.029-0.38-0.008-0.578
		c-0.024-0.126-0.006-0.244,0.055-0.356c0.072-0.127,0.174-0.208,0.305-0.244c0.131-0.035,0.261-0.018,0.388,0.055
		c0.124,0.071,0.206,0.174,0.245,0.309C-38.924,9.079-39.027,9.706-39.368,10.302z M-38.776,0.463
		c0.078,0.114,0.104,0.241,0.08,0.383l-0.649,3.813c0.186-0.024,0.36-0.077,0.524-0.158c0.164-0.081,0.311-0.185,0.439-0.31
		c0.128-0.125,0.236-0.268,0.323-0.43c0.087-0.162,0.146-0.336,0.179-0.521c0.036-0.213,0.037-0.412,0.003-0.6
		c-0.034-0.188-0.103-0.367-0.205-0.54c-0.064-0.113-0.087-0.23-0.068-0.356c0.024-0.145,0.092-0.256,0.203-0.335
		c0.11-0.078,0.238-0.105,0.383-0.08c0.141,0.023,0.253,0.093,0.336,0.206c0.352,0.571,0.47,1.196,0.354,1.873
		c-0.127,0.745-0.499,1.335-1.114,1.771c-0.616,0.436-1.297,0.591-2.041,0.464c-0.744-0.127-1.335-0.498-1.771-1.113
		c-0.438-0.616-0.592-1.297-0.465-2.041c0.126-0.738,0.498-1.328,1.114-1.771c0.306-0.219,0.629-0.367,0.97-0.443
		c0.342-0.078,0.699-0.084,1.071-0.021C-38.965,0.28-38.854,0.35-38.776,0.463z M-41.413-9.608l1.316-0.752l-0.62,1.384l1.122,1.02
		l-1.507-0.163l-0.623,1.383l-0.312-1.484l-1.507-0.165l1.315-0.756l-0.309-1.484L-41.413-9.608z M-44.111-18.374
		c0.531,0.528,0.801,1.171,0.808,1.931c0.003,0.375-0.063,0.725-0.195,1.048c-0.134,0.324-0.334,0.62-0.601,0.887
		c-0.103,0.104-0.224,0.155-0.362,0.153c-0.138-0.002-0.258-0.054-0.359-0.154l-2.742-2.727c-0.087,0.166-0.145,0.339-0.173,0.52
		c-0.028,0.181-0.028,0.36,0,0.537c0.028,0.177,0.083,0.348,0.165,0.512c0.082,0.164,0.19,0.313,0.324,0.446
		c0.152,0.151,0.315,0.267,0.488,0.347c0.173,0.08,0.359,0.128,0.56,0.143c0.125,0.015,0.234,0.064,0.326,0.151
		c0.104,0.103,0.156,0.223,0.156,0.358c0.001,0.136-0.051,0.256-0.154,0.359c-0.101,0.102-0.222,0.154-0.361,0.157
		c-0.67-0.042-1.249-0.305-1.736-0.789c-0.535-0.532-0.804-1.176-0.807-1.931c-0.002-0.755,0.263-1.4,0.796-1.936
		c0.532-0.535,1.176-0.804,1.931-0.807C-45.292-19.17-44.647-18.906-44.111-18.374z M-48.786-22.015
		c0.594,0.344,0.997,0.833,1.209,1.468c0.05,0.149,0.036,0.29-0.041,0.422c-0.073,0.127-0.176,0.208-0.308,0.245
		c-0.133,0.037-0.262,0.018-0.389-0.055c-0.107-0.062-0.184-0.151-0.229-0.268c-0.073-0.204-0.171-0.383-0.293-0.537
		c-0.122-0.154-0.275-0.284-0.462-0.391c-0.205-0.119-0.421-0.192-0.646-0.219c-0.225-0.027-0.443-0.013-0.656,0.043
		s-0.41,0.151-0.592,0.286c-0.182,0.136-0.332,0.306-0.451,0.512c-0.119,0.206-0.192,0.421-0.22,0.646
		c-0.026,0.225-0.011,0.443,0.047,0.656c0.058,0.212,0.154,0.409,0.289,0.591c0.136,0.182,0.307,0.333,0.512,0.452
		c0.187,0.107,0.375,0.177,0.568,0.208c0.192,0.031,0.395,0.026,0.605-0.013c0.115-0.016,0.227,0.007,0.335,0.066
		c0.127,0.074,0.207,0.176,0.242,0.307c0.035,0.131,0.017,0.26-0.058,0.387c-0.071,0.124-0.181,0.206-0.327,0.245
		c-0.659,0.13-1.284,0.024-1.875-0.318c-0.654-0.378-1.078-0.932-1.272-1.662c-0.194-0.73-0.103-1.421,0.276-2.075
		c0.378-0.654,0.932-1.078,1.661-1.272S-49.438-22.394-48.786-22.015z M-52.958-25.043c0.058-0.155,0.163-0.268,0.314-0.336
		c0.15-0.068,0.304-0.073,0.459-0.015s0.268,0.164,0.336,0.314s0.074,0.305,0.015,0.46c-0.059,0.155-0.163,0.267-0.314,0.335
		c-0.15,0.068-0.304,0.073-0.459,0.015c-0.155-0.058-0.268-0.163-0.336-0.314C-53.011-24.735-53.016-24.889-52.958-25.043z
		 M-53.126-23.91c0.128-0.058,0.258-0.062,0.389-0.013c0.131,0.049,0.226,0.138,0.283,0.266s0.063,0.259,0.016,0.395l-1.566,4.158
		c-0.054,0.133-0.144,0.229-0.271,0.287c-0.128,0.058-0.258,0.062-0.389,0.013c-0.131-0.049-0.226-0.138-0.283-0.266
		c-0.06-0.13-0.063-0.261-0.013-0.394l1.566-4.158C-53.344-23.755-53.254-23.852-53.126-23.91z M-59.122-20.5l0.947-4.351
		c0.029-0.137,0.104-0.243,0.222-0.319c0.118-0.076,0.247-0.099,0.388-0.068c0.137,0.03,0.242,0.104,0.318,0.222
		s0.1,0.246,0.07,0.383l-0.021,0.095c0.28-0.139,0.571-0.229,0.873-0.27c0.302-0.041,0.612-0.027,0.93,0.042
		c0.141,0.031,0.289,0.073,0.445,0.127c0.156,0.054,0.297,0.121,0.421,0.199c0.125,0.079,0.222,0.17,0.292,0.276
		c0.07,0.106,0.091,0.227,0.062,0.363c-0.016,0.07-0.043,0.132-0.083,0.187c-0.04,0.055-0.088,0.1-0.143,0.137
		c-0.055,0.036-0.115,0.061-0.181,0.073c-0.066,0.013-0.134,0.011-0.204-0.004c-0.061-0.013-0.127-0.046-0.198-0.098
		c-0.184-0.123-0.393-0.21-0.628-0.262c-0.232-0.05-0.46-0.054-0.682-0.011c-0.223,0.043-0.427,0.124-0.61,0.242
		c-0.183,0.118-0.342,0.27-0.474,0.454s-0.223,0.393-0.273,0.625l-0.474,2.176c-0.029,0.137-0.104,0.243-0.222,0.319
		c-0.118,0.076-0.246,0.099-0.383,0.069c-0.14-0.03-0.248-0.104-0.323-0.223C-59.128-20.235-59.152-20.364-59.122-20.5z
		 M-63.865-24.634c0.521-0.546,1.159-0.829,1.914-0.847c0.749-0.018,1.399,0.234,1.952,0.755c0.273,0.257,0.48,0.546,0.621,0.867
		c0.142,0.321,0.217,0.67,0.226,1.047c0.018,0.762-0.233,1.412-0.755,1.952c-0.267,0.276-0.56,0.484-0.877,0.624
		c-0.319,0.139-0.664,0.213-1.038,0.222c-0.654,0.016-1.229-0.171-1.728-0.56l0.058,2.436c0.004,0.146-0.043,0.269-0.14,0.367
		c-0.098,0.099-0.218,0.149-0.36,0.153c-0.146,0.003-0.27-0.042-0.367-0.135c-0.099-0.094-0.149-0.214-0.153-0.36l-0.108-4.569
		C-64.638-23.437-64.386-24.087-63.865-24.634z M-71.418-25.728c0.058-0.128,0.153-0.217,0.288-0.268
		c0.131-0.049,0.26-0.045,0.388,0.013s0.217,0.152,0.266,0.283l0.647,1.718l0.571-0.215c0.131-0.049,0.26-0.044,0.386,0.014
		c0.127,0.059,0.215,0.153,0.264,0.284c0.051,0.134,0.048,0.265-0.009,0.392c-0.057,0.127-0.15,0.215-0.281,0.265l-0.571,0.215
		l0.866,2.298c0.229,0.606,0.646,0.795,1.256,0.565c0.131-0.049,0.26-0.045,0.387,0.014c0.126,0.059,0.214,0.153,0.263,0.284
		c0.051,0.134,0.048,0.265-0.009,0.392c-0.056,0.127-0.149,0.215-0.28,0.265c-1.246,0.469-2.104,0.083-2.571-1.16l-0.866-2.298
		l-0.215,0.081c-0.128,0.048-0.256,0.043-0.384-0.015s-0.217-0.154-0.268-0.288c-0.049-0.131-0.045-0.261,0.014-0.389
		c0.055-0.127,0.148-0.215,0.276-0.263l0.215-0.081l-0.647-1.718C-71.481-25.471-71.478-25.6-71.418-25.728z M-75.286-20.663
		c0.106-0.23,0.252-0.448,0.438-0.653c0.185-0.205,0.391-0.377,0.617-0.518c0.692-0.429,1.458-0.519,2.298-0.27
		c0.103,0.036,0.186,0.105,0.249,0.208c0.077,0.125,0.101,0.253,0.069,0.385c-0.03,0.132-0.108,0.237-0.233,0.314
		c-0.088,0.055-0.179,0.077-0.272,0.065c-0.093-0.011-0.187-0.028-0.28-0.05c-0.457-0.107-0.888-0.036-1.292,0.215
		c-0.398,0.247-0.641,0.566-0.728,0.957c-0.017,0.072-0.001,0.146,0.047,0.224s0.116,0.108,0.205,0.091l2.339-0.565
		c0.336-0.063,0.582-0.074,0.738-0.033l-0.005,0.003c0.343,0.083,0.604,0.268,0.781,0.555c0.133,0.213,0.195,0.439,0.188,0.677
		s-0.063,0.473-0.169,0.705s-0.25,0.449-0.435,0.651c-0.185,0.203-0.391,0.375-0.617,0.515c-0.697,0.432-1.461,0.525-2.292,0.278
		c-0.111-0.042-0.197-0.114-0.259-0.213c-0.077-0.125-0.101-0.253-0.069-0.385c0.031-0.132,0.108-0.237,0.233-0.314
		c0.091-0.057,0.186-0.078,0.282-0.063c0.096,0.015,0.188,0.03,0.271,0.047c0.457,0.107,0.89,0.035,1.296-0.217
		c0.396-0.246,0.637-0.567,0.723-0.965c0.013-0.073-0.002-0.143-0.043-0.209c-0.048-0.077-0.119-0.108-0.213-0.092l-2.335,0.563
		c-0.321,0.062-0.567,0.072-0.738,0.032l0.005-0.002c-0.343-0.083-0.604-0.268-0.781-0.556c-0.131-0.21-0.192-0.435-0.187-0.675
		C-75.448-20.197-75.392-20.433-75.286-20.663z M-76.413,1.5l1.125,1.017l1.316-0.751l-0.62,1.383l1.122,1.02l-1.507-0.163
		L-75.6,5.388l-0.312-1.484l-1.507-0.165l1.315-0.756L-76.413,1.5z M-78.999-17.981c0.519-0.54,1.158-0.819,1.917-0.838
		c0.375-0.009,0.726,0.05,1.052,0.178c0.326,0.128,0.625,0.323,0.897,0.585c0.105,0.102,0.158,0.221,0.158,0.359
		c0.001,0.138-0.049,0.259-0.148,0.362l-2.681,2.787c0.168,0.084,0.342,0.139,0.523,0.164c0.181,0.025,0.359,0.022,0.536-0.008
		c0.177-0.031,0.347-0.089,0.51-0.174c0.163-0.084,0.31-0.195,0.44-0.331c0.149-0.155,0.263-0.319,0.34-0.494
		s0.122-0.361,0.134-0.562c0.01-0.126,0.058-0.236,0.144-0.33c0.102-0.105,0.22-0.159,0.355-0.162
		c0.136-0.002,0.257,0.047,0.362,0.148c0.104,0.099,0.157,0.219,0.162,0.359c-0.03,0.67-0.284,1.253-0.761,1.749
		c-0.523,0.544-1.162,0.824-1.917,0.838s-1.404-0.24-1.949-0.764c-0.544-0.523-0.823-1.163-0.838-1.917
		C-79.777-16.787-79.523-17.437-78.999-17.981z M-81.852,6.567l-0.623,1.383l-0.312-1.483l-1.507-0.165l1.315-0.756l-0.309-1.484
		l1.125,1.016l1.316-0.751l-0.62,1.383l1.122,1.021L-81.852,6.567z M-79.753-8.619c-0.722,0.22-1.417,0.152-2.083-0.204
		l-4.032-2.151c-0.129-0.069-0.214-0.168-0.253-0.298c-0.04-0.13-0.025-0.259,0.044-0.389c0.067-0.126,0.167-0.211,0.298-0.253
		c0.132-0.042,0.262-0.029,0.392,0.04l2.153,1.148c-0.127-0.618-0.036-1.217,0.273-1.797c0.352-0.661,0.891-1.104,1.616-1.329
		c0.358-0.111,0.712-0.149,1.061-0.115c0.349,0.034,0.689,0.141,1.022,0.319c0.672,0.358,1.115,0.897,1.329,1.617
		c0.217,0.728,0.148,1.422-0.204,2.083C-78.493-9.281-79.032-8.838-79.753-8.619z M-75.344,21.623
		c-0.221,0.021-0.441,0.016-0.661-0.016c-0.22-0.033-0.435-0.086-0.646-0.164c-0.21-0.078-0.406-0.178-0.587-0.299
		c-0.217-0.145-0.411-0.314-0.582-0.51c-0.172-0.193-0.314-0.408-0.429-0.641c-0.114-0.234-0.196-0.482-0.245-0.746
		c-0.05-0.264-0.063-0.529-0.038-0.801c-0.002-0.09,0.027-0.182,0.087-0.271c0.081-0.121,0.188-0.193,0.323-0.221
		c0.135-0.025,0.263,0.002,0.385,0.084c0.081,0.053,0.136,0.117,0.163,0.189c0.027,0.074,0.044,0.207,0.049,0.396
		c0.006,0.191,0.021,0.346,0.046,0.459c0.103,0.516,0.372,0.918,0.808,1.209c0.438,0.293,0.911,0.391,1.416,0.289
		c0.339-0.104,0.58-0.262,0.723-0.475l0.322-0.482c-0.628,0.063-1.215-0.088-1.759-0.451c-0.628-0.42-1.016-1-1.163-1.74
		s-0.012-1.426,0.408-2.053c0.419-0.629,0.999-1.016,1.739-1.164c0.74-0.146,1.425-0.012,2.053,0.408
		c0.623,0.416,1.011,0.996,1.163,1.74c0.147,0.74,0.012,1.424-0.407,2.053l-1.508,2.258c-0.13,0.195-0.283,0.359-0.458,0.492
		c-0.176,0.133-0.364,0.238-0.566,0.313S-75.122,21.602-75.344,21.623z"/>
	<path fill="none" d="M-41.918,7.238c-0.183,0.021-0.355,0.068-0.519,0.142c-0.164,0.073-0.314,0.171-0.452,0.294
		c-0.137,0.122-0.251,0.264-0.343,0.425c-0.092,0.161-0.156,0.333-0.192,0.515c-0.036,0.182-0.045,0.362-0.025,0.542
		c0.02,0.18,0.067,0.353,0.143,0.52c0.076,0.167,0.178,0.317,0.308,0.45l1.629-2.86C-41.553,7.227-41.734,7.216-41.918,7.238z"/>
	<path fill="none" d="M-44.345-16.155c0.027-0.182,0.026-0.361-0.001-0.539c-0.028-0.177-0.084-0.348-0.166-0.512
		c-0.082-0.165-0.189-0.312-0.32-0.443c-0.132-0.131-0.28-0.237-0.446-0.32s-0.339-0.138-0.517-0.166
		c-0.179-0.028-0.358-0.027-0.539,0.002c-0.181,0.029-0.353,0.089-0.516,0.179l2.334,2.321
		C-44.429-15.798-44.372-15.973-44.345-16.155z"/>
	<path fill="none" d="M-76.799,26.899c0.19,0.112,0.379,0.211,0.567,0.29C-76.422,27.095-76.611,26.997-76.799,26.899z"/>
	<path fill="none" d="M-61.958,20.012c-0.139-0.17-0.309-0.311-0.508-0.42c-0.199-0.109-0.417-0.176-0.654-0.197
		c-0.239-0.023-0.468,0.002-0.684,0.072c-0.216,0.07-0.407,0.178-0.573,0.316c-0.167,0.139-0.305,0.309-0.413,0.508
		c-0.109,0.199-0.174,0.414-0.196,0.648c-0.021,0.232,0.002,0.457,0.072,0.674c0.069,0.215,0.173,0.408,0.311,0.576
		c0.139,0.168,0.307,0.307,0.506,0.418c0.198,0.107,0.418,0.176,0.658,0.197c0.236,0.021,0.463-0.002,0.679-0.072
		c0.216-0.072,0.408-0.18,0.576-0.318c0.169-0.143,0.308-0.311,0.416-0.508s0.173-0.414,0.195-0.646
		c0.021-0.232-0.002-0.457-0.072-0.672C-61.714,20.375-61.819,20.182-61.958,20.012z"/>
	<path fill="none" d="M-40.759,1.714c-0.128,0.125-0.236,0.268-0.323,0.43s-0.146,0.334-0.177,0.517
		c-0.031,0.183-0.033,0.365-0.005,0.549c0.028,0.184,0.082,0.355,0.162,0.518c0.079,0.162,0.184,0.309,0.312,0.439
		s0.275,0.237,0.443,0.318l0.553-3.244c-0.186,0.024-0.36,0.078-0.525,0.16C-40.483,1.484-40.63,1.589-40.759,1.714z"/>
	<path fill="none" d="M-51.556,17.596c-0.175-0.143-0.367-0.244-0.577-0.313c-0.209-0.066-0.428-0.092-0.654-0.076
		c-0.226,0.018-0.444,0.078-0.655,0.189c-0.213,0.111-0.391,0.256-0.533,0.434s-0.245,0.371-0.309,0.578
		c-0.063,0.209-0.087,0.426-0.069,0.652c0.018,0.225,0.08,0.441,0.189,0.648c0.108,0.209,0.251,0.385,0.427,0.527
		c0.177,0.143,0.368,0.246,0.575,0.313s0.425,0.092,0.651,0.074c0.227-0.016,0.447-0.078,0.66-0.189
		c0.211-0.111,0.387-0.256,0.529-0.434c0.142-0.178,0.245-0.371,0.31-0.58c0.064-0.211,0.088-0.428,0.071-0.652
		s-0.079-0.441-0.188-0.648C-51.238,17.912-51.379,17.736-51.556,17.596z"/>
	<path fill="none" d="M-78.564,25.99c0.323,0.211,0.646,0.35,0.999,0.495c-0.495-0.277-0.98-0.568-1.459-0.87
		C-78.855,25.782-78.67,25.92-78.564,25.99z"/>
	<path fill="#F17044" d="M-63.223-32.956c-0.86,0.03-1.71,0.094-2.551,0.191l0.001,0.055
		C-64.977-32.811-64.017-32.909-63.223-32.956z"/>
	<path fill="#F17044" d="M-62.089-32.984c-0.046,0-0.091,0.003-0.137,0.003c0.239,0.007,0.42,0.026,0.5,0.066
		c-0.197,0.318-2.463,0.497-4.035,0.622l0.012,0.455c1.609-0.165,3.833-0.431,4.191-0.455c-0.366,0.045-2.577,0.438-4.184,0.733
		l0.008,0.308c0.319,0,0.641-0.011,0.959,0.019c0.842,0.081,1.858-0.996,2.092-0.528c0.154,0.018,1.001,0.068,1.99,0.088
		c1.612-0.221,3.208-0.434,3.614-0.412c0.007,0.4-1.996,0.446-3.614,0.412c-1.656,0.227-3.328,0.463-3.747,0.463
		c-0.936,0-2.059,0.157-2.964-0.032c0.18-0.042,0.844-0.167,1.662-0.318l-0.007-0.278c-0.814,0.083-1.474,0.141-1.649,0.128
		c-1.023-0.077-2.036,0.387-3.02,0.661c-0.136,0.049-0.271,0.085-0.403,0.1c0.134-0.028,0.268-0.063,0.403-0.1
		c0.407-0.147,0.824-0.409,1.207-0.535c0.652-0.214,1.324-0.372,1.984-0.56c0.151-0.043,0.734-0.09,1.467-0.148l-0.011-0.417
		c-0.759,0.096-1.368,0.195-1.524,0.253c-0.694,0.258-1.368,0.549-2.063,0.806c-0.875,0.324-4.02,1.701-4.935,1.836
		c-1.083,0.161-1.158,2.183-2.244,2.292c0.403-0.362,1.543-2.105,2-2.417c0.44-0.299,1.212-0.728,1.749-0.833
		c1.438-0.283,3.034-1.09,4.595-1.619c-14.612,2.848-25.643,15.71-25.643,31.156c0,11.296,5.904,21.207,14.791,26.835
		c0.002,0,0.005-0.002,0.007-0.002c-0.256-0.26-0.467-0.588-0.284-0.859c0.273-0.406,0.732,0.143,1,0.234
		c0.253,0.088,1.364,0.141,1.544,0.059c-0.016-0.178-0.164-0.281-0.329-0.338c0.305,0.002,0.68,0.088,0.936,0.254
		c-0.545-0.229-1.024-0.68-1.557-0.959c-0.198-0.104-0.397-0.199-0.591-0.302c-0.958-0.297-1.917-0.74-2.056-1.452
		c0.532,0.371,1.048,0.76,1.565,1.15c0.155,0.119,0.321,0.213,0.491,0.302c0.645,0.2,1.288,0.336,1.683,0.437
		c-0.01-0.02-0.03-0.032-0.042-0.051c-0.419-0.155-0.82-0.39-0.937-0.67c0.292,0.218,0.734,0.374,0.937,0.67
		c0.165,0.062,0.33,0.11,0.485,0.145c-0.015-0.035-0.032-0.07-0.037-0.107c0.074-0.001,0.204-0.01,0.352-0.02
		c-0.053-0.076-0.108-0.153-0.148-0.227c0.259-0.048,0.529,0.058,0.799,0.196c0.469-0.008,0.919,0.026,0.953,0.214h0.043
		c0.002-0.031,0.004-0.063,0-0.092C-83.71,19.646-90.254,9.971-90.254-1.235c0-15.555,12.609-28.165,28.165-28.165
		c15.556,0,28.165,12.61,28.165,28.165c0,15.556-12.609,28.165-28.165,28.165c-4.271,0-8.317-0.955-11.943-2.656h-0.203
		c-0.004,0.087-0.016,0.177-0.002,0.254c-0.315-0.063-0.654-0.293-0.993-0.468c-0.231,0.004-0.458,0.018-0.65,0.03
		c0.043,0.063,0.085,0.125,0.108,0.184c-0.115-0.001-0.264-0.022-0.423-0.057c0.166,0.402,0.919,0.653,1.268,0.752
		c0.847,0.244,1.755,0.318,2.565,0.686c-0.588,0.238-1.418-0.111-2-0.248c-0.776-0.182-1.578-0.137-2.372-0.164
		c-0.53-0.02-1.216-0.133-1.713,0.063c-0.137,0.055-0.233,0.176-0.371,0.232c-0.072,0.03-0.146,0.047-0.221,0.061
		c0.005,0.006,0.011,0.012,0.016,0.018c0.479,0.302,0.964,0.593,1.459,0.87c0.003,0.001,0.005,0.002,0.008,0.003
		c0.25,0.102,0.504,0.26,0.759,0.411c0.188,0.098,0.377,0.195,0.567,0.29c0.078,0.032,0.155,0.07,0.231,0.092
		c-0.029-0.006-0.062-0.014-0.091-0.021c4.224,2.08,8.976,3.253,14.002,3.253c17.534,0,31.748-14.215,31.748-31.749
		S-44.556-32.984-62.089-32.984z M-84.531,19.242c0.087,0.064,0.165,0.141,0.245,0.214c0.215,0.13,0.424,0.247,0.554,0.464
		c0.081,0.136,0.13,0.273,0.183,0.409c0.116,0.175,0.226,0.354,0.326,0.536c-0.174-0.164-0.253-0.348-0.326-0.536
		c-0.212-0.321-0.457-0.618-0.737-0.873c-0.069-0.042-0.139-0.085-0.207-0.134c-0.01-0.007-0.021-0.016-0.031-0.022
		c0.153,0.19,0.305,0.385,0.463,0.567l-0.56-0.64c-0.517-0.384-1.191-0.964-1.311-1.571c0.368,0.367,0.705,0.775,1.037,1.188
		C-84.774,18.986-84.654,19.15-84.531,19.242z"/>
	<path fill="#F17044" d="M-77.934-12.031c-0.214-0.72-0.657-1.259-1.329-1.617c-0.333-0.178-0.673-0.285-1.022-0.319
		c-0.349-0.034-0.703,0.004-1.061,0.115c-0.725,0.225-1.264,0.668-1.616,1.329c-0.309,0.58-0.4,1.179-0.273,1.797l-2.153-1.148
		c-0.13-0.069-0.26-0.082-0.392-0.04c-0.131,0.042-0.231,0.127-0.298,0.253c-0.069,0.13-0.084,0.259-0.044,0.389
		c0.039,0.13,0.124,0.229,0.253,0.298l4.032,2.151c0.666,0.356,1.361,0.424,2.083,0.204c0.722-0.22,1.261-0.662,1.616-1.329
		C-77.786-10.608-77.716-11.303-77.934-12.031z M-79.038-10.429c-0.113,0.212-0.259,0.389-0.439,0.529
		c-0.179,0.141-0.372,0.243-0.58,0.305c-0.209,0.063-0.425,0.084-0.651,0.065c-0.226-0.019-0.442-0.084-0.649-0.194
		s-0.38-0.254-0.522-0.431c-0.142-0.177-0.246-0.369-0.31-0.577s-0.088-0.425-0.07-0.652c0.017-0.227,0.083-0.447,0.197-0.659
		c0.112-0.21,0.257-0.385,0.436-0.526c0.178-0.141,0.373-0.243,0.583-0.306c0.211-0.063,0.428-0.085,0.653-0.067
		c0.224,0.018,0.439,0.083,0.646,0.193c0.208,0.11,0.381,0.254,0.521,0.43c0.141,0.177,0.244,0.37,0.308,0.58
		c0.065,0.21,0.088,0.428,0.071,0.655C-78.86-10.856-78.925-10.639-79.038-10.429z"/>
	<path fill="#F17044" d="M-76.976-13.352c0.755-0.014,1.394-0.294,1.917-0.838c0.477-0.496,0.731-1.079,0.761-1.749
		c-0.005-0.14-0.058-0.26-0.162-0.359c-0.105-0.101-0.226-0.15-0.362-0.148c-0.135,0.003-0.253,0.057-0.355,0.162
		c-0.086,0.094-0.134,0.204-0.144,0.33c-0.012,0.201-0.057,0.387-0.134,0.562s-0.191,0.339-0.34,0.494
		c-0.13,0.136-0.277,0.247-0.44,0.331c-0.163,0.085-0.333,0.143-0.51,0.174c-0.177,0.03-0.355,0.033-0.536,0.008
		c-0.181-0.025-0.355-0.08-0.523-0.164l2.681-2.787c0.099-0.103,0.149-0.224,0.148-0.362c0-0.138-0.053-0.257-0.158-0.359
		c-0.272-0.262-0.571-0.457-0.897-0.585c-0.326-0.128-0.677-0.187-1.052-0.178c-0.759,0.019-1.398,0.298-1.917,0.838
		c-0.525,0.545-0.779,1.195-0.764,1.949c0.015,0.754,0.294,1.394,0.838,1.917C-78.379-13.591-77.73-13.337-76.976-13.352z
		 M-78.576-16.822c0.08-0.168,0.184-0.318,0.313-0.452c0.128-0.134,0.275-0.243,0.438-0.328c0.162-0.085,0.332-0.143,0.509-0.174
		c0.177-0.031,0.356-0.034,0.539-0.01c0.181,0.024,0.357,0.079,0.524,0.163l-2.282,2.372c-0.093-0.162-0.156-0.332-0.188-0.513
		c-0.032-0.181-0.035-0.36-0.01-0.539C-78.708-16.481-78.656-16.655-78.576-16.822z"/>
	<path fill="#F17044" d="M-74.486-18.727l-0.005,0.002c0.171,0.04,0.417,0.03,0.738-0.032l2.335-0.563
		c0.094-0.016,0.165,0.015,0.213,0.092c0.041,0.066,0.056,0.136,0.043,0.209c-0.086,0.398-0.327,0.719-0.723,0.965
		c-0.406,0.252-0.839,0.324-1.296,0.217c-0.083-0.017-0.175-0.032-0.271-0.047c-0.096-0.015-0.191,0.006-0.282,0.063
		c-0.125,0.077-0.202,0.182-0.233,0.314c-0.032,0.132-0.008,0.26,0.069,0.385c0.062,0.099,0.148,0.171,0.259,0.213
		c0.831,0.247,1.595,0.154,2.292-0.278c0.226-0.14,0.432-0.312,0.617-0.515c0.185-0.202,0.329-0.419,0.435-0.651
		s0.162-0.467,0.169-0.705s-0.055-0.464-0.188-0.677c-0.177-0.287-0.438-0.472-0.781-0.555l0.005-0.003
		c-0.156-0.041-0.402-0.03-0.738,0.033l-2.339,0.565c-0.089,0.017-0.157-0.013-0.205-0.091s-0.064-0.152-0.047-0.224
		c0.087-0.391,0.33-0.71,0.728-0.957c0.404-0.251,0.835-0.322,1.292-0.215c0.093,0.022,0.187,0.039,0.28,0.05
		c0.093,0.012,0.184-0.01,0.272-0.065c0.125-0.077,0.203-0.182,0.233-0.314c0.032-0.132,0.008-0.26-0.069-0.385
		c-0.063-0.103-0.146-0.172-0.249-0.208c-0.84-0.249-1.606-0.159-2.298,0.27c-0.226,0.141-0.432,0.313-0.617,0.518
		c-0.186,0.205-0.332,0.423-0.438,0.653s-0.162,0.466-0.169,0.705c-0.005,0.24,0.056,0.465,0.187,0.675
		C-75.09-18.995-74.83-18.81-74.486-18.727z"/>
	<path fill="#F17044" d="M-70.786-23.622L-71-23.541c-0.128,0.048-0.221,0.136-0.276,0.263c-0.059,0.128-0.063,0.258-0.014,0.389
		c0.051,0.134,0.14,0.23,0.268,0.288s0.256,0.063,0.384,0.015l0.215-0.081l0.866,2.298c0.467,1.243,1.325,1.629,2.571,1.16
		c0.131-0.05,0.224-0.138,0.28-0.265c0.057-0.127,0.06-0.258,0.009-0.392c-0.049-0.131-0.137-0.225-0.263-0.284
		c-0.127-0.059-0.256-0.063-0.387-0.014c-0.61,0.23-1.027,0.041-1.256-0.565l-0.866-2.298l0.571-0.215
		c0.131-0.05,0.224-0.138,0.281-0.265c0.057-0.127,0.06-0.258,0.009-0.392c-0.049-0.131-0.137-0.225-0.264-0.284
		c-0.126-0.058-0.255-0.063-0.386-0.014l-0.571,0.215l-0.647-1.718c-0.049-0.131-0.138-0.225-0.266-0.283S-71-26.044-71.13-25.996
		c-0.135,0.051-0.23,0.14-0.288,0.268c-0.059,0.128-0.063,0.257-0.014,0.388L-70.786-23.622z"/>
	<path fill="#F17044" d="M-64.358-17.752c0.097,0.093,0.221,0.138,0.367,0.135c0.142-0.004,0.262-0.054,0.36-0.153
		c0.097-0.098,0.144-0.221,0.14-0.367l-0.058-2.436c0.499,0.389,1.074,0.576,1.728,0.56c0.374-0.009,0.719-0.083,1.038-0.222
		c0.317-0.14,0.61-0.348,0.877-0.624c0.522-0.54,0.773-1.19,0.755-1.952c-0.009-0.377-0.084-0.726-0.226-1.047
		c-0.141-0.321-0.348-0.61-0.621-0.867c-0.553-0.521-1.203-0.773-1.952-0.755c-0.755,0.018-1.393,0.301-1.914,0.847
		c-0.521,0.546-0.773,1.197-0.755,1.952l0.108,4.569C-64.507-17.966-64.458-17.847-64.358-17.752z M-63.481-23.374
		c0.084-0.211,0.202-0.395,0.351-0.553c0.149-0.158,0.326-0.286,0.533-0.382c0.206-0.095,0.429-0.147,0.67-0.152
		c0.237-0.005,0.462,0.035,0.672,0.121c0.211,0.086,0.395,0.205,0.554,0.358c0.158,0.152,0.284,0.331,0.379,0.535
		c0.093,0.205,0.144,0.425,0.149,0.659c0.006,0.234-0.034,0.456-0.118,0.665c-0.085,0.209-0.203,0.393-0.354,0.553
		c-0.15,0.16-0.329,0.288-0.535,0.384s-0.428,0.147-0.666,0.153c-0.24,0.005-0.466-0.035-0.677-0.121
		c-0.21-0.086-0.394-0.205-0.551-0.356c-0.156-0.151-0.282-0.33-0.376-0.536c-0.094-0.206-0.144-0.427-0.15-0.661
		C-63.605-22.94-63.565-23.164-63.481-23.374z"/>
	<path fill="#F17044" d="M-58.729-19.895c0.137,0.03,0.265,0.007,0.383-0.069c0.118-0.076,0.193-0.182,0.222-0.319l0.474-2.176
		c0.05-0.232,0.141-0.441,0.273-0.625s0.291-0.336,0.474-0.454c0.183-0.118,0.387-0.199,0.61-0.242
		c0.222-0.043,0.45-0.039,0.682,0.011c0.235,0.052,0.444,0.139,0.628,0.262c0.071,0.052,0.137,0.085,0.198,0.098
		c0.07,0.015,0.138,0.017,0.204,0.004c0.066-0.012,0.126-0.037,0.181-0.073c0.055-0.037,0.103-0.082,0.143-0.137
		c0.04-0.055,0.067-0.117,0.083-0.187c0.029-0.136,0.008-0.257-0.062-0.363c-0.07-0.106-0.167-0.197-0.292-0.276
		c-0.124-0.078-0.265-0.145-0.421-0.199c-0.156-0.054-0.304-0.096-0.445-0.127c-0.318-0.069-0.628-0.083-0.93-0.042
		c-0.302,0.041-0.593,0.131-0.873,0.27l0.021-0.095c0.03-0.137,0.006-0.265-0.07-0.383s-0.181-0.192-0.318-0.222
		c-0.141-0.031-0.27-0.008-0.388,0.068c-0.118,0.076-0.193,0.182-0.222,0.319l-0.947,4.351c-0.031,0.137-0.007,0.265,0.069,0.383
		C-58.978-19.999-58.87-19.924-58.729-19.895z"/>
	<path fill="#F17044" d="M-54.948-19.07c0.057,0.128,0.152,0.217,0.283,0.266c0.131,0.049,0.261,0.045,0.389-0.013
		c0.127-0.058,0.217-0.154,0.271-0.287l1.566-4.158c0.047-0.136,0.041-0.267-0.016-0.395s-0.152-0.217-0.283-0.266
		c-0.131-0.049-0.261-0.045-0.389,0.013s-0.217,0.154-0.268,0.288l-1.566,4.158C-55.011-19.331-55.007-19.2-54.948-19.07z"/>
	<path fill="#F17044" d="M-52.606-24.271c0.155,0.058,0.309,0.053,0.459-0.015c0.151-0.068,0.255-0.18,0.314-0.335
		c0.059-0.155,0.053-0.31-0.015-0.46s-0.181-0.256-0.336-0.314s-0.309-0.053-0.459,0.015c-0.151,0.068-0.256,0.181-0.314,0.336
		c-0.058,0.155-0.053,0.308,0.015,0.459C-52.875-24.434-52.762-24.329-52.606-24.271z"/>
	<path fill="#F17044" d="M-52.521-21.019c-0.379,0.654-0.47,1.345-0.276,2.075c0.194,0.73,0.618,1.284,1.272,1.662
		c0.591,0.342,1.216,0.448,1.875,0.318c0.146-0.039,0.256-0.121,0.327-0.245c0.075-0.127,0.093-0.256,0.058-0.387
		c-0.035-0.131-0.115-0.233-0.242-0.307c-0.108-0.059-0.22-0.082-0.335-0.066c-0.21,0.039-0.413,0.044-0.605,0.013
		c-0.193-0.031-0.381-0.101-0.568-0.208c-0.205-0.119-0.376-0.27-0.512-0.452c-0.135-0.182-0.231-0.379-0.289-0.591
		c-0.058-0.213-0.073-0.431-0.047-0.656c0.028-0.225,0.101-0.44,0.22-0.646c0.119-0.206,0.269-0.376,0.451-0.512
		c0.182-0.135,0.379-0.23,0.592-0.286s0.431-0.07,0.656-0.043c0.225,0.027,0.441,0.1,0.646,0.219
		c0.187,0.107,0.34,0.237,0.462,0.391c0.122,0.154,0.22,0.333,0.293,0.537c0.045,0.117,0.122,0.206,0.229,0.268
		c0.127,0.073,0.256,0.092,0.389,0.055c0.132-0.037,0.235-0.118,0.308-0.245c0.077-0.132,0.091-0.273,0.041-0.422
		c-0.212-0.635-0.615-1.124-1.209-1.468c-0.653-0.379-1.346-0.47-2.075-0.276S-52.144-21.672-52.521-21.019z"/>
	<path fill="#F17044" d="M-48.774-16.426c0.003,0.755,0.272,1.399,0.807,1.931c0.487,0.484,1.066,0.747,1.736,0.789
		c0.139-0.003,0.26-0.055,0.361-0.157c0.103-0.103,0.155-0.223,0.154-0.359c0-0.135-0.052-0.255-0.156-0.358
		c-0.092-0.087-0.201-0.136-0.326-0.151c-0.201-0.015-0.387-0.063-0.56-0.143c-0.173-0.08-0.336-0.196-0.488-0.347
		c-0.134-0.133-0.242-0.282-0.324-0.446c-0.082-0.164-0.137-0.335-0.165-0.512c-0.028-0.177-0.028-0.356,0-0.537
		c0.028-0.181,0.086-0.354,0.173-0.52l2.742,2.727c0.101,0.1,0.221,0.152,0.359,0.154c0.138,0.002,0.259-0.049,0.362-0.153
		c0.267-0.267,0.467-0.563,0.601-0.887c0.132-0.323,0.198-0.673,0.195-1.048c-0.007-0.76-0.277-1.403-0.808-1.931
		c-0.536-0.532-1.181-0.797-1.936-0.795c-0.755,0.003-1.399,0.272-1.931,0.807C-48.512-17.826-48.776-17.181-48.774-16.426z
		 M-46.333-18.132c0.181-0.029,0.36-0.03,0.539-0.002c0.178,0.028,0.351,0.083,0.517,0.166s0.314,0.189,0.446,0.32
		c0.131,0.131,0.238,0.278,0.32,0.443c0.082,0.164,0.138,0.335,0.166,0.512c0.027,0.178,0.028,0.357,0.001,0.539
		c-0.027,0.182-0.084,0.356-0.171,0.522l-2.334-2.321C-46.687-18.043-46.515-18.104-46.333-18.132z"/>
	<path fill="#F17044" d="M-73.684,20.676l1.508-2.258c0.419-0.629,0.554-1.313,0.407-2.053c-0.152-0.744-0.54-1.324-1.163-1.74
		c-0.628-0.42-1.313-0.555-2.053-0.408c-0.74,0.148-1.32,0.535-1.739,1.164c-0.42,0.627-0.555,1.313-0.408,2.053
		s0.535,1.32,1.163,1.74c0.544,0.363,1.131,0.514,1.759,0.451l-0.322,0.482c-0.143,0.213-0.384,0.371-0.723,0.475
		c-0.505,0.102-0.978,0.004-1.416-0.289c-0.436-0.291-0.705-0.693-0.808-1.209c-0.025-0.113-0.04-0.268-0.046-0.459
		c-0.005-0.189-0.022-0.322-0.049-0.396c-0.027-0.072-0.082-0.137-0.163-0.189c-0.122-0.082-0.25-0.109-0.385-0.084
		c-0.135,0.027-0.242,0.1-0.323,0.221c-0.06,0.09-0.089,0.182-0.087,0.271c-0.025,0.271-0.012,0.537,0.038,0.801
		c0.049,0.264,0.131,0.512,0.245,0.746c0.115,0.232,0.257,0.447,0.429,0.641c0.171,0.195,0.365,0.365,0.582,0.51
		c0.181,0.121,0.377,0.221,0.587,0.299c0.211,0.078,0.426,0.131,0.646,0.164c0.22,0.031,0.44,0.037,0.661,0.016
		c0.222-0.021,0.434-0.068,0.636-0.143s0.39-0.18,0.566-0.313C-73.966,21.035-73.813,20.871-73.684,20.676z M-74.769,18.582
		c-0.224-0.039-0.435-0.125-0.632-0.258c-0.201-0.133-0.362-0.297-0.485-0.488c-0.122-0.189-0.204-0.393-0.245-0.607
		c-0.042-0.213-0.042-0.432-0.001-0.654c0.042-0.223,0.127-0.432,0.258-0.627c0.129-0.195,0.29-0.354,0.48-0.479
		c0.189-0.123,0.391-0.207,0.604-0.25s0.431-0.045,0.655-0.006c0.224,0.041,0.437,0.127,0.637,0.262
		c0.197,0.131,0.357,0.293,0.48,0.484c0.122,0.191,0.204,0.395,0.246,0.611c0.042,0.215,0.043,0.434,0.003,0.656
		c-0.041,0.221-0.126,0.43-0.256,0.625c-0.13,0.193-0.29,0.354-0.479,0.475c-0.189,0.123-0.391,0.205-0.606,0.25
		C-74.326,18.619-74.544,18.623-74.769,18.582z"/>
	<path fill="#F17044" d="M-65.992,18.131c-0.056-0.129-0.149-0.219-0.28-0.27c-0.134-0.051-0.265-0.049-0.393,0.008
		c-0.129,0.055-0.219,0.15-0.27,0.279l-0.876,2.248c-0.077,0.195-0.185,0.365-0.327,0.51c-0.14,0.143-0.302,0.252-0.483,0.332
		s-0.373,0.123-0.574,0.131c-0.202,0.004-0.401-0.029-0.595-0.104c-0.198-0.078-0.367-0.186-0.512-0.328
		c-0.144-0.143-0.255-0.303-0.333-0.48c-0.079-0.18-0.122-0.371-0.129-0.572c-0.007-0.201,0.028-0.402,0.105-0.598l0.876-2.248
		c0.051-0.131,0.047-0.26-0.009-0.389s-0.149-0.221-0.28-0.271c-0.133-0.051-0.265-0.049-0.393,0.008
		c-0.129,0.057-0.219,0.15-0.27,0.279l-0.876,2.248c-0.127,0.324-0.183,0.656-0.169,0.992c0.013,0.338,0.086,0.656,0.217,0.955
		c0.132,0.299,0.317,0.568,0.556,0.807c0.24,0.238,0.521,0.42,0.846,0.547c0.273,0.107,0.54,0.168,0.803,0.186
		c0.263,0.016,0.531-0.018,0.804-0.1c-0.048,0.133-0.046,0.262,0.007,0.387c0.053,0.125,0.147,0.215,0.283,0.268
		c0.134,0.053,0.265,0.051,0.394-0.006c0.128-0.057,0.218-0.15,0.269-0.281l1.618-4.148C-65.932,18.391-65.935,18.26-65.992,18.131z
		"/>
	<path fill="#F17044" d="M-63.024,18.375c-0.752-0.07-1.419,0.135-2,0.617c-0.582,0.482-0.907,1.098-0.978,1.85
		c-0.071,0.752,0.135,1.42,0.616,2c0.482,0.584,1.099,0.91,1.851,0.98c0.325,0.031,0.634,0.006,0.929-0.07s0.573-0.201,0.834-0.373
		l-0.009,0.098c-0.013,0.139,0.025,0.264,0.114,0.369c0.09,0.109,0.206,0.17,0.349,0.184c0.14,0.014,0.263-0.025,0.371-0.113
		c0.109-0.09,0.169-0.205,0.182-0.344l0.208-2.217c0.072-0.752-0.135-1.42-0.616-2C-61.663,18.771-62.28,18.445-63.024,18.375z
		 M-61.769,21.906c-0.108,0.197-0.247,0.365-0.416,0.508c-0.168,0.139-0.36,0.246-0.576,0.318c-0.216,0.07-0.443,0.094-0.679,0.072
		c-0.24-0.021-0.46-0.09-0.658-0.197c-0.199-0.111-0.367-0.25-0.506-0.418c-0.138-0.168-0.242-0.361-0.311-0.576
		c-0.07-0.217-0.093-0.441-0.072-0.674c0.022-0.234,0.087-0.449,0.196-0.648c0.108-0.199,0.246-0.369,0.413-0.508
		c0.166-0.139,0.357-0.246,0.573-0.316c0.216-0.07,0.445-0.096,0.684-0.072c0.237,0.021,0.455,0.088,0.654,0.197
		c0.199,0.109,0.369,0.25,0.508,0.42s0.244,0.363,0.313,0.576c0.07,0.215,0.093,0.439,0.072,0.672
		C-61.596,21.492-61.661,21.709-61.769,21.906z"/>
	<path fill="#F17044" d="M-56.275,18.035c-0.108-0.068-0.234-0.111-0.38-0.133c-0.146-0.02-0.301-0.023-0.466-0.008
		c-0.165,0.014-0.317,0.037-0.457,0.066c-0.319,0.066-0.607,0.18-0.866,0.342c-0.259,0.162-0.488,0.363-0.687,0.604l-0.02-0.096
		c-0.03-0.137-0.103-0.244-0.22-0.316c-0.118-0.076-0.245-0.1-0.383-0.072c-0.139,0.031-0.248,0.104-0.325,0.223
		c-0.076,0.117-0.1,0.244-0.071,0.381l0.919,4.357c0.029,0.137,0.102,0.244,0.22,0.32c0.117,0.076,0.246,0.098,0.387,0.07
		c0.136-0.029,0.243-0.104,0.32-0.221c0.076-0.117,0.1-0.244,0.071-0.383l-0.459-2.178c-0.049-0.234-0.052-0.461-0.007-0.684
		c0.045-0.221,0.127-0.424,0.246-0.607s0.271-0.34,0.457-0.471s0.395-0.221,0.627-0.27c0.236-0.051,0.462-0.057,0.68-0.02
		c0.087,0.02,0.161,0.021,0.222,0.01c0.07-0.016,0.133-0.041,0.188-0.08c0.056-0.039,0.101-0.086,0.135-0.141
		c0.035-0.057,0.059-0.119,0.074-0.184c0.015-0.066,0.014-0.135-0.001-0.205C-56.1,18.205-56.168,18.102-56.275,18.035z"/>
	<path fill="#F17044" d="M-50.224,17.645c-0.35-0.668-0.885-1.115-1.606-1.342c-0.727-0.221-1.422-0.158-2.085,0.189
		c-0.669,0.35-1.115,0.885-1.341,1.607c-0.225,0.721-0.163,1.416,0.188,2.084c0.35,0.67,0.886,1.115,1.607,1.342
		c0.721,0.225,1.415,0.162,2.084-0.189c0.288-0.15,0.535-0.338,0.74-0.564c0.206-0.225,0.371-0.48,0.497-0.768l0.045,0.086
		c0.066,0.125,0.165,0.207,0.299,0.25c0.134,0.041,0.265,0.029,0.392-0.037c0.124-0.064,0.206-0.164,0.248-0.299
		s0.03-0.264-0.034-0.387L-50.224,17.645z M-51.012,19.42c-0.065,0.209-0.168,0.402-0.31,0.58c-0.142,0.178-0.318,0.322-0.529,0.434
		c-0.213,0.111-0.433,0.174-0.66,0.189c-0.226,0.018-0.444-0.008-0.651-0.074s-0.398-0.17-0.575-0.313
		c-0.176-0.143-0.319-0.318-0.427-0.527c-0.109-0.207-0.171-0.424-0.189-0.648c-0.018-0.227,0.006-0.443,0.069-0.652
		c0.064-0.207,0.167-0.4,0.309-0.578s0.32-0.322,0.533-0.434c0.211-0.111,0.429-0.172,0.655-0.189
		c0.226-0.016,0.445,0.01,0.654,0.076c0.21,0.068,0.402,0.17,0.577,0.313c0.176,0.141,0.318,0.316,0.427,0.523
		c0.109,0.207,0.171,0.424,0.188,0.648S-50.948,19.209-51.012,19.42z"/>
	<path fill="#F17044" d="M-45.798,13.959c-0.217-0.275-0.476-0.494-0.777-0.652c-0.299-0.158-0.611-0.256-0.938-0.291
		c-0.327-0.035-0.651-0.01-0.976,0.076c-0.325,0.086-0.62,0.234-0.889,0.447c-0.46,0.363-0.756,0.811-0.888,1.342
		c-0.083-0.105-0.196-0.166-0.337-0.184s-0.266,0.018-0.375,0.104c-0.112,0.092-0.176,0.205-0.191,0.346
		c-0.016,0.141,0.019,0.268,0.106,0.377l2.755,3.484c0.088,0.113,0.202,0.178,0.342,0.193c0.14,0.018,0.266-0.018,0.378-0.109
		c0.109-0.086,0.172-0.197,0.189-0.338s-0.019-0.266-0.108-0.379L-49,16.486c-0.129-0.164-0.22-0.342-0.272-0.537
		c-0.053-0.195-0.067-0.391-0.044-0.588s0.082-0.383,0.177-0.561c0.095-0.176,0.226-0.33,0.392-0.461
		c0.163-0.129,0.343-0.219,0.539-0.271c0.196-0.051,0.391-0.064,0.585-0.041c0.195,0.021,0.381,0.082,0.561,0.176
		c0.179,0.096,0.333,0.225,0.462,0.389l1.492,1.889c0.089,0.113,0.202,0.178,0.342,0.193c0.14,0.018,0.266-0.02,0.378-0.107
		c0.11-0.088,0.172-0.201,0.189-0.34c0.017-0.141-0.019-0.266-0.108-0.379L-45.798,13.959z"/>
	<path fill="#F17044" d="M-42.123,12.877c-0.14,0.006-0.256,0.061-0.35,0.164c-0.438,0.482-0.897,0.506-1.376,0.07l-1.819-1.648
		l0.41-0.453c0.094-0.104,0.137-0.225,0.129-0.363c-0.008-0.139-0.065-0.256-0.171-0.354c-0.103-0.094-0.225-0.138-0.364-0.133
		c-0.14,0.006-0.256,0.06-0.35,0.164l-0.41,0.454l-1.36-1.235c-0.103-0.094-0.225-0.137-0.365-0.131
		c-0.141,0.008-0.258,0.062-0.352,0.166c-0.097,0.106-0.142,0.229-0.135,0.369c0.007,0.141,0.062,0.258,0.166,0.352l1.36,1.235
		l-0.154,0.17c-0.091,0.102-0.134,0.221-0.127,0.361c0.007,0.141,0.062,0.258,0.166,0.352c0.106,0.098,0.229,0.143,0.369,0.135
		c0.141-0.008,0.257-0.059,0.349-0.16l0.154-0.172l1.819,1.65c0.983,0.891,1.922,0.844,2.817-0.141
		c0.094-0.104,0.137-0.227,0.129-0.365c-0.008-0.139-0.066-0.256-0.171-0.354C-41.861,12.916-41.983,12.871-42.123,12.877z"/>
	<path fill="#F17044" d="M-39.305,8.111c-0.127-0.073-0.257-0.09-0.388-0.055c-0.131,0.036-0.233,0.117-0.305,0.244
		c-0.061,0.112-0.079,0.23-0.055,0.356c0.037,0.198,0.04,0.39,0.008,0.578c-0.032,0.188-0.102,0.375-0.208,0.563
		c-0.094,0.164-0.209,0.307-0.346,0.429c-0.138,0.123-0.288,0.22-0.451,0.295c-0.165,0.072-0.337,0.119-0.519,0.141
		c-0.182,0.02-0.364,0.01-0.547-0.031l1.915-3.359c0.071-0.125,0.089-0.254,0.055-0.388c-0.034-0.134-0.115-0.238-0.242-0.31
		c-0.328-0.188-0.666-0.303-1.014-0.348c-0.347-0.044-0.702-0.016-1.063,0.086c-0.731,0.205-1.282,0.633-1.653,1.283
		c-0.374,0.656-0.462,1.347-0.262,2.076c0.199,0.728,0.627,1.279,1.283,1.654c0.655,0.373,1.347,0.461,2.076,0.262
		c0.728-0.199,1.279-0.627,1.653-1.284c0.34-0.597,0.443-1.224,0.308-1.882C-39.099,8.286-39.181,8.183-39.305,8.111z
		 M-43.307,9.676c-0.076-0.167-0.123-0.34-0.143-0.52c-0.02-0.18-0.011-0.36,0.025-0.542c0.036-0.182,0.1-0.354,0.192-0.515
		c0.092-0.161,0.206-0.303,0.343-0.425c0.138-0.123,0.288-0.221,0.452-0.294c0.164-0.074,0.336-0.121,0.519-0.142
		c0.184-0.022,0.366-0.012,0.549,0.028l-1.629,2.86C-43.128,9.994-43.23,9.843-43.307,9.676z"/>
	<path fill="#F17044" d="M-40.182,0.276c-0.341,0.076-0.664,0.224-0.97,0.443c-0.616,0.443-0.988,1.033-1.114,1.771
		c-0.127,0.744,0.028,1.425,0.465,2.041c0.436,0.615,1.027,0.986,1.771,1.113c0.744,0.127,1.425-0.028,2.041-0.464
		c0.615-0.437,0.987-1.027,1.114-1.771c0.116-0.677-0.002-1.302-0.354-1.873c-0.083-0.113-0.195-0.183-0.336-0.206
		c-0.145-0.025-0.273,0.002-0.383,0.08c-0.111,0.079-0.179,0.19-0.203,0.335c-0.019,0.126,0.004,0.243,0.068,0.356
		c0.102,0.173,0.171,0.352,0.205,0.54c0.034,0.188,0.033,0.387-0.003,0.6c-0.033,0.185-0.092,0.359-0.179,0.521
		c-0.087,0.162-0.195,0.305-0.323,0.43c-0.128,0.125-0.275,0.229-0.439,0.31c-0.164,0.081-0.338,0.134-0.524,0.158l0.649-3.813
		c0.024-0.142-0.002-0.269-0.08-0.383c-0.078-0.114-0.189-0.183-0.334-0.208C-39.482,0.192-39.839,0.198-40.182,0.276z
		 M-40.348,4.485c-0.168-0.081-0.315-0.188-0.443-0.318s-0.233-0.277-0.312-0.439c-0.08-0.163-0.134-0.334-0.162-0.518
		c-0.028-0.184-0.026-0.366,0.005-0.549c0.031-0.183,0.09-0.355,0.177-0.517s0.195-0.305,0.323-0.43
		c0.129-0.125,0.276-0.23,0.44-0.313c0.165-0.082,0.339-0.136,0.525-0.16L-40.348,4.485z"/>
	<polygon fill="#F17044" points="-80.847,4.328 -82.163,5.079 -83.288,4.063 -82.979,5.546 -84.293,6.302 -82.787,6.467 
		-82.475,7.951 -81.852,6.567 -80.345,6.731 -81.466,5.71 	"/>
	<polygon fill="#F17044" points="-75.912,3.904 -75.6,5.388 -74.977,4.005 -73.47,4.168 -74.591,3.148 -73.972,1.766 -75.288,2.517 
		-76.413,1.5 -76.104,2.983 -77.418,3.739 	"/>
	<polygon fill="#F17044" points="-49.225,-5.908 -48.912,-4.424 -48.289,-5.808 -46.782,-5.644 -47.903,-6.665 -47.284,-8.047 
		-48.601,-7.296 -49.726,-8.313 -49.417,-6.829 -50.73,-6.073 	"/>
	<polygon fill="#F17044" points="-43.543,-8.386 -42.037,-8.221 -41.725,-6.737 -41.102,-8.12 -39.595,-7.957 -40.716,-8.977 
		-40.097,-10.36 -41.413,-9.608 -42.538,-10.625 -42.229,-9.142 	"/>
	<path fill="#F17044" d="M-52.195,2.898l6.084-0.416L-49.375,0.2c-0.369-0.006-0.74-0.005-1.109-0.012
		c-0.53-0.01-1.216-0.072-1.713,0.034c-0.137,0.028-0.233,0.095-0.371,0.126c-0.072,0.016-0.146,0.025-0.221,0.032
		c0.173,0.095,0.366,0.173,0.476,0.212c0.326,0.117,0.65,0.191,1.007,0.271c0.511,0.114,1.045,0.354,1.557,0.43
		c-1.15-0.131-2.792-0.373-3.73-0.811c0.206-0.083,0.452-0.08,0.69-0.103c-0.257-0.141-0.468-0.319-0.285-0.466
		c0.273-0.219,0.732,0.078,1,0.128c0.253,0.048,1.364,0.076,1.544,0.031c-0.016-0.097-0.164-0.152-0.329-0.184
		c0.305,0.002,0.68,0.048,0.936,0.138c-0.545-0.122-1.024-0.368-1.557-0.52c-0.198-0.056-0.397-0.107-0.591-0.163
		c-0.958-0.161-1.917-0.4-2.056-0.786c0.532,0.2,1.048,0.412,1.565,0.623c0.155,0.064,0.321,0.115,0.491,0.163
		c0.645,0.108,1.288,0.182,1.683,0.236c-0.011-0.011-0.031-0.018-0.043-0.028c-0.419-0.085-0.819-0.211-0.936-0.362
		c0.291,0.117,0.733,0.202,0.936,0.362c0.06,0.012,0.119,0.024,0.179,0.034l-4.289-3c0.233-0.82,0.366-1.685,0.366-2.581
		c0-5.212-4.226-9.438-9.438-9.438c-5.212,0-9.437,4.226-9.437,9.438c0,3.273,1.668,6.155,4.198,7.849l-3.595,9.484l5.917-2.107
		l2.5,5.416l3.666-11.204l10.167,6.538L-52.195,2.898z M-63.444,1.083c-3.665,0-6.635-2.971-6.635-6.635
		c0-3.664,2.971-6.635,6.635-6.635c3.664,0,6.635,2.971,6.635,6.635C-56.81-1.887-59.78,1.083-63.444,1.083z"/>
	<path fill="#F17044" d="M-60.007-9.661c-1.021-0.649-1.813,0.976-1.813,0.976l-2.458,4.729c-1.833-1-3.563-2.313-4.184-1.334
		c-0.778,1.231,0.433,1.813,0.433,1.813l4.584,2.459c0,0,0.916-1.646,2.479-4.209C-59.403-7.79-58.708-8.833-60.007-9.661z"/>
</g>
</svg>
