<?xml version="1.0" encoding="utf-8"?>
<!-- Generator: Adobe Illustrator 16.0.0, SVG Export Plug-In . SVG Version: 6.00 Build 0)  -->
<!DOCTYPE svg PUBLIC "-//W3C//DTD SVG 1.1//EN" "http://www.w3.org/Graphics/SVG/1.1/DTD/svg11.dtd">
<svg version="1.1" id="Layer_1" pointer-events="none"
	 xmlns="http://www.w3.org/2000/svg" xmlns:xlink="http://www.w3.org/1999/xlink" x="0px" y="0px" width="442px" height="602px"
	 viewBox="0 0 442 602" enable-background="new 0 0 442 602" xml:space="preserve">
<g>
	<path fill="#E6E6E6" stroke="#818181" stroke-linecap="round" stroke-linejoin="round" d="M-38-51h21v3l6,8l-3,1l-6-7h-3l-2,2
		l-10,2l-3,4V-51z"/>
	<path fill="#E6E6E6" stroke="#818181" stroke-linecap="round" stroke-linejoin="round" d="M0,0"/>
	<path fill="#E6E6E6" stroke="#818181" stroke-linecap="round" stroke-linejoin="round" d="M0,0"/>
	<path fill="#E6E6E6" stroke="#818181" stroke-linecap="round" stroke-linejoin="round" d="M0,0"/>
	<path fill="#E6E6E6" stroke="#818181" stroke-linecap="round" stroke-linejoin="round" d="M0,0"/>
	<path fill="#E6E6E6" stroke="#818181" stroke-linecap="round" stroke-linejoin="round" d="M0,0"/>
	<path fill="#E6E6E6" stroke="#818181" stroke-linecap="round" stroke-linejoin="round" d="M0,0"/>
	<path fill="#E6E6E6" stroke="#818181" stroke-linecap="round" stroke-linejoin="round" d="M37,452h-1H37z M47,454l-2-2l2-3v4V454z
		 M42,437l-1,1v-2L42,437z M34,431l-2-3h2v2V431z M34,429l-1-1h2L34,429z M21,417l2,2l-1,3L21,417z M16,415l3,3v4l-3,3l-1-10H16z
		 M23,417l-1-1l2-1L23,417z M16,398l-1,1v-3l1,1V398z M16,395l-1,1v-3L16,395z M6,387L6,387z M7,386l-1,1v-2L7,386z M48,384l-1,1
		L48,384z M57,383l-1,3l-2,1l-1-4h3H57z M47,382L47,382z M19,379l-1,1v-2L19,379z M55,378l2,3l-3-3H55z M113,333l1,3h-2L113,333z
		 M106,323l4,4l-1,1l-2-1L106,323z M54,128l4,4v-2l5-2l2,5h2l-1,6l-3,4l2,6l2,1l2-2l3,2l2-3l9,1l-2,4l4,8l-3,5l1,4l-5,6l1,2h2v8
		l-4,3l-2,7l1,1l4,2l6-6l4-1l-1-1l2-2h3l1-4l2,1l5-5h2v2l5,4h4l2,4l4-4h4l3-6l4-2l-2-1l2-2h5l8,4l3-1l2,5l7,9l9,7l-1,21l3,3v2l3,1v3
		l2,2l7,2v5l5,3l-1,5l-3,2l2,2l-3,4l3,3l-2,5l1,5l-4,4l-4,1l-3,3l-1-4l-3-1h-6l-1,2h-16l-5-2l-10,2l-6,3l-1,5l-8,8v2l-5,1l5,17l-1,4
		h2l4,4l-1,7l5,9v3l-3-8l-5-5v3l-2-2h-3l-2-2l2-2l-1-1v2v-3h-2l1,3l-4-4l1-2h-2v2l-2-3v2l-6-5l-1,2l-5,1l-8-2l-2,2l-2-2l-1,1v-6l2-2
		l-1-7l2-4l-7-1l-2-1v-2l-1,3h-7l-6,4v2l3,3l-3,7l1,13l-5,12l-4,5l-1,8l-2,1l1,6h-2v2l-5,6l1,3l-3,1l2,3l-2,2v8l4,9l-2,2l1,2l5,1
		l1-2l3-1l5,2l2,14l3,5h2l-1-2l3,4v5l7,21l-3-2l-1-6h-3v-6l-3,1l2,8l3,2l2,4l3-1l4,5h2l3,3l8-1l-2-1l1-1l4,2l7,9l7,5l-1,4l-6,8h-2
		l-3-4l-7,3v2l-3,2l-3-4l2-3v-7l-6-1v-4l-10-2l-2-4l-3,1l-1,5v-2l-1,1l-2-4l-7-5l2-6l-1,1l-4-2l2-4l-1,1l-2-2l-1,3l-3-2l1-3l-5-6
		l-1,1l-2-2l1-3l-1,1l-2-4h-4l-1-6l-1,1l-1-2h-2l-3,5l-3-3l-1-10l4-7l-2-4l3-8h2l-1-4h2l-1-3l2-2l4-12l-1-6l3-1l3-3l-1-1l5-4l6-12
		l4-3v-2l-2-2v-5h-2l1-1l-2-9l-4-4l-2-4l1-1l-2-2v-4h2l-2-15l-4-6l-8-7l-9-14v-6h5v-2l4-2v-15l3-2l2,1l3-7l-2-2l-3,5l-1-1l-4-10l1-4
		l-3-4l-3-1l-4-7l-9-9l1-7l-3-5l1-1l-3,1l-4-7l4,2l6-3l-1-5l-2-2l4-5v-11l4-2v-4l5,3h7l6-3l2,2l3-2l1-7l2-1l3,2l6-3l-3-5l6,2l6-3
		L54,128z"/>
	<path fill="#E6E6E6" stroke="#818181" stroke-linecap="round" stroke-linejoin="round" d="M0,0"/>
	<path fill="#E6E6E6" stroke="#818181" stroke-linecap="round" stroke-linejoin="round" d="M-9,552l1-1l2,2l-5-1l1-1L-9,552z
		 M261,544l1,1l-3-1H261z M197,540l-1-2L197,540z M-38,536l2,3l3,1v2l7,3v2l-1,2l-8-6h-3V536z M256,537l-2-1l2-2V537z M231,534h1
		H231z M186,534h2l-1,2h-2l1,1h-2v-4l1,1H186z M197,529l1,3l-2-3H197z M198,526v2h-2L198,526z M244,509l2,5l-2,4l-3,1l-2-2h4l-1-2
		l-4-1l-2-3l6-6v3L244,509z M406,553h-16l2-3h2v-2l7-4l-4-2v-4l3-4l6-1V553z M236,495l1-1L236,495z M-38,479l4,3h21l4,3l7-3l9,8l2,7
		l6,4v5l-2,2l2-1l1,2l4,1l7,7l9,4l9,8h4l2,4l3,2l1,3l-2,3l2,2l-1-3h2l1,4l2-4l8,13h6l1-3h4l3,3H13l-5-3H3l-2-2l-1-11l-7-5v-2l-3-2
		l-3-6l-6-5h-5l-3-2l-3-5l-8-6V479z"/>
	<path fill="#E6E6E6" stroke="#818181" stroke-linecap="round" stroke-linejoin="round" d="M314,548l-2-1l1-8l1,7V548z M150,540v-4
		l1,4H150z M83,533L83,533z M84,534v-2l1,1L84,534z M402,481l-1,1v-3L402,481z M62,478l-1,4h-2v-4l2-1L62,478z M50,461l-1-1l2-2v3
		H50z M52,455l1,3l-2,1h-2l-3-4h5H52z M59,449h2l2,4l10,2l1,5l5-1v7l-2,4l3,4l3-2v-2l6-3l3,2v2h3l6-7l1-5l2,2l1-1l4,2l2,6l15,11
		l7,13l1,6v7l-2,3l1,3l-2,5l3,6l-1,13l2,4l6,4l5,10l-42-1l-5-5h-2l-2-4l-5-1l-3-4l-3-1l2-4l-3-7l-3-2l-1-4l-6-5l1-1h-3v-2l3-2h-2
		l-5-6l2-10l-1-3h-2l-3-4v-22l-6-10L59,449z M406,533h-5l-2,2l-2,3v4l4,2l-7,4v2h-2l-2,3h-81l2-6l2,2l3-1l-2-2l3-1l-3-1l1-3l5-4
		l21-4l11-4v-2l5-4l4-7l11-11l1-8l5,2l2,4l-1,1l3,1l5,6l4-3l1-3l-2-10l6-5l2,12l5,2l1-1l-2-2l-1-9l-2-2h4l3-2v-6l-2-3l2-1V533z"/>
	<path fill="#E6E6E6" stroke="#818181" stroke-linecap="round" stroke-linejoin="round" d="M10,378l-1-1L10,378z M15,372l1,1l-4,4
		l1-4L15,372z M13,372l1-3v2L13,372z M7,362v2V362z M14,362l-1-1L14,362z M22,354l-1,1v-2L22,354z M7,353l-1,1l2-1H7z M14,352l2,3
		l-2,2l1-3l-2-2l-2,1l1-2h2V352z M19,351v-1V351z M21,350l-1,1l1-2V350z M15,344l1,1L15,344z M15,338l-2,2l3-8l-1,5V338z M-3,332
		L-3,332z M21,332l1,4l-3,1l-1-5l3-1V332z M10,333v2l-1-5l1,2V333z M1,330h1H1z M16,330v-1V330z M15,329v-1V329z M21,327l2,1l-3,2
		v-5L21,327z M11,322l1,1l-2-1v-2h2v2H11z M11,318l-2,2l-1-1L11,318z M21,317l-1-2l1,1V317z M15,315l-1-1l2,1H15z M6,314v-1V314z
		 M18,314l1,1v-2l1,2l-3,4l-1-8l2,1V314z M6,309l-1-1L6,309z M16,302v3l-1-6L16,302z M7,285l1-1L7,285z M2,244l-1,1v-2L2,244z
		 M-1,228l-2-2l1-5l2,1l-1,4V228z M15-51h9l2,25l-2,7l1,5h-4l4,6l-2,2l-2-1l-4,7l-5-1v4l-2,3l-8,6l2,6l-6,3v7l4,2l-1,1l2,1v3l-5,6
		l3,2l3-3l9-4h15l1,1l-5,3v4l3,1v7l2,1l-1,3l2,1l-1,2l8,4l2-2l4,1l1,3l-3,1l-2,4l1,6l-3,3l-2,6l12,3l6-1v7l1,2l4,1l-1,3l2,3l3-3l6,2
		l11-8l2,3v4l-8,5l-2-1l-5,10l3,1l-2,2l-4-1l-5,5l-1,8l-4-3l-6,3l-5-2l2,4l-1,2l-4,2l-3-2l-2,1l-2,3v4l-3,2l-1-2l-6,3h-7l-5-3l-1,4
		l-4,3l1,1l-2,2l1,7l-4,4l2,2l1,6l-6,3h-2l-1-2l-1,1l4,6l3-1l-1,1l3,7v7l17,17l1,3l-2,3l3,3l2,7l1,1l3-5l2,2l-3,7l-3-1l-1,2h-2l1,15
		l-1,2l-3-1v2l-4,2l-1-1v6l10,16l11,10l2,11l-2,9l2,2l-1,1l2,4l4,4l2,9l-1,1h2v5l2,2v2l-4,3l-5,12l-11,9l1,6l-6,11v-9l-2-7l1-2h2v-3
		l3-1v-15l1-3l1,1l2-2h-2v-3l1,1l-3,3l-2-1v-2l2-1l-3-1l3-1l-2-4l2-2h-4l1-2l3-1l-2-2l2-7l-3-5v-6l-2-1v-4l-1,1l-4-8l-2-8l1,4l-2,8
		v-14l-6-12l2-2l1,2v-2H7v-2v2H5v-11l-2-2v-14l-4-3l2-12l2-2l-8,2l-3-5v-4l-1,1l-1-2v-3l2-1h-2l-2-4h-2l1-1l-3-2v-2l-2,2l2,2v8l-2,2
		v4l-4,4l-5,2l-3-2v-6l-2,1l3,7l-4,3l-3-1v3h-2V-38l5-5l12-3l7,7h2l1-1l-6-8v-3H15z"/>
	<path fill="#E6E6E6" stroke="#818181" stroke-linecap="round" stroke-linejoin="round" d="M97,79l5-1l9,10v2l3,1l1,6l3-2v-2l1,3
		l3-1v3l-3,5l2-1l-1,4l-2,1h2v2l6,8h7l5,4l2-4l7-3l6,2l3,4l4,2l-6,4l5,1l2,2l-1,3h4l4,4l-5,4l1,1l-4,4v2l-6-2h-8l2,5l-6,4l12,6l7,6
		l10,3l1,1l-2,4l2,4l9,6l3,8l12,12h2l3,6h2v7l3,6h2l2-3l1,3l6,6l4,3l3-1l-1,4l-4,2l-1-1l-1,2l5,7h2l5,6l-1,3l-4,2v2l2,1v5l-3,3h-4v2
		l-3,2l-1-1l-3,3h-2l-7-6l-5,3l-2-1l-1,3h-5l4,7l-1,3h-4l-8-6l-4,2l-4-4v-2l4-1l3-3l-1-6l2-2l-1-2l2-1l-4-3l3-4l-2-2l3-2l1-5l-5-3
		v-5l-8-2l-1-4l-6-6l-1-12l2-4v-6l-13-11l-5-10l-3,1l-2-2l-11-2l-2,2l2,1l-3,1l-1,3h-2v3l-5,1l-3,3h-2l-1-3h-3l-7-6l-5,5l-3-1l-1,3
		l-6,5h-2l-5,6l-6-2l2-7l4-5v-6l-3-2l5-7l-1-4l3-4l-4-8l2-4l-1-2h-7l-3,3l-3-2l-2,2l-3-3l-1-3l3-4l1-6l-2-1l-2-5h-2l-3,3v-9l5-5h5
		l1-1l-3-1l5-9l11-6l-1,3l2,1l-1,3l2,2l5-2l2,1l-1,1l2-1l1,2h2l1-3l-2-2v-6l2-1l-2-2l-1-6h-2l-2-7l5-7l2,3H97z"/>
	<path fill="#E6E6E6" stroke="#818181" stroke-linecap="round" stroke-linejoin="round" d="M141,363v-1V363z M130,360l-1-1L130,360z
		 M129,356v2l-2-2H129z M123,340l1,4l-2-3L123,340z M124,340v-1V340z M225,267l-1,3l-2,1l-1,6l1,3h2v4l4,8l-4,11l3,13l-4,5l-2-2
		l-4,1l-4,5h-4l-4,2l1,1h-5l-1,7l-8-3l-6,4l2,3v4l7,7v6l-5-3l-1,1l-3-4l-7,2l-1-1l-2,1v2l-6-3v5l-5,5h-7l-2,3l-5-4h-6l-2-2l-2,3
		l-1-1v2h-3v-2l-1,1l-2-2l5-5l-1-5l-3-3l-2,2l-1,5l-7-1l1-5l-2-3l2-2l-2-2h3l-3-2v-2v2h-2v-2h2l-2-2l3-1l-3,1l-1-3l1,6l-6-13l1-8
		l-6-4l1-3l-5-18l7-2l-2-1l8-8l1-5l14-5l5,2h18l7-2l3,1l1,4h2l1-3l4,6l6-1l7,5h4l1-3l-4-6l3-2l2,1l1-3l2,1l5-4l1,3l8,4l2-3l2,1l4-5
		l3,1l3-3l-1,2V267z"/>
	<path fill="#E6E6E6" stroke="#818181" stroke-linecap="round" stroke-linejoin="round" d="M0,0"/>
	
		<image overflow="visible" width="440" height="495" xlink:href="mapvietnam.png"  transform="matrix(0.7593 0 0 0.7593 12 49.3335)">
	</image>
	
		<path display="none" fill="#EB3880" stroke="#EB3880" stroke-width="3" stroke-linecap="round" stroke-linejoin="round" stroke-opacity="0" d="
		M206,402l-2,2L206,402z M196,382l2,1l-1,1l-4-5l2,2L196,382z M203,377l-2-2l1,1L203,377z M208,368l-5-2L208,368z M146,363l2,5l-2,5
		l-1-5l-3-3h2l1-2H146z M218,363l-2,3v-2L218,363z M213,362v2l-2,1l1-4L213,362z M259,361h-1H259z M212,360l-1,1l1-2V360z M211,362
		v2l-3-2v-4l3,1l-1,3H211z M267,322l-1,1v-2L267,322z M269,314l-2-1l1-1L269,314z M223,118l-1-1L223,118z M214,117h2v3h-2l1-1l-1,1
		l-2-2l1-1H214z M222,116h-1H222z M210,116v2v-3V116z M225,118l1-3L225,118z M232,113h-1H232z M233,113v-1V113z M226,112v3l-3,1l3-3
		V112z M227,113l1-3l-1,2V113z M226,108h2l-5,4l1-6l2,1V108z M232,105l-2,1L232,105z M237,103l-4,2L237,103z M177,57l4,5l4,1l2,3
		l6-2l3,1l1,3l6-2l2,2l1-1l3,3l-6,8v2l3,1v8l2-1l6,2l1,4l5,2l1,2l3-1l1,2l8-2l3,4l-1,1v-2h-4l1,1l-5,5l-3-1l-2,2v6h-3l-2,2v-3l-4,2
		l-2-1l2,2h-4l1-1l-4-2v2h2l-1,4l2,2h-3v2l-1-1l-2,6l1-1l1,5l-3-1h2v2h-4l-5,6l-3-1l-2,2l-2,4l1,1l-3,3l1,7l-5,8l4,5l-1,3l1-3l4,9
		l3,3l4,1l2,4l2-2l2,5l-2,1l1,4l-4-1l4,2l6,8l9,7v4h2l9,7l-3-1l6,4l2,4l5-1l3,3v5l2-4v4l9,12l-1,1l1-1l2,4l2-2l2,4l-2,2l6,12l-1-1
		l1,7l3,6h-2l3,6v2l-1,1v-3l-1,2l2,5l-2-2l1,3h2v2l-1,1l-1-2v2l2,4l-1,2l4,5v2l-1-1l-1,2l2,6l-1-3l-1,1v-4l-4,4v2l1-1l2,4l-1,2l-3-3
		l2,4h-2l3,10h-2l-1-6l1,3l-2,3h2l1,3l-2,4h-2l-1-2l-1,8l-2-1l-4,4h-4l-1,3l-5,3h-3l-3,3v2h-4l-13,8l-3-3h-2v-3l-2-2v5v-3l-4-1l-2,4
		h-3h4l1,4h-8l8,3v2h-2l-1,3l-4-2l-4-5l1,3l6,5h2v2l-1-1l-1,2l-11-10l1,3h2l7,8l-1,4l-3,1l-13-11l6,6l3,7l-4,3l-11,4l-5,7l-5,4l-9,2
		l3-3h2h-2l2-2h-4l2-22l5-4l1,2v-2l-7-7l-4,2l-1-1l-2-4l1-1l-2,1l2-4h6l5-4l1-6l5,3l2-3l8-1l3,4l1-1l6,2v-6h-2l-5-5v-7h-2l4-2l1-3
		l9,3l1-8l6,1l2-3h4l4-5l3-1l3,2l4-5l-3-13l4-8v-3l-2-5l-2-1v-6h-2l-1-3l2-7l2-1v-7l2-3l-3-3h2l3-5l-2-4h-2v-2h-2l-6-6l7-6v-2l-3,1
		l-4-3v-2l-4-1l-3-5l-4,2v-4l-3-2v-7l-3-1l-3-7l-1,1l-4-3l-8-8l-5-11h-4v-2l-1,1l-2-2l-2-3l2-4l-1-2l-11-3l-8-7l-10-5l5-4l-2-5l2,1
		l4-2l8,3l9-11l-4-4l-3,1v-4l-2-2l-5-1l2-2l1,1l2-3l-10-8l-7,2l-3,5l-6-3l-7-1l-6-8v-2h-2l3-5l-1,1l2-8l-2,1l-1-3l-3,4l-2-2v-4l-3-1
		v-2l-6-5l-2-5h2l5-8l6,2l3,2l1,3l3,1l7-9l4,5l1-3l3-2l6,7l3-7l3-1l3,4l5-4l3,1l3-3v-4l2-2l6-2l3-3l1,1L177,57z"/>
	<path fill="#E6E6E6" stroke="#818181" stroke-linecap="round" stroke-linejoin="round" d="M310,238L310,238z M322,232L322,232z
		 M319,221v-1V221z M344,217L344,217z M335,213L335,213z M335,211L335,211z M298,134v2l4,1l4,9l-4,2l-1-1l-2,3l1,1l-3,1l1,1l-3,5
		l-2-1l2,2l-3,7h2v-2v3h-2l-1,3l-3-1l-5,5v2h-6l-2,5h-3v-2l-2,2l1-1l-4-2l-4,1v-2h-4l-3-3l-4-1v-21h2l10-7l2-2l-3,1v-2l3-3l2,2h4
		l-1-1l3-3l8,2l3-1l1-2h4l1,3v-4l5,4l-1-3l3-3V134z M292,121v2V121z M296,116l-1-1h2L296,116z M262,112L262,112z M291,111l4,1l-1,3
		l-2-2h-4L291,111z M293,109l3-1l-2,3l-1-3V109z M326,97h2l-5,2L326,97z M342,98h-2v-2l2,1V98z M347,94l-2,5l-1-3l2-2H347z M356,91
		h1H356z M368,89L368,89z M380,88h-2l2-1V88z M359,87l1,1h-2l1-2V87z M363,87h-2l1-2l1,1V87z M359,85l-2,2l-1-1l2-1H359z M365,78h-1
		H365z M365,74l-3-3l1-1l2,3V74z M361,67l3,2l-1,1l-3-4L361,67z M363,67v-1V67z M406-51V71l-1,1v-2l-4-1l2-1v-2l-1,2l-5,1l-1,3l-2-2
		v5l-4-2l2-4h-2l-5,3l1,1l-2,2l3,1l-2,1l-3-3l-6,2l-4-1v2h-2l1-1l-2-1l-1-5h-2l-2-3l1-3l-1,2v-3h-2l3-2h4l-2-1l-8,2l3,2l-1,2h-6l4,1
		l5,7v8l-3,3l-7-10v2l6,7h-2l-2,4h-2l-1-5l-1,3l-1-1v4l-2,3l-3-3l-5,5l-3-1l-1-1l2-2l-3-1l1-2v6l-3,3l-2-4l-3,2v-3l-2,2l-2-3v3l3,1
		l-3,2l-4-2l2,3l-4,3l-1-1l-2,2l-1-3v2h-2l-1,2l-2-2h-2v2l-2-2l-2,2l1-1v2h-5l-3,4l-1-3l4-2l-4,3v3l-4-1l1-1l-2-4v6l-5,5v4h5l-2,4
		l5,4v2l-4,4l-7-1l-3,2l-1-5l3,2v-2l-4-2l1-1l-3-3l3-1l-2,1v-4l-1-1v2l-2-3l1-5l2-2v-4l1,1l3-3l-5-3l1,2h-2v-2h-2l-1-5l-2,3l2,4
		l-8,2l-4-1l3-1l-1-3h-2l1-1l-3,1l-2-2l2-2l-1,1v-2h-2l1,5h-2v-2l-1,1v-2l-1,1v-2h-2v-4l-3,2v-2v6l1,1l1-2l-2,4h-2h2v-2l-3-1l-2,5
		v-4l-4,2l-2,4v-2l-4-4l-7,2l-2-2l-1,1l-1-2l-7-3l-1-3l-1,1l-4-3l-2,2v-9l-3-3l1-4l2,1l3-6l-7-3l-4,2l-2-1v-2l-3-1l-5,2l-3-3h-4v-2
		l-6-6l-3,3l-7,2l-1,6l-3,3l-3-1l-4,4l-3-1l-1-3l-2,1l-2,2l-1,5l-7-7l-4,5l-4-5l-7,9l-5-5l-6-3h-2l-5,8l-8,1l-3-3l-3,6h-2l5,11v13
		l2,1l-1,3h-2l-1-2l-1,1l-1-2l-6,2l-2-2l1-3l-2-1l1-2l-2-7l-12,8l-5-2l-4,3l-2-2l1-4l-5-2v-8l-6,1l-12-4l2-5l3-2l-1-6l2-5l3-1l-1-3
		l-3-1l-3,2l-8-4v-7h-2v-2l2-1l-2-4l-3-1v-4l5-3l-16-1L1,43l-3-2l5-6l-2-6l-3-1v-7l6-3l-2-2v-3l3-5l2,1l5-5v-5l5,1l4-7h4l-4-6l4-2
		v-36H15H406z"/>
	<path fill="#E6E6E6" stroke="#818181" stroke-linecap="round" stroke-linejoin="round" d="M376,83l1,1L376,83z M378,82v2l-2-2l2-1
		V82z M374,81l-3,3l-2-1l5-3V81z M377,75l3,1l-2,2l-1-1l2,2l2-2l1,1v2l-3-1l1,3l-9-3l4-4H377z"/>
	<path fill="#E6E6E6" stroke="#818181" stroke-linecap="round" stroke-linejoin="round" d="M0,0"/>
	<path fill="#E6E6E6" stroke="#818181" stroke-linecap="round" stroke-linejoin="round" d="M0,0"/>
	<path fill="none" stroke="#555555" stroke-width="2" stroke-linecap="round" stroke-linejoin="round" d="M126,62l11,9"/>
	<path fill="#555555" stroke="#555555" stroke-width="1.5" stroke-linecap="round" stroke-linejoin="round" d="M135,71
		c0,1.104,0.896,2,2,2s2-0.896,2-2s-0.896-2-2-2S135,69.896,135,71"/>
	<path fill="none" stroke="#555555" stroke-width="2" stroke-linecap="round" stroke-linejoin="round" d="M189,55l-17,7"/>
	
		<path fill="#3388FF" fill-opacity="0" stroke="#3388FF" stroke-width="3" stroke-linecap="round" stroke-linejoin="round" stroke-opacity="0" d="
		M162,62c0,5.523,4.477,10,10,10s10-4.477,10-10s-4.477-10-10-10S162,56.477,162,62"/>
	<path fill="none" stroke="#555555" stroke-width="2" stroke-linecap="round" stroke-linejoin="round" d="M241,112h-26"/>
	
		<path fill="#3388FF" fill-opacity="0" stroke="#3388FF" stroke-width="3" stroke-linecap="round" stroke-linejoin="round" stroke-opacity="0" d="
		M205,112c0,5.523,4.477,10,10,10s10-4.477,10-10s-4.477-10-10-10S205,106.477,205,112"/>
	<path fill="none" stroke="#555555" stroke-width="2" stroke-linecap="round" stroke-linejoin="round" d="M229,87l-56,21"/>
	<path fill="#FFFFFF" stroke="#555555" stroke-width="2" stroke-linecap="round" stroke-linejoin="round" d="M170,108
		c0,1.657,1.343,3,3,3s3-1.343,3-3s-1.343-3-3-3S170,106.343,170,108"/>
	<path fill="none" stroke="#555555" stroke-width="2" stroke-linecap="round" stroke-linejoin="round" d="M119,102l41,12"/>
	
		<path fill="#3388FF" fill-opacity="0" stroke="#3388FF" stroke-width="3" stroke-linecap="round" stroke-linejoin="round" stroke-opacity="0" d="
		M150,114c0,5.523,4.477,10,10,10s10-4.477,10-10s-4.477-10-10-10S150,108.477,150,114"/>
	<path fill="none" stroke="#555555" stroke-width="2" stroke-linecap="round" stroke-linejoin="round" d="M148,141l22-8"/>
	
		<path fill="#3388FF" fill-opacity="0" stroke="#3388FF" stroke-width="3" stroke-linecap="round" stroke-linejoin="round" stroke-opacity="0" d="
		M160,133c0,5.523,4.477,10,10,10s10-4.477,10-10s-4.477-10-10-10S160,127.477,160,133"/>
	<path fill="none" stroke="#555555" stroke-width="2" stroke-linecap="round" stroke-linejoin="round" d="M249,197l-20,25"/>
	<path fill="#555555" stroke="#555555" stroke-width="2" stroke-linecap="round" stroke-linejoin="round" d="M226,222
		c0,1.657,1.344,3,3,3s3-1.343,3-3s-1.344-3-3-3S226,220.343,226,222L226,222"/>
	<path fill="none" stroke="#555555" stroke-width="2" stroke-linecap="round" stroke-linejoin="round" d="M283,207l-38,40"/>
	<path fill="#555555" stroke="#555555" stroke-width="2" stroke-linecap="round" stroke-linejoin="round" d="M242,247
		c0,1.657,1.344,3,3,3s3-1.343,3-3l0,0c0-1.657-1.344-3-3-3S242,245.343,242,247"/>
	<path fill="none" stroke="#555555" stroke-width="2" stroke-linecap="round" stroke-linejoin="round" d="M272,244l-28,30"/>
	
		<path fill="#3388FF" fill-opacity="0" stroke="#3388FF" stroke-width="3" stroke-linecap="round" stroke-linejoin="round" stroke-opacity="0" d="
		M234,274c0,5.523,4.477,10,10,10s10-4.477,10-10s-4.477-10-10-10S234,268.477,234,274"/>
	<path fill="none" stroke="#555555" stroke-width="2" stroke-linecap="round" stroke-linejoin="round" d="M294,338l-35-15"/>
	<path fill="#555555" stroke="#555555" stroke-width="2" stroke-linecap="round" stroke-linejoin="round" d="M256,323
		c0,1.657,1.344,3,3,3s3-1.343,3-3s-1.344-3-3-3S256,321.343,256,323"/>
	<path fill="none" stroke="#555555" stroke-width="2" stroke-linecap="round" stroke-linejoin="round" d="M183,304l25,56"/>
	<path fill="#555555" stroke="#555555" stroke-width="2" stroke-linecap="round" stroke-linejoin="round" d="M205,360
		c0,1.657,1.343,3,3,3s3-1.343,3-3s-1.343-3-3-3S205,358.343,205,360"/>
	<path fill="none" stroke="#555555" stroke-width="2" stroke-linecap="round" stroke-linejoin="round" d="M280,388l-40-58"/>
	<path fill="#555555" stroke="#555555" stroke-width="2" stroke-linecap="round" stroke-linejoin="round" d="M237,330
		c0,1.657,1.344,3,3,3s3-1.343,3-3s-1.344-3-3-3S237,328.343,237,330"/>
	<path fill="none" stroke="#555555" stroke-width="2" stroke-linecap="round" stroke-linejoin="round" d="M247,415l-10-63"/>
	<path fill="#555555" stroke="#555555" stroke-width="2" stroke-linecap="round" stroke-linejoin="round" d="M234,352
		c0,1.657,1.344,3,3,3s3-1.343,3-3s-1.344-3-3-3S234,350.343,234,352"/>
	<path fill="none" stroke="#555555" stroke-width="2" stroke-linecap="round" stroke-linejoin="round" d="M200,414l13-22"/>
	
		<path fill="#3388FF" fill-opacity="0" stroke="#3388FF" stroke-width="3" stroke-linecap="round" stroke-linejoin="round" stroke-opacity="0" d="
		M203,392c0,5.522,4.477,10,10,10s10-4.478,10-10s-4.477-10-10-10S203,386.478,203,392"/>
	<path fill="none" stroke="#555555" stroke-width="2" stroke-linecap="round" stroke-linejoin="round" d="M149,355l51,17"/>
	
		<path fill="#3388FF" fill-opacity="0" stroke="#3388FF" stroke-width="3" stroke-linecap="round" stroke-linejoin="round" stroke-opacity="0" d="
		M190,372c0,5.522,4.477,10,10,10s10-4.478,10-10s-4.477-10-10-10S190,366.478,190,372"/>
	<path fill="none" stroke="#555555" stroke-width="2" stroke-linecap="round" stroke-linejoin="round" d="M125,385l20-18"/>
	
		<path fill="#3388FF" fill-opacity="0" stroke="#3388FF" stroke-width="3" stroke-linecap="round" stroke-linejoin="round" stroke-opacity="0" d="
		M135,367c0,5.522,4.477,10,10,10s10-4.478,10-10s-4.477-10-10-10S135,361.478,135,367"/>
	<path fill="none" stroke="#555555" stroke-width="2" stroke-linecap="round" stroke-linejoin="round" d="M229,150l-31-26"/>
	<path fill="#555555" stroke="#555555" stroke-width="2" stroke-linecap="round" stroke-linejoin="round" d="M195,124
		c0,1.657,1.343,3,3,3s3-1.343,3-3s-1.343-3-3-3S195,122.343,195,124"/>
	<path fill="none" stroke="#555555" stroke-width="2" stroke-linecap="round" stroke-linejoin="round" d="M288,292l-25-1"/>
	<path fill="#555555" stroke="#555555" stroke-width="2" stroke-linecap="round" stroke-linejoin="round" d="M260,291
		c0,1.657,1.344,3,3,3s3-1.343,3-3s-1.344-3-3-3S260,289.343,260,291"/>
</g>
</svg>
