<?xml version="1.0" encoding="utf-8"?>
<!-- Generator: Adobe Illustrator 15.1.0, SVG Export Plug-In . SVG Version: 6.00 Build 0)  -->
<!DOCTYPE svg PUBLIC "-//W3C//DTD SVG 1.1//EN" "http://www.w3.org/Graphics/SVG/1.1/DTD/svg11.dtd">
<svg version="1.1" id="Layer_1" xmlns:sketch="http://www.bohemiancoding.com/sketch/ns"
	 xmlns="http://www.w3.org/2000/svg" xmlns:xlink="http://www.w3.org/1999/xlink" x="0px" y="0px" width="19.375px"
	 height="25.521px" viewBox="0.375 0.313 19.375 25.521" enable-background="new 0.375 0.313 19.375 25.521" xml:space="preserve">
<title>icon-contact@2x</title>
<desc>Created with Sketch.</desc>
<g>
	<g>
		<g>
			<g>
				<path fill="#C19F66" d="M11.293,18.477c-0.318,0-0.599-0.222-0.866-0.436c-0.112-0.09-0.307-0.242-0.382-0.26
					c-0.043,0.018-0.242,0.171-0.359,0.264c-0.27,0.21-0.552,0.43-0.869,0.43c-0.427-0.024-0.665-0.373-0.879-0.678
					c-0.08-0.117-0.216-0.314-0.28-0.351c-0.049,0.011-0.258,0.095-0.405,0.157c-0.357,0.146-0.755,0.279-1.045,0.152
					c-0.326-0.145-0.447-0.51-0.565-0.859c-0.042-0.131-0.11-0.34-0.163-0.409c-0.007,0.007-0.037,0-0.085,0
					c-0.108,0-0.235,0.015-0.364,0.029c-0.444,0.054-0.826,0.044-1.045-0.138c-0.271-0.225-0.28-0.605-0.291-0.976
					C3.691,15.26,3.686,15.02,3.65,14.955c-0.039-0.018-0.287-0.058-0.432-0.082c-0.38-0.061-0.77-0.125-0.965-0.414
					c-0.193-0.291-0.09-0.66,0.007-1.016c0.042-0.138,0.104-0.37,0.088-0.442c-0.031-0.028-0.257-0.133-0.39-0.196
					c-0.343-0.16-0.699-0.326-0.801-0.656c-0.103-0.332,0.104-0.66,0.303-0.973c0.078-0.123,0.209-0.33,0.214-0.402
					c-0.022-0.034-0.205-0.195-0.317-0.293c-0.283-0.249-0.575-0.504-0.575-0.85S1.074,9.028,1.357,8.78
					C1.47,8.684,1.652,8.521,1.682,8.453C1.67,8.412,1.539,8.207,1.461,8.086C1.263,7.771,1.056,7.445,1.158,7.115
					c0.102-0.334,0.458-0.5,0.801-0.66c0.133-0.063,0.357-0.168,0.405-0.227c0-0.043-0.062-0.272-0.104-0.412
					c-0.097-0.355-0.2-0.725-0.007-1.016C2.449,4.51,2.842,4.447,3.219,4.387c0.145-0.024,0.393-0.064,0.454-0.107
					C3.686,4.239,3.691,4,3.693,3.857c0.011-0.369,0.021-0.752,0.293-0.977c0.217-0.18,0.599-0.189,1.042-0.137
					c0.215,0.023,0.466,0.021,0.469,0.021c0.023-0.036,0.1-0.265,0.145-0.4C5.76,2.014,5.881,1.649,6.207,1.506
					c0.289-0.127,0.687,0.006,1.045,0.15c0.147,0.063,0.356,0.148,0.439,0.148c0.03-0.027,0.166-0.224,0.246-0.341
					C8.151,1.158,8.39,0.811,8.771,0.788c0.001,0,0.001,0,0.003,0c0.36,0,0.642,0.217,0.911,0.427
					c0.116,0.093,0.316,0.248,0.393,0.264c0.042-0.018,0.236-0.17,0.349-0.26c0.268-0.215,0.548-0.434,0.866-0.434l0.095,0.004
					c0.353,0.051,0.573,0.365,0.79,0.671c0.081,0.118,0.221,0.317,0.288,0.354c0.052-0.009,0.258-0.095,0.409-0.157
					c0.356-0.145,0.754-0.277,1.044-0.149c0.326,0.143,0.446,0.507,0.564,0.857c0.045,0.13,0.113,0.339,0.163,0.407
					c0.01-0.002,0.037,0.001,0.086,0.001c0.109,0,0.235-0.015,0.365-0.028c0.447-0.052,0.828-0.043,1.045,0.137
					c0.27,0.225,0.279,0.607,0.29,0.977C16.434,4,16.442,4.24,16.476,4.306c0.038,0.017,0.288,0.057,0.432,0.081
					c0.379,0.061,0.768,0.123,0.963,0.414s0.092,0.66-0.008,1.016c-0.035,0.14-0.102,0.369-0.086,0.442
					c0.033,0.028,0.256,0.134,0.391,0.196c0.342,0.16,0.699,0.328,0.799,0.66c0.104,0.33-0.104,0.656-0.301,0.971
					c-0.078,0.121-0.209,0.326-0.215,0.4c0.023,0.037,0.209,0.197,0.316,0.294c0.285,0.249,0.576,0.505,0.576,0.851
					s-0.291,0.601-0.576,0.85c-0.107,0.096-0.293,0.256-0.324,0.325c0.014,0.04,0.145,0.247,0.223,0.37
					c0.197,0.313,0.404,0.641,0.301,0.971c-0.1,0.33-0.457,0.498-0.799,0.658c-0.137,0.063-0.357,0.169-0.406,0.227
					c0,0.042,0.066,0.273,0.102,0.412c0.1,0.355,0.203,0.725,0.008,1.016c-0.195,0.289-0.584,0.354-0.961,0.414
					c-0.146,0.024-0.396,0.064-0.458,0.107c-0.01,0.039-0.019,0.279-0.02,0.423c-0.011,0.368-0.021,0.75-0.29,0.976
					c-0.215,0.182-0.602,0.191-1.045,0.138c-0.215-0.022-0.467-0.021-0.47-0.021c-0.024,0.035-0.099,0.264-0.145,0.4
					c-0.118,0.35-0.238,0.715-0.564,0.857c-0.296,0.129-0.688-0.005-1.044-0.15c-0.151-0.063-0.357-0.146-0.441-0.146
					c-0.036,0.025-0.175,0.225-0.258,0.344c-0.215,0.304-0.436,0.621-0.791,0.668L11.293,18.477z M7.691,16.717
					c0.071,0,0.14,0.008,0.201,0.025c0.299,0.086,0.497,0.368,0.686,0.643c0.086,0.121,0.224,0.324,0.292,0.361
					c0.008-0.026,0.213-0.183,0.331-0.277c0.27-0.209,0.549-0.426,0.862-0.426c0.312,0,0.589,0.217,0.854,0.428
					c0.106,0.086,0.278,0.221,0.368,0.258c0.045-0.047,0.177-0.23,0.254-0.344c0.193-0.274,0.396-0.557,0.693-0.643
					c0.274-0.075,0.628,0.05,0.944,0.18c0.153,0.063,0.364,0.15,0.453,0.15c-0.005-0.027,0.071-0.264,0.121-0.402
					c0.104-0.315,0.212-0.642,0.477-0.805c0.215-0.133,0.555-0.13,0.96-0.084c0.22,0.026,0.475,0.021,0.48,0.021
					c-0.016-0.025-0.01-0.271-0.006-0.418c0.007-0.33,0.018-0.672,0.22-0.9c0.207-0.229,0.559-0.285,0.899-0.341
					c0.152-0.024,0.401-0.065,0.467-0.109c-0.021-0.021-0.088-0.258-0.127-0.399c-0.088-0.32-0.18-0.65-0.049-0.926
					c0.127-0.273,0.447-0.424,0.758-0.57c0.137-0.063,0.365-0.172,0.412-0.23c-0.023-0.014-0.154-0.225-0.234-0.35
					c-0.178-0.281-0.363-0.574-0.318-0.875c0.043-0.297,0.309-0.527,0.561-0.75c0.113-0.101,0.301-0.266,0.33-0.335
					c-0.029-0.008-0.217-0.171-0.33-0.271c-0.252-0.222-0.518-0.454-0.561-0.753c-0.045-0.297,0.141-0.59,0.318-0.873
					c0.08-0.125,0.211-0.334,0.217-0.411l0,0c-0.029,0-0.258-0.106-0.395-0.171c-0.311-0.145-0.631-0.295-0.758-0.57
					c-0.131-0.273-0.041-0.603,0.049-0.924c0.039-0.141,0.105-0.379,0.088-0.453c-0.02,0.01-0.276-0.031-0.428-0.057
					c-0.34-0.055-0.692-0.111-0.896-0.34c-0.205-0.228-0.216-0.568-0.223-0.9c-0.004-0.128-0.008-0.332-0.033-0.427
					c-0.014,0.002-0.039,0-0.074-0.001c-0.113,0-0.242,0.016-0.367,0.031c-0.405,0.045-0.745,0.05-0.96-0.084
					c-0.265-0.164-0.372-0.49-0.477-0.805c-0.05-0.14-0.126-0.373-0.182-0.428c-0.03,0.025-0.239,0.113-0.393,0.176
					c-0.316,0.131-0.663,0.261-0.944,0.18c-0.297-0.084-0.5-0.369-0.693-0.643c-0.083-0.122-0.225-0.324-0.296-0.361
					c-0.013,0.025-0.209,0.182-0.327,0.275C10.652,2,10.375,2.218,10.063,2.218C9.75,2.218,9.471,2,9.201,1.793
					C9.083,1.697,8.881,1.54,8.802,1.525c0,0.026-0.138,0.228-0.224,0.35C8.39,2.148,8.191,2.434,7.893,2.518
					C7.619,2.597,7.271,2.469,6.947,2.336C6.794,2.275,6.586,2.188,6.496,2.188C6.5,2.217,6.421,2.45,6.375,2.59
					C6.272,2.904,6.161,3.232,5.898,3.395C5.683,3.528,5.342,3.522,4.941,3.479C4.718,3.453,4.466,3.455,4.462,3.458
					c0.013,0.024,0.005,0.27,0.004,0.417c-0.009,0.332-0.018,0.673-0.224,0.9c-0.205,0.229-0.557,0.285-0.896,0.34
					c-0.152,0.025-0.4,0.066-0.465,0.111C2.9,5.247,2.966,5.484,3.005,5.625c0.089,0.321,0.184,0.653,0.049,0.926
					C2.926,6.824,2.605,6.975,2.297,7.119C2.159,7.184,1.93,7.292,1.879,7.352c0.027,0.014,0.163,0.225,0.238,0.35
					c0.18,0.283,0.367,0.576,0.319,0.875c-0.044,0.297-0.306,0.529-0.56,0.751c-0.114,0.1-0.302,0.264-0.33,0.336
					c0.028,0.007,0.214,0.171,0.33,0.271c0.254,0.223,0.516,0.453,0.56,0.75c0.048,0.301-0.14,0.594-0.319,0.875
					c-0.075,0.127-0.211,0.338-0.215,0.411l0,0c0.032,0,0.259,0.106,0.395,0.169c0.309,0.146,0.629,0.296,0.759,0.57
					c0.133,0.273,0.038,0.605-0.051,0.926c-0.039,0.142-0.104,0.379-0.086,0.451c0.026-0.006,0.274,0.033,0.427,0.058
					c0.34,0.056,0.691,0.112,0.896,0.341c0.206,0.228,0.215,0.569,0.224,0.9c0.001,0.129,0.007,0.334,0.032,0.428
					c0.014-0.002,0.039,0,0.074,0c0.111,0,0.239-0.016,0.369-0.031c0.402-0.046,0.741-0.049,0.957,0.084
					c0.263,0.163,0.374,0.489,0.477,0.805c0.046,0.139,0.126,0.375,0.18,0.428c0.031-0.025,0.239-0.112,0.393-0.176
					C7.195,16.82,7.452,16.717,7.691,16.717z"/>
				<path fill="#C19F66" d="M10.043,15.059c-3.148,0-5.71-2.463-5.71-5.494c0-3.028,2.562-5.492,5.71-5.492
					c3.15,0,5.713,2.464,5.713,5.492C15.756,12.596,13.193,15.059,10.043,15.059z M10.043,4.865c-2.692,0-4.883,2.107-4.883,4.699
					c0,2.594,2.19,4.702,4.883,4.702c2.696,0,4.89-2.108,4.89-4.702C14.933,6.973,12.739,4.865,10.043,4.865z"/>
			</g>
			<g>
				<path fill="#C19F66" d="M7.238,13.23l1.042-3.217L5.454,8.024l3.5-0.04l1.094-3.2l1.122,3.19l3.498,0.012L11.863,10l1.07,3.207
					l-2.854-1.949L7.238,13.23z M7.453,8.641l1.603,1.127l-0.59,1.823l1.608-1.118l1.616,1.102l-0.604-1.813l1.59-1.144L10.691,8.61
					l-0.635-1.807L9.436,8.617L7.453,8.641z"/>
			</g>
			<polygon fill="#C19F66" points="5.893,25.459 4.65,23.117 1.717,23.418 5.85,16.286 6.741,16.612 3.438,22.313 5.236,22.139 
				5.945,23.438 9.524,17.233 10.396,17.615 			"/>
			<polygon fill="#C19F66" points="13.697,25.274 10.192,17.715 11.285,17.729 13.938,23.462 15.091,22.139 16.566,22.584 
				13.81,16.768 14.738,16.317 18.438,24.372 15.503,23.291 			"/>
		</g>
	</g>
</g>
</svg>
