<?xml version="1.0" encoding="utf-8"?>
<!-- Generator: Adobe Illustrator 15.1.0, SVG Export Plug-In . SVG Version: 6.00 Build 0)  -->
<!DOCTYPE svg PUBLIC "-//W3C//DTD SVG 1.1//EN" "http://www.w3.org/Graphics/SVG/1.1/DTD/svg11.dtd">
<svg version="1.1" id="Layer_1" xmlns="http://www.w3.org/2000/svg" xmlns:xlink="http://www.w3.org/1999/xlink" x="0px" y="0px"
	 width="124.625px" height="99.875px" viewBox="0 0 124.625 99.875" enable-background="new 0 0 124.625 99.875"
	 xml:space="preserve">
<g>
	<polygon fill="#C7A46B" points="123.938,65.364 0.688,65.364 10.224,52.26 0.688,39.155 123.938,39.155 114.4,52.26 	"/>
	<polygon fill="#972020" points="108.223,53.85 112.594,49.938 108.223,46.027 111.848,41.414 106.863,38.32 109.633,33.152 
		104.189,30.97 106.018,25.396 100.277,24.195 101.11,18.389 95.246,18.201 95.061,12.338 89.254,13.174 88.053,7.431 82.48,9.262 
		80.297,3.814 75.127,6.585 72.033,1.602 67.422,5.227 63.51,0.855 59.599,5.227 54.987,1.602 51.893,6.586 46.724,3.814 
		44.542,9.262 38.969,7.433 37.767,13.174 31.961,12.339 31.774,18.203 25.912,18.391 26.746,24.195 21.005,25.398 22.833,30.97 
		17.389,33.152 20.158,38.321 15.174,41.414 18.8,46.027 14.429,49.938 18.8,53.85 15.174,58.462 20.158,61.555 17.388,66.725 
		22.833,68.906 21.003,74.479 26.746,75.68 25.912,81.486 31.774,81.675 31.961,87.536 37.767,86.703 38.969,92.444 44.543,90.615 
		46.723,96.061 51.895,93.291 54.987,98.274 59.599,94.65 63.51,99.02 67.422,94.65 72.033,98.274 75.126,93.291 80.297,96.061 
		82.478,90.615 88.053,92.444 89.254,86.703 95.061,87.538 95.246,81.675 101.11,81.489 100.275,75.68 106.018,74.479 
		104.188,68.906 109.633,66.728 106.863,61.555 111.848,58.462 	"/>
	<path fill="#F1F1F1" d="M101.512,50.482c0,21.177-17.17,38.346-38.348,38.346c-21.178,0-38.347-17.169-38.347-38.346
		c0-21.179,17.169-38.35,38.347-38.35C84.342,12.133,101.512,29.304,101.512,50.482"/>
	<polygon fill="#DCB071" points="33.72,45.74 35.875,50.106 40.691,50.806 37.205,54.204 38.029,59.004 33.72,56.737 29.41,59.004 
		30.233,54.204 26.748,50.806 31.565,50.106 	"/>
	<polygon fill="#C7A46B" points="30.267,50.295 26.748,50.806 30.233,54.204 29.41,59.004 33.72,56.737 38.028,59.004 
		37.833,57.861 	"/>
	<polygon fill="#DCB071" points="92.043,46.31 94.197,50.676 99.016,51.373 95.529,54.773 96.352,59.572 92.043,57.307 
		87.734,59.572 88.557,54.773 85.07,51.373 89.889,50.676 	"/>
	<polygon fill="#C7A46B" points="88.59,50.864 85.07,51.373 88.557,54.773 87.734,59.572 92.043,57.307 96.352,59.572 96.156,58.43 
			"/>
	<path fill="#C7A46B" d="M82.355,50.73c0-10.678-8.656-19.333-19.332-19.333c-7.705,0-14.337,4.517-17.443,11.038l-0.017-0.016
		c-0.05,0.107-0.086,0.223-0.134,0.329c-0.172,0.379-0.329,0.765-0.477,1.157c-0.091,0.24-0.184,0.479-0.265,0.723
		c-0.135,0.406-0.247,0.819-0.355,1.236c-0.063,0.244-0.134,0.483-0.188,0.73c-0.099,0.454-0.169,0.921-0.237,1.387
		c-0.031,0.218-0.075,0.431-0.099,0.65c-0.075,0.689-0.118,1.387-0.118,2.098c0,10.676,8.655,19.331,19.333,19.331
		c0.712,0,1.414-0.044,2.107-0.12c0.197-0.021,0.389-0.063,0.585-0.089c0.489-0.069,0.974-0.144,1.45-0.248
		c0.236-0.051,0.467-0.12,0.699-0.18c0.426-0.108,0.848-0.225,1.261-0.361c0.243-0.081,0.481-0.174,0.72-0.264
		c0.391-0.148,0.775-0.304,1.152-0.475c0.109-0.05,0.225-0.086,0.334-0.137l-0.016-0.016C77.838,65.065,82.355,58.434,82.355,50.73z
		"/>
	<g>
		<g>
			<path fill="#121212" d="M48.046,72.679l-1.742-0.93c-0.11-0.059-0.142-0.191-0.089-0.291l0.155-0.29
				c0.054-0.101,0.182-0.148,0.292-0.089l4.244,2.264c0.11,0.06,0.142,0.192,0.089,0.292l-0.155,0.29
				c-0.053,0.101-0.182,0.147-0.292,0.089l-1.742-0.929l-3.279,6.146c-0.053,0.101-0.191,0.143-0.292,0.089l-0.38-0.203
				c-0.1-0.054-0.142-0.191-0.089-0.292L48.046,72.679z"/>
			<path fill="#121212" d="M55.952,74.896c2.2,0.564,3.506,2.787,2.941,4.987s-2.773,3.498-4.974,2.934
				c-2.201-0.564-3.501-2.763-2.937-4.963S53.751,74.331,55.952,74.896z M54.117,82.047c1.749,0.449,3.558-0.611,4.006-2.36
				s-0.62-3.571-2.369-4.021c-1.75-0.448-3.553,0.637-4.001,2.386C51.304,79.801,52.368,81.599,54.117,82.047z"/>
			<path fill="#121212" d="M61.839,76.239c-0.007-0.113,0.09-0.222,0.203-0.228l0.431-0.024c0.125-0.007,0.221,0.09,0.228,0.203
				l0.268,4.728c0.072,1.293,0.934,2.256,2.261,2.182c1.338-0.076,2.099-1.108,2.025-2.401l-0.269-4.75
				c-0.006-0.113,0.078-0.221,0.203-0.228l0.432-0.024c0.113-0.007,0.221,0.09,0.227,0.203l0.271,4.796
				c0.098,1.724-1.053,3.107-2.844,3.209c-1.78,0.101-3.068-1.146-3.166-2.869L61.839,76.239z"/>
			<path fill="#121212" d="M70.451,75.366c-0.037-0.107,0.016-0.233,0.133-0.274l2.779-0.956c1.287-0.443,2.686,0.203,3.125,1.479
				c0.339,0.987-0.031,2.038-0.835,2.735l2.407,2.219c0.123,0.113,0.107,0.311-0.075,0.374l-0.547,0.188
				c-0.097,0.033-0.169-0.002-0.205-0.038l-2.405-2.352l-2.049,0.705l0.941,2.735c0.037,0.107-0.025,0.237-0.133,0.274l-0.419,0.144
				c-0.118,0.041-0.237-0.026-0.274-0.133L70.451,75.366z M74.639,78.016c0.826-0.284,1.309-1.218,1.006-2.098
				c-0.281-0.815-1.24-1.265-2.066-0.98l-2.08,0.716l1.059,3.079L74.639,78.016z"/>
			<path fill="#121212" d="M81.004,78.083c0.01-0.089,0.014-0.186,0.023-0.274c0.013-0.186,0.066-0.329,0.273-0.304
				c0.104,0.013,1.232,0.219,2.074-0.338c0.768-0.507,0.949-1.321,0.58-1.879c-0.432-0.653-1.256-0.666-2.645-0.4
				c-1.34,0.234-2.246,0.222-2.959-0.857c-0.426-0.643-0.604-2.021,0.9-3.017c0.928-0.612,1.938-0.587,1.938-0.587
				c0.076-0.009,0.264,0.029,0.27,0.284c0,0.082,0.006,0.173,0.006,0.255c0.002,0.188-0.068,0.289-0.275,0.304
				c-0.092,0.006-0.949,0.003-1.527,0.385c-1.002,0.663-0.88,1.507-0.617,1.904c0.42,0.634,1.146,0.684,2.16,0.489
				c1.621-0.324,2.763-0.387,3.488,0.711c0.65,0.984,0.189,2.322-0.918,3.055c-1.115,0.737-2.305,0.586-2.502,0.554
				C81.154,78.351,81.01,78.338,81.004,78.083z"/>
		</g>
	</g>
	<g>
		<g>
			<path fill="#121212" d="M33.276,37.441l-0.831,1.549c-0.056,0.105-0.187,0.133-0.287,0.079l-0.561-0.3
				c-0.1-0.054-0.149-0.178-0.094-0.282l2.192-4.088c0.056-0.104,0.187-0.132,0.287-0.079l0.561,0.301
				c0.101,0.053,0.149,0.178,0.094,0.282l-0.831,1.549l5.876,3.145c0.1,0.054,0.145,0.187,0.093,0.282l-0.336,0.627
				c-0.051,0.096-0.187,0.133-0.287,0.079L33.276,37.441z"/>
			<path fill="#121212" d="M37.813,29.032c1.489-1.56,4.002-1.544,5.644,0.024s1.756,4.063,0.267,5.623s-3.979,1.552-5.62-0.017
				C36.461,33.095,36.323,30.592,37.813,29.032z M42.902,33.896c1.065-1.115,0.984-2.938-0.19-4.06
				c-1.166-1.113-3.014-1.135-4.079-0.02c-1.058,1.107-0.952,2.953,0.214,4.066C40.021,35.005,41.845,35.002,42.902,33.896z"/>
			<path fill="#121212" d="M43.999,24.301c-0.055-0.1-0.027-0.23,0.077-0.287l2.16-1.172c1.166-0.633,2.663-0.154,3.316,1.053
				c0.67,1.237,0.259,2.765-0.897,3.393l-1.374,0.745l1.27,2.346c0.054,0.1,0.017,0.235-0.078,0.287l-0.616,0.334
				c-0.104,0.057-0.229,0.008-0.283-0.092L43.999,24.301z M48.059,26.345c0.654-0.354,0.901-1.212,0.512-1.931
				c-0.367-0.678-1.197-0.898-1.852-0.544l-1.308,0.71l1.34,2.475L48.059,26.345z"/>
			<path fill="#121212" d="M55.548,21.611l-0.761,0.594c-0.086,0.063-0.197,0.063-0.249-0.031l-0.205-0.363
				c-0.05-0.083-0.047-0.176-0.013-0.229l1.212-1.738l0.518-0.104c0.106-0.021,0.211,0.062,0.233,0.173l1.44,7.142
				c0.022,0.111-0.042,0.229-0.148,0.25l-0.645,0.13c-0.117,0.023-0.222-0.06-0.244-0.171L55.548,21.611z"/>
			<path fill="#121212" d="M59.644,23.001c-0.063-2.485,0.868-3.998,2.57-4.041c1.691-0.043,2.698,1.419,2.763,3.905
				c0.063,2.486-0.869,3.998-2.56,4.041C60.715,26.95,59.708,25.487,59.644,23.001z M63.889,22.894
				c-0.049-1.862-0.646-2.915-1.648-2.89c-1.013,0.026-1.557,1.107-1.509,2.97c0.048,1.885,0.646,2.926,1.658,2.899
				C63.393,25.848,63.936,24.777,63.889,22.894z"/>
			<path fill="#121212" d="M71.678,19.694c0.029-0.11,0.139-0.187,0.254-0.155l2.33,0.625c1.26,0.338,1.931,1.459,1.623,2.61
				c-0.226,0.845-0.98,1.289-1.549,1.454c0.488,0.39,1.094,1.128,0.824,2.138c-0.328,1.229-1.523,1.86-2.834,1.509l-2.445-0.656
				c-0.115-0.031-0.172-0.152-0.143-0.262L71.678,19.694z M72.585,26.862c0.635,0.171,1.261-0.214,1.442-0.895
				c0.18-0.669-0.295-1.313-0.972-1.495l-1.425-0.383l-0.627,2.349L72.585,26.862z M73.309,23.482
				c0.666,0.179,1.21-0.228,1.386-0.886c0.179-0.67-0.104-1.239-0.771-1.418l-1.404-0.377l-0.615,2.304L73.309,23.482z"/>
			<path fill="#121212" d="M80.012,22.52c0.059-0.098,0.184-0.142,0.286-0.081l3.704,2.204c0.103,0.061,0.125,0.192,0.066,0.29
				l-0.324,0.547c-0.059,0.098-0.185,0.142-0.287,0.081l-2.926-1.741l-1.184,1.992l2.473,1.471c0.094,0.056,0.125,0.192,0.066,0.29
				l-0.324,0.547c-0.064,0.107-0.193,0.137-0.287,0.081l-2.473-1.471l-1.246,2.1l2.926,1.741c0.103,0.061,0.125,0.192,0.066,0.29
				l-0.318,0.537c-0.059,0.098-0.186,0.142-0.287,0.081l-3.705-2.204c-0.102-0.061-0.123-0.192-0.064-0.29L80.012,22.52z"/>
			<path fill="#121212" d="M81.828,31.536c0.174-0.032,0.357-0.087,0.531-0.119c0.174-0.031,0.311,0.046,0.318,0.203
				c0.004,0.086,0.052,1.188,0.625,1.788c0.514,0.538,1.186,0.552,1.605,0.152c0.492-0.471,0.417-1.175,0.016-2.268
				c-0.406-1.133-0.566-2.173,0.386-3.082c0.64-0.612,1.966-0.983,3.149,0.257c0.744,0.779,0.877,1.771,0.893,1.905
				c0.02,0.102-0.036,0.273-0.234,0.313c-0.158,0.032-0.34,0.072-0.498,0.104c-0.166,0.04-0.313-0.015-0.342-0.194
				c-0.02-0.086-0.164-0.992-0.596-1.445c-0.625-0.654-1.275-0.465-1.58-0.175c-0.467,0.447-0.428,1.064-0.088,1.979
				c0.478,1.273,0.764,2.477-0.238,3.434c-0.854,0.815-2.244,0.757-3.213-0.257c-0.908-0.951-0.955-2.054-0.951-2.296
				C81.609,31.701,81.615,31.592,81.828,31.536z"/>
			<path fill="#121212" d="M91.627,34.522l-0.896-1.513c-0.061-0.102-0.017-0.228,0.081-0.286l0.547-0.323
				c0.098-0.059,0.229-0.036,0.29,0.066l2.362,3.989c0.061,0.102,0.016,0.228-0.082,0.286l-0.547,0.323
				c-0.098,0.059-0.229,0.036-0.289-0.066l-0.896-1.512l-5.732,3.395c-0.098,0.058-0.235,0.026-0.29-0.066l-0.363-0.612
				c-0.055-0.093-0.016-0.229,0.082-0.286L91.627,34.522z"/>
		</g>
	</g>
	<circle fill="none" stroke="#C3996B" stroke-miterlimit="10" stroke-dasharray="1,2" cx="62.88" cy="51.125" r="42.12"/>
	<g>
		<g>
			<g>
				<path fill="#972020" d="M48.509,43.832c2.296-5.342,7.69-8.965,13.435-9.462c0.21,5.106-0.042,10.214,0.03,15.325
					c-3.593,0.014-7.186,0.014-10.779,0c0.391-2.401,1.311-4.68,2.668-6.699c-0.336-0.324-1.01-0.979-1.346-1.309
					c-4.224,5.106-4.248,13.025-0.006,18.126c0.336-0.323,1.009-0.974,1.352-1.298c-1.357-2.025-2.277-4.296-2.668-6.705
					c3.594-0.01,7.187-0.01,10.773,0c-0.072,5.098,0.192,10.185-0.024,15.278c-4.109-0.337-8.093-2.223-10.809-5.347
					C46.863,56.959,45.752,49.642,48.509,43.832z M54.164,39.969c0.45,0.486,0.913,0.967,1.376,1.442
					c0.727-0.493,1.447-0.992,2.175-1.479c0.06,1.935,0.066,3.876,0,5.811c-0.901-0.07-1.809-0.161-2.71-0.257
					c-0.294,0.653-0.589,1.309-0.883,1.964c1.862,0,3.73,0,5.594,0c-0.013-3.461,0.023-6.914-0.024-10.377
					C57.714,37.769,55.857,38.748,54.164,39.969z M54.122,54.059c0.294,0.654,0.589,1.309,0.883,1.965
					c0.896-0.098,1.803-0.187,2.704-0.271c0.065,1.939,0.072,3.88,0.006,5.821c-0.709-0.48-1.418-0.967-2.127-1.455
					c-0.36,0.325-1.076,0.98-1.436,1.305c1.634,1.334,3.521,2.324,5.534,2.974c0.06-3.442,0.017-6.89,0.03-10.339
					C57.852,54.059,55.99,54.059,54.122,54.059z"/>
			</g>
			<g>
				<path fill="#972020" d="M64.095,34.388c6.069,0.474,11.704,4.553,13.795,10.31c2.716,6.593,0.505,14.816-5.197,19.105
					c-2.458,1.93-5.497,2.998-8.591,3.286c-0.229-5.087,0.047-10.178-0.037-15.271c3.594-0.017,7.187-0.017,10.779-0.007
					c-0.385,2.409-1.322,4.68-2.662,6.718c0.337,0.319,1.01,0.966,1.346,1.285c4.23-5.106,4.23-13.02,0-18.126
					c-0.336,0.324-1.016,0.979-1.352,1.309c1.357,2.02,2.277,4.298,2.668,6.699c-3.593,0.014-7.186,0.014-10.779-0.006
					C64.143,44.59,63.885,39.488,64.095,34.388z M66.354,37.072C66.3,40.535,66.318,44,66.348,47.46
					c1.826-0.011,3.658-0.005,5.492-0.011c-0.246-0.645-0.499-1.287-0.746-1.929c-0.937,0.053-1.88,0.108-2.816,0.167
					c0-1.916-0.014-3.832,0.047-5.75c0.728,0.489,1.455,0.98,2.176,1.474c0.469-0.476,0.925-0.956,1.381-1.437
					C70.193,38.73,68.324,37.775,66.354,37.072z M66.348,54.039c-0.035,3.456-0.048,6.91,0.006,10.372
					c1.982-0.667,3.834-1.659,5.527-2.88c-0.456-0.479-0.912-0.961-1.375-1.436c-0.727,0.494-1.454,0.985-2.182,1.479
					c-0.061-1.917-0.053-3.838-0.047-5.758c0.937,0.057,1.873,0.109,2.811,0.171c0.253-0.643,0.506-1.286,0.758-1.924
					C70.014,54.059,68.18,54.059,66.348,54.039z"/>
			</g>
		</g>
	</g>
</g>
</svg>
