<?xml version="1.0" encoding="utf-8"?>
<!-- Generator: Adobe Illustrator 15.1.0, SVG Export Plug-In . SVG Version: 6.00 Build 0)  -->
<!DOCTYPE svg PUBLIC "-//W3C//DTD SVG 1.1//EN" "http://www.w3.org/Graphics/SVG/1.1/DTD/svg11.dtd">
<svg version="1.1" id="Layer_1" xmlns:sketch="http://www.bohemiancoding.com/sketch/ns"
	 xmlns="http://www.w3.org/2000/svg" xmlns:xlink="http://www.w3.org/1999/xlink" x="0px" y="0px" width="33px" height="26px"
	 viewBox="0 0 33 26" enable-background="new 0 0 33 26" xml:space="preserve">
<title>icon-contact@2x</title>
<desc>Created with Sketch.</desc>
<g id="Page-1" sketch:type="MSPage">
	<g id="icon-contact" sketch:type="MSLayerGroup">
		<path id="Shape" sketch:type="MSShapeGroup" fill="#C6A369" d="M15.294,18.587c-2.269-0.53-3.583-1.671-2.225-3.262
			c3.31-3.876,1.582-9.46-2.891-9.563H10c-4.471,0.102-6.199,5.687-2.889,9.563c1.357,1.591,0.044,2.731-2.225,3.262
			C0.9,19.519,0,22.401,0,24.377c0,1.295,0.824,1.552,1.624,1.552h8.436h0.059h8.437c0.8,0,1.624-0.257,1.624-1.552
			C20.182,22.401,19.281,19.519,15.294,18.587L15.294,18.587z"/>
		<path id="speech-bubble-2-icon_2_" sketch:type="MSShapeGroup" fill="#C6A369" d="M17.122,14.945
			c0.645-1.299,1.359-3.083,1.324-4.326c-0.869-1.061-1.358-2.429-1.358-3.821C17.088,2.87,20.842,0,25.044,0
			C29.219,0,33,2.849,33,6.798c0,4.111-4.463,7.95-10.587,6.425C21.301,13.92,18.849,14.625,17.122,14.945L17.122,14.945z
			 M25.044,1.655c-3.483,0-6.317,2.311-6.317,5.152c0,1.496,0.636,2.438,1.532,3.366c-0.183,1.376-0.618,2.576-0.618,2.576
			s1.293-0.349,2.766-1.222c5.629,1.517,8.957-1.781,8.957-4.721C31.363,3.966,28.528,1.655,25.044,1.655L25.044,1.655z"/>
	</g>
</g>
</svg>
