<?xml version="1.0" standalone="no"?>
<!DOCTYPE svg PUBLIC "-//W3C//DTD SVG 1.1//EN" "http://www.w3.org/Graphics/SVG/1.1/DTD/svg11.dtd" >
<svg xmlns="http://www.w3.org/2000/svg">
<metadata></metadata>
<defs>
<font id="utm_yen_turegular" horiz-adv-x="573" >
<font-face units-per-em="2048" ascent="1638" descent="-410" />
<missing-glyph horiz-adv-x="450" />
<glyph horiz-adv-x="0" />
<glyph unicode="&#xd;" horiz-adv-x="571" />
<glyph unicode=" "  horiz-adv-x="450" />
<glyph unicode="&#x09;" horiz-adv-x="450" />
<glyph unicode="&#xa0;" horiz-adv-x="450" />
<glyph unicode="!" horiz-adv-x="649" d="M-32 -20q0 24 27.5 40.5t58.5 16.5q80 0 80 -51q0 -27 -34 -45.5t-54 -18.5q-78 0 -78 58zM167 240q0 114 290 491l515 666q10 22 20 43.5t55 21.5q70 0 70 -61q0 -33 -82 -94q-10 -9 -162 -183l-364 -419q-193 -224 -238 -289q-33 -49 -33 -101q0 -22 8.5 -54t8.5 -50 t-20.5 -30.5t-33.5 -12.5q-34 0 -34 72z" />
<glyph unicode="&#x22;" horiz-adv-x="339" d="M425 1010q0 14 25 30q34 25 53 52q37 47 55 133q8 32 49 32q49 0 49 -34q0 -41 -16 -66q-6 -10 -82 -98q-86 -76 -121 -76q-12 0 -12 27zM597 1010q0 16 25 30q32 25 53 52q35 47 55 133q8 32 49 32q49 0 49 -34q0 -41 -18 -68q-2 -4 -80 -96q-88 -76 -121 -76 q-12 0 -12 27z" />
<glyph unicode="#" horiz-adv-x="1044" d="M-59 113q115 180 264 342l-155 4q-76 2 -76 10q0 31 67 41h211l162 205l-160 6q-75 2 -75 10q0 31 67 41l209 -6l207 258l59 -27l-192 -233l239 -8l230 276l59 -26l-219 -250l293 -23q0 -39 -29 -47q-6 -2 -47 -2q-127 0 -144.5 6t-127.5 6q-45 -49 -162 -198l289 -11 q0 -38 -29 -47q-6 -2 -47 -2q-113 0 -256 4q-221 -286 -266 -358l-43 4q73 119 256 356q-117 7 -258 7q-199 -205 -283 -342zM322 510l244 -10l155 200l-235 11z" />
<glyph unicode="$" horiz-adv-x="706" d="M161 317l113 197q-62 27 -103 74l21 18q63 -49 110 -63q35 -8 121 -8q109 0 221 49q131 57 131 137q0 45 -34 55l-277 86q-102 33 -102 131q0 183 514 285l110 172l23 -16l-96 -156q116 -8 116 -90q0 -58 -92 -90q-74 -27 -74 0q0 4 47.5 30.5t49.5 59.5q2 55 -78 55 q-127 0 -272 -63q-173 -74 -173 -174q0 -50 66 -70l207 -66q100 -32 100 -106q0 -90 -55 -143q-41 -37 -135 -76q-111 -45 -226 -45q-43 0 -90 6l-118 -209z" />
<glyph unicode="%" horiz-adv-x="1341" d="M-26 -63q0 20 66.5 103t128.5 136q751 647 1220 981q-393 -149 -477 -149q-100 0 -145 26q-211 -172 -320 -172q-127 0 -127 92q0 129 123 248t266 119l35 -14q-141 -21 -254 -113t-113 -184q0 -41 34 -70t79 -29q57 0 152 66q82 55 102 90q-18 100 10.5 181t81.5 81 t53 -47q0 -119 -90 -215q43 -29 101 -29q100 0 432 144q72 37 143 73q101 52 139 52q27 0 56 -7q-297 -202 -449 -311q-270 -196 -448 -354q-203 -180 -439 -406q-194 -188 -204 -194q-23 -70 -45.5 -94.5t-67.5 -24.5q-12 0 -27.5 8t-15.5 13zM695 127q0 76 102 178 q88 88 213 162l17 -12q-74 -49 -111 -76q-70 -51 -108 -96q-50 -56 -50 -107q0 -45 26 -79t67 -34q88 0 208 99q132 104 132 205q0 100 -107 86q0 36 33 36q67 0 108 -28q35 -27 35 -66q0 -88 -172 -237q-178 -152 -295 -152q-41 0 -69.5 35t-28.5 86zM779 1210 q0 -102 2 -110q72 86 72 153q0 35 -23 35q-20 0 -35.5 -25.5t-15.5 -52.5z" />
<glyph unicode="&#x26;" horiz-adv-x="1740" d="M126 225q0 131 110.5 244t397.5 285q-35 108 -35 241q0 156 206 347.5t382 191.5q69 0 119.5 -46t50.5 -110q0 -127 -262 -348q-156 -131 -363 -264q84 -213 430 -520q62 51 146 176q-64 0 -64 24q0 29 51 56q17 8 88 8q265 0 265 -25q0 -12 -32 -22t-65 -21 q-39 -16 -194 -24q-70 -88 -154 -205q43 -55 116 -115.5t142 -117.5l-41 -33q-51 24 -100 53q-117 72 -197 152q-182 -127 -297 -172q-127 -50 -290 -50q-179 0 -294.5 84t-115.5 211zM232 240q0 -127 82 -201t222 -74q170 0 274 41t277 178q-93 74 -173 154 q-186 190 -270 377q-231 -142 -321.5 -247.5t-90.5 -227.5zM663 1024q0 -57 22 -133q14 -47 29 -92q155 104 311 211q246 186 246 331q0 121 -162 121q-158 0 -302 -142t-144 -296z" />
<glyph unicode="'" horiz-adv-x="0" d="M290 1020q0 14 27 35q34 28 45 43q20 28 29.5 60t18.5 64.5t50 32.5q49 0 49 -34q0 -43 -12 -65.5t-78 -98.5q-74 -66 -115 -66q-14 0 -14 29z" />
<glyph unicode="(" horiz-adv-x="628" d="M67 -154q0 451 219 824q121 204 268 350q115 110 285 223q150 96 299 193l10 -27q-338 -260 -391 -309q-168 -156 -344 -434q-170 -269 -229 -418q-70 -178 -92 -436q-25 24 -25 34z" />
<glyph unicode=")" horiz-adv-x="628" d="M-425 -205q338 260 391 309q168 156 344 435q170 268 230 417q69 179 92 437q24 -25 24 -35q0 -451 -219 -823q-121 -205 -268 -351q-115 -110 -285 -223q-149 -96 -299 -192z" />
<glyph unicode="*" horiz-adv-x="315" d="M436 1176q0 14 14 24q41 23 127 78q-67 61 -67 88q0 18 20 18q15 0 34.5 -19t35.5 -38q14 57 41 57q20 0 4 -69q94 51 133 51q19 0 19 -14q0 -29 -127 -80q71 -45 71 -74q0 -18 -16 -18q-27 0 -82 63v-96q0 -37 -33 -37q-28 0 -28 55v45q-95 -47 -136 -47q-14 0 -10 13z " />
<glyph unicode="+" horiz-adv-x="921" d="M28 469q0 31 68 41h342l245 235l60 -26l-236 -209l416 -23q0 -38 -29 -47q-6 -2 -47 -2q-127 0 -205.5 6.5t-189.5 6.5q-199 -205 -283 -342l-43 4q115 180 264 342l-286 4q-76 2 -76 10z" />
<glyph unicode="," horiz-adv-x="507" d="M-65 -123q0 14 29 35q39 29 49 43q18 27 55 137q10 33 51 33q49 0 49 -35q0 -41 -18 -67q-4 -5 -82 -97q-88 -78 -119 -78q-14 0 -14 29z" />
<glyph unicode="-" horiz-adv-x="706" d="M81 414q0 6 16 6q11 0 56 -6t67 -6q6 0 108.5 14t174.5 14q59 0 115 -26q49 -27 49 -48q0 -18 -54 -18q-16 0 -49.5 9t-48.5 9q-100 0 -194 -18q-84 -16 -95 -16q-57 0 -86 22q-59 45 -59 64z" />
<glyph unicode="." horiz-adv-x="503" d="M34 43q0 68 84 68q33 0 59.5 -19.5t26.5 -48.5q0 -66 -88 -66q-82 0 -82 66z" />
<glyph unicode="/" horiz-adv-x="1036" d="M-83 -100q2 -21 2 43q0 86 823 749q168 135 375 283q174 123 350 246q6 4 9 28q2 19 26 23q78 16 78 6q-33 -45 -68.5 -68.5t-72.5 -46.5q-387 -262 -680 -504q-195 -159 -443 -393q-219 -207 -256 -254q-22 -28 -28 -82q-47 -53 -95 -53q-18 0 -20 23z" />
<glyph unicode="0" horiz-adv-x="1583" d="M204 317q0 215 147 435q109 159 250 268q176 135 402 223v-20q-314 -113 -517.5 -344.5t-203.5 -475.5q0 -163 101.5 -286t238.5 -123q198 0 430 166q217 155 366 385q156 239 156 438q0 107 -80 176.5t-203 69.5q-108 0 -211.5 -39t-261.5 -137q-12 6 -10 20q4 17 25 29 q327 190 530 190q289 0 289 -245q0 -220 -184 -492q-177 -256 -430 -436q-269 -189 -488 -189q-143 0 -244.5 115t-101.5 272z" />
<glyph unicode="1" horiz-adv-x="948" d="M-112 -63q0 28 70 43l172 34q592 713 878 1116q-129 17 -129 35q0 27 82 72q74 39 90 39q17 0 43 -62q0 -34 -352 -481q-287 -358 -571 -717l153 4l-49 -63l-274 -49q-37 -6 -43 -6q-70 2 -70 35z" />
<glyph unicode="2" horiz-adv-x="1572" d="M-30 84q0 86 81 149.5t187 63.5q97 0 232 -41q80 -27 159 -53q191 82 486 291q198 141 335.5 313t137.5 289q0 73 -53.5 121.5t-137.5 48.5q-253 0 -550 -332l-15 12q185 209 328 292t315 83q219 0 219 -170q0 -96 -106 -252q-160 -233 -432 -422q-236 -145 -473 -293 q411 -186 565 -192q18 -6 8 -21q-94 -14 -182 -14q-170 0 -504 156q-291 -148 -438 -148q-74 0 -118 33t-44 86zM13 121q0 -47 39 -77t102 -30q105 0 346 133q-192 101 -311 101q-176 0 -176 -127z" />
<glyph unicode="3" horiz-adv-x="1255" d="M-83 139l12 2q138 -102 224 -136t206 -34q277 0 506.5 166t229.5 371q0 96 -68 163.5t-160 63.5q-276 -110 -334 -110q-67 0 -67 61q0 29 71.5 62.5t131.5 33.5q43 0 96 -2q67 -4 104 -4q387 180 387 354q0 68 -52 94.5t-181 26.5q-150 0 -297 -73q-51 -27 -291 -181 l-6 13q72 57 141 112q117 86 238 135q166 64 350 64q211 0 211 -156q0 -86 -84 -166q-90 -86 -340 -229q117 -14 186 -84q62 -65 62 -149q0 -117 -121 -258q-125 -148 -315 -242q-215 -107 -441 -107q-241 0 -399 209zM509 674q0 -10 20 -10q31 0 111 30q72 27 108 47 q-38 11 -73 9q-39 -2 -102.5 -31t-63.5 -45z" />
<glyph unicode="4" horiz-adv-x="1449" d="M174 537q0 59 77 138t283 222q265 182 534 317.5t378 135.5q43 0 70.5 -27t27.5 -66q0 -30 -22 -61l-58 -70l-475 -610q371 45 477 45q37 0 69 -20.5t32 -51.5q0 -26 -15 -26q-20 0 -34.5 9t-26.5 9q-39 0 -278.5 -17.5t-256.5 -17.5q-45 -53 -323 -356q-15 -16 -19 -43 q-8 -53 -8 -55q-16 -62 -92 -62q-43 0 -43 27q0 33 84 104q37 33 137 148q168 192 197 225q-430 -24 -439 -24q-276 0 -276 127zM231 592q0 -103 234 -103q43 0 96 3l369 20q155 193 311 385q211 268 211 326q0 69 -98 69q-199 0 -801 -426q-322 -227 -322 -274z" />
<glyph unicode="5" horiz-adv-x="1269" d="M-63 147l10 13q127 -195 312 -195q303 0 538 160q250 168 250 405q0 232 -305 232q-53 0 -199.5 -50l-146.5 -50q-35 0 -35 30q0 47 453 580q622 82 671 82q-10 -25 -49 -68q-55 -33 -74 -41q-28 -12 -67 -16q-15 -6 -508 -47q-39 -37 -377 -475q305 116 494 116 q110 0 180 -74.5t70 -189.5q0 -219 -275 -424q-287 -213 -620 -213q-209 0 -322 225z" />
<glyph unicode="6" horiz-adv-x="1337" d="M151 283q0 219 205 489q188 250 461 428q280 184 491 184q107 0 170.5 -57t63.5 -153q0 -48 -31 -129.5t-51 -81.5q-27 0 -27 26q0 27 12.5 87.5t12.5 103.5q0 61 -59.5 101t-145.5 40q-205 0 -451 -172q-233 -162 -393 -401q-168 -250 -168 -459q0 -144 79 -245 t189 -101q183 0 363 139q197 154 197 356q0 144 -76 223.5t-213 79.5q-109 0 -346 -98v21q223 120 358 120q170 0 262 -75.5t92 -214.5q0 -222 -233 -410q-219 -176 -430 -176q-139 0 -235.5 107.5t-96.5 267.5z" />
<glyph unicode="7" horiz-adv-x="923" d="M61 -6q0 92 201 301q166 186 331 371q293 311 639 583q-43 11 -116 11q-76 0 -259.5 -20.5t-248.5 -37.5q-55 -14 -119 -45q-49 -27 -70 -27q-49 0 -49 52q0 49 72 67q82 17 166 33q67 14 272 33q215 18 326 16q90 -2 90 -74q0 -20 -47 -53q-80 -55 -107 -78 q-145 -129 -252 -229q-229 -213 -374 -375q-359 -397 -359 -485q0 -27 8.5 -45.5t8.5 -22.5q0 -12 -32 -29.5t-46 -17.5q-35 0 -35 72z" />
<glyph unicode="8" horiz-adv-x="1302" d="M77 248q0 282 614 479q-98 129 -98 227q0 144 149.5 255.5t344.5 111.5q123 0 196.5 -48t73.5 -128q0 -88 -20 -129q65 47 83 65q35 33 64 93l27 -15q-95 -178 -385 -301l-340 -143q378 -219 378 -412q0 -147 -188 -267t-426 -120q-194 0 -333.5 97.5t-139.5 234.5z M175 233q0 -133 98.5 -211.5t276.5 -78.5q223 0 380 98t157 242q0 104 -129 219q-127 102 -254 205q-256 -111 -363 -191q-166 -123 -166 -283zM622 961q0 -99 110 -216q64 19 299 103q254 92 254 254q0 84 -64.5 134t-174.5 50q-170 0 -297 -97t-127 -228z" />
<glyph unicode="9" horiz-adv-x="1314" d="M-51 135l23 12q104 -110 181 -150t179 -40q235 0 473 168q215 151 358.5 381.5t143.5 419.5q0 137 -97.5 234t-234.5 97q-201 0 -355.5 -134t-154.5 -310q0 -164 109.5 -269.5t279.5 -105.5t170 -8q0 -20 -2 -20q-135 -35 -260 -35q-147 0 -261 111.5t-114 254.5 q0 222 192.5 394t436.5 172q164 0 266.5 -97.5t102.5 -255.5q0 -227 -179 -475q-163 -231 -409 -389q-254 -160 -465 -160q-96 0 -182 45t-201 160z" />
<glyph unicode=":" horiz-adv-x="483" d="M43 43q0 68 84 68q33 0 59.5 -19.5t26.5 -48.5q0 -66 -88 -66q-82 0 -82 66zM133 264q0 68 84 68q33 0 58.5 -19.5t25.5 -48.5q0 -65 -86 -65q-82 0 -82 65z" />
<glyph unicode=";" horiz-adv-x="466" d="M-63 -123q0 17 25 33q34 22 53 49q35 45 55 133q8 33 51 33q49 0 49 -35q0 -41 -18 -67q-4 -5 -82 -97q-88 -78 -119 -78q-14 0 -14 29zM111 264q0 68 84 68q33 0 59.5 -19.5t26.5 -48.5q0 -65 -88 -65q-82 0 -82 65z" />
<glyph unicode="&#x3c;" horiz-adv-x="786" d="M137 532q2 29 17.5 38.5t72.5 19.5q37 6 166 69q164 80 277 168q47 37 104 76q19 8 25 -14q10 -37 -70 -84q-63 -55 -135 -105q-172 -118 -359 -188q156 -84 412 -104q141 -13 143 -46q3 -24 -71 -24q-199 0 -314 37q-90 26 -182 53q-92 39 -86 104z" />
<glyph unicode="=" horiz-adv-x="950" d="M174 397q0 37 47 49q12 3 109 11q225 4 506 10q30 4 63 8q33 2 33 -12q0 -21 -28 -40.5t-54 -23.5q-236 -2 -545 -10q-45 -4 -92 -6q-39 -2 -39 14zM174 627q0 37 47 49q12 2 109 10q225 4 506 10q30 4 63 9q33 2 33 -13q0 -20 -28 -39.5t-54 -23.5q-236 -2 -545 -11 q-45 -4 -92 -6q-39 -2 -39 15z" />
<glyph unicode="&#x3e;" horiz-adv-x="786" d="M167 305q4 29 90 57q66 35 135 62q166 70 324 98q-131 96 -424 178q-127 35 -119 70q2 18 70 12q178 -18 333.5 -97t164.5 -83q81 -55 69 -121q-4 -26 -21.5 -33.5t-74.5 -5.5q-156 -10 -404 -114q-116 -49 -127 -47q-20 0 -16 24z" />
<glyph unicode="?" horiz-adv-x="1191" d="M71 -6q0 26 36 47.5t70 21.5q62 0 62 -55q0 -26 -39 -49q-31 -16 -51 -16q-78 0 -78 51zM177 233q0 132 132 232q108 82 331 162q68 24 373 106q215 58 315 119q70 43 120 127t50 158q0 112 -97 179.5t-257 67.5q-221 0 -420 -108q-80 -43 -176 -123q-61 -51 -123 -104 l-18 2q117 108 233 200q219 176 570 176q182 0 284 -73q109 -80 109 -230q0 -116 -109 -223q-90 -86 -190 -117q-238 -63 -619 -168q-151 -43 -264 -112q-121 -76 -145 -148q-10 -32 -8 -65q4 -72 4 -66q0 -18 -18.5 -29.5t-39.5 -7.5q-37 9 -37 45z" />
<glyph unicode="@" horiz-adv-x="1630" d="M178 356q0 199 141 430q140 226 348 375q224 162 435 162q225 0 354 -105.5t129 -299.5q0 -242 -162 -478.5t-321 -236.5q-45 0 -77 42t-32 89q0 90 57 229l-10 6q-117 -143 -176 -192q-121 -103 -254 -103q-78 0 -134 39t-56 97q0 176 176 385q190 223 413 264 q48 8 76 8q64 0 72 -47q6 -33 6 -55q0 -66 -61 -64q-4 0 -21.5 30t-38.5 46q-30 24 -76 16q-151 -26 -305 -225q-147 -188 -147 -322q0 -26 32.5 -50.5t59.5 -24.5q145 0 385 229q64 59 150 191q69 104 90 108q14 2 32.5 -4t22.5 -21q2 -10 -57 -90q-72 -96 -97 -151 q-69 -162 -69 -271q0 -92 67 -92q105 0 250 217q152 226 152 414q0 182 -117 276.5t-326 94.5q-196 0 -405 -160q-187 -143 -316 -357t-129 -378q0 -404 588 -404q318 0 580 258q16 23 45 23q12 0 6 -16q-129 -146 -303 -229t-354 -83q-277 0 -435 92q-188 111 -188 338z " />
<glyph unicode="A" horiz-adv-x="1972" d="M-385 -199h1q6 0 71 33q125 64 356 242q137 106 444 411q297 293 484 504q233 264 469 264q172 0 248 -145q53 -102 53 -260q0 -137 -25.5 -370.5t-56.5 -368.5q16 6 28.5 18t24.5 12q19 0 19 -14q0 -12 -80 -74l-13 -102q-4 -29 -29.5 -48.5t-47.5 -19.5q-15 0 -15 33 q0 41 11 104q-211 -86 -359 -86q-100 0 -362.5 102.5t-329.5 102.5q-152 0 -305 -57q-117 -43 -262 -135q-119 -76 -240 -154q-23 -14 -59 -14q-25 0 -25 22zM57 53q185 80 242 99q98 28 229 28q142 0 432.5 -95t317.5 -95q76 0 162 30q63 25 125 52q24 200 49 401 q29 242 29 336q0 383 -246 383q-146 0 -320 -152q-32 -28 -334 -335q-319 -328 -329 -338q-176 -172 -357 -314z" />
<glyph unicode="B" horiz-adv-x="1662" d="M-217 -356q0 4 233 274q-153 39 -153 70q0 45 63 49h6q26 1 67 -15q46 -18 81 -18l332 438q-326 39 -326 150q0 108 225 182q103 35 224 55q92 17 182 31q260 342 475 479q178 113 385 113q64 0 113 -40t49 -101q0 -240 -443 -557q261 -144 261 -262q0 -211 -435 -410 q-399 -182 -725 -182q-264 0 -321 12l-221 -252q-33 -37 -60 -37q-12 0 -12 21zM135 -10q123 -6 303 -6q355 0 691 143q350 149 350 330q0 78 -119 159q-107 74 -164 74q-311 -174 -715 -244zM152 635q0 -47 133 -84q108 -31 184 -31l199 271q-9 1 -20 1q-93 0 -337 -59 q-159 -39 -159 -98zM539 524q180 15 385 84q164 58 229 103q-283 82 -420 82zM782 860q125 0 295 -41q92 -24 185 -49q190 158 274 250q119 135 119 235q0 54 -52.5 90.5t-131.5 36.5q-205 0 -426 -211q-78 -75 -263 -311z" />
<glyph unicode="C" horiz-adv-x="1589" d="M38 365q0 297 225 602q211 284 532.5 473.5t604.5 189.5q139 0 229 -67.5t90 -173.5q0 -211 -256 -418q-243 -197 -458 -197q-27 0 -58 12q-41 17 -41 45q0 35 31 64t62 29q16 -62 27 -77.5t42 -15.5q129 0 268 89q148 92 201 153q90 103 90 252q0 234 -291 234 q-251 0 -538 -161t-471 -411q-205 -274 -205 -559q0 -217 135 -338t373 -121q137 0 311 66q86 33 199 88q90 47 96 47q12 0 12 -14q0 -39 -174 -121q-307 -144 -522 -144q-231 0 -372.5 130.5t-141.5 343.5z" />
<glyph unicode="D" horiz-adv-x="1806" d="M-163 96q0 49 55 49q2 0 60 -28q71 -35 157 -64q129 -41 293 -63q191 116 291 198q135 109 254 261q113 145 459 657q22 -4 26 -35q-82 -158 -438 -639q-76 -100 -207 -219q-164 -147 -323 -231q90 -9 231 -9q379 0 721 234q356 242 356 538q0 158 -129 318 q-63 78 -303 299q-117 102 -233 207q-90 90 -90 194q0 164 20 164h29q-6 -29 -6 -55q0 -127 133 -262l266 -234q227 -209 260 -246q125 -151 125 -327q0 -230 -197 -447q-184 -206 -483 -335.5t-600 -129.5q-213 0 -470 74t-257 131z" />
<glyph unicode="E" horiz-adv-x="1605" d="M-53 104q0 150 111 256q63 62 249 166q123 68 246 133q117 66 117 93q0 26 -65.5 116t-65.5 144q0 168 307 343t600 175q121 0 202 -52.5t81 -129.5q0 -115 -164 -227.5t-338 -112.5q-141 0 -141 92q0 61 65 69q12 1 21 1q35 0 35 -21q0 -4 -4.5 -26.5t-2.5 -30.5 q7 -35 82 -35q135 0 252 83t117 171q0 69 -79 116.5t-204 47.5q-237 0 -486 -145.5t-249 -287.5q0 -65 65.5 -149t65.5 -111q0 -61 -170 -145q-266 -131 -315 -166q-127 -86 -164 -123q-76 -80 -76 -188q0 -121 91 -195t235 -74q225 0 428 70q211 74 459 240q8 -4 16 -27 q-258 -188 -483.5 -270t-477.5 -82q-170 0 -265 74.5t-95 207.5z" />
<glyph unicode="F" horiz-adv-x="1699" d="M157 987q0 207 258 375t576 168q217 0 612 -103q536 -139 688 -165q-94 -54 -160 -58h-17q-41 0 -77 8l-913 234q-138 35 -226 35q-202 0 -424 -131q-247 -146 -247 -328q0 -111 135 -204t303 -93q121 0 311 92q23 4 29 -20q-277 -127 -453 -127q-180 0 -287.5 87 t-107.5 230zM552 -94q0 35 19 35q30 0 37 2q90 30 219 162.5t342 414.5q-49 0 -164 -16q-164 -25 -236 -33q-10 14 -10 33q0 59 86 59q76 0 391 45q160 234 447 613l22 -23q-84 -102 -424 -586q240 29 320 29q20 0 14 -18q-18 -52 -88 -60l-311 -35q-150 -204 -289 -372 q-246 -295 -326 -295q-43 0 -49 45z" />
<glyph unicode="G" horiz-adv-x="1843" d="M12 393q0 244 229 504q215 244 543 403q336 166 633 166q156 0 258 -71.5t102 -182.5q0 -190 -254 -384.5t-507 -194.5q-113 0 -113 92q0 25 22.5 49.5t47.5 24.5q47 0 47 -15q0 -12 -4.5 -23t-4.5 -20q0 -45 88 -45q187 0 386 152q208 158 208 330q0 100 -92 159.5 t-254 59.5q-288 0 -583 -146q-285 -141 -467 -362q-193 -232 -193 -461q0 -168 135 -289t344 -121q222 0 527 144q270 125 399 252q84 84 168 170q78 73 123 82q16 2 16 -19q0 -14 -43 -51q-61 -51 -90 -88q-35 -43 -98 -184q-78 -168 -135 -263q82 45 151 45q19 0 19 -18 q0 -6 -49 -16q-72 -13 -140 -54q-256 -352 -358 -464q-256 -285 -432 -285q-29 0 -60 20q-45 29 -45 80q0 123 256 316q215 161 555 331q74 123 195 361q-535 -408 -1086 -408q-194 0 -319 119t-125 305zM620 -602q0 -23 27 -40t63 -17q138 0 371 278q156 186 252 352 q-303 -149 -496 -299q-217 -166 -217 -274z" />
<glyph unicode="H" horiz-adv-x="2664" d="M20 295q0 213 228.5 367.5t541.5 154.5q162 0 571.5 -106.5t427.5 -106.5q105 133 308 432q190 281 274 381q39 47 80 94q27 35 27 62q0 16 -11.5 35.5t-11.5 38.5q0 22 94 65q88 41 109 41q18 0 18 -45q0 -18 -90 -115q-127 -135 -174 -194q-119 -150 -325.5 -462 t-233.5 -345l258 -60q82 136 162 265q190 305 344 518q309 428 385 428q24 0 27 -43q-33 -47 -150 -182q-129 -150 -203 -250q-274 -369 -508 -748q41 -20 473 -69v-29l-546 -8l-113 -176v-43q0 -21 -14.5 -35.5t-24.5 -14.5q-22 0 -22 19q0 35 56 146l56 112l-268 63 q-586 -600 -1217 -600q-221 0 -374.5 120t-153.5 290zM75 322q0 -154 150.5 -253.5t374.5 -99.5q364 0 694 185q268 149 414 352q-72 16 -562 147q-272 72 -448 72q-266 0 -444.5 -114.5t-178.5 -288.5z" />
<glyph unicode="I" horiz-adv-x="1679" d="M-8 309q0 217 211 375q199 147 438 147q297 0 523.5 -80.5t226.5 -187.5q0 -41 -10 -41q-3 0 -103 56q-119 67 -237 106q-177 55 -365 55q-254 0 -437.5 -102t-183.5 -250q0 -166 143.5 -274.5t364.5 -108.5q342 0 673 234.5t564 648.5q156 274 156 520q0 82 -71.5 131 t-190.5 49q-92 0 -135 -6q123 84 227 84q119 0 186 -86q56 -74 56 -172q0 -211 -172 -512q-262 -457 -630 -713t-769 -256q-205 0 -335 108.5t-130 274.5z" />
<glyph unicode="J" horiz-adv-x="1763" d="M-604 -524q0 149 161 320t414 280q281 123 582 123q178 0 375 -31q215 207 444 555q271 414 271 631q0 219 -256 219q-62 0 -162 -14q72 57 121 74.5t127 17.5q239 0 239 -258q0 -170 -166 -469q-192 -346 -557 -766q138 -54 273 -109q176 -80 176 -137q0 -27 -51 -27 l-156 78q-172 86 -305 121q-436 -432 -666 -598q-332 -238 -610 -238q-111 0 -182.5 64.5t-71.5 163.5zM-541 -469q0 -84 73 -144.5t173 -60.5q219 0 531 203q323 209 624 561q-184 37 -307 37q-428 0 -761 -183.5t-333 -412.5z" />
<glyph unicode="K" horiz-adv-x="2785" d="M51 477q0 133 154.5 222t382.5 89q98 0 211 -28q77 -19 284 -86l516 631l21 -43q-164 -207 -488 -613q76 -37 258 -141q252 129 586 375q297 217 514 415q33 29 160 162q70 70 94 70q21 0 43.5 -13.5t22.5 -27.5q0 -86 -414 -408q-451 -350 -940 -610q293 -188 985 -534 l-131 -46q-213 105 -387 197q-422 219 -588 336q-229 -121 -520 -184q-227 -258 -330 -359q-135 -131 -356 -293q-6 9 -6 25q0 12 67 65q111 84 209 175q166 155 352 376q-204 -30 -299 -30q-202 0 -311 90q-90 76 -90 188zM114 500q0 -94 104.5 -156.5t264.5 -62.5 q47 0 324 24l219 285q-303 135 -551 135q-150 0 -255.5 -65.5t-105.5 -159.5zM872 322q119 18 412 133l-211 120q-80 -104 -201 -253z" />
<glyph unicode="L" horiz-adv-x="2543" d="M-79 -238q0 234 254 388q221 135 465 135q303 0 694 -113q207 -66 416 -133q80 80 199 237q264 355 288 386q121 155 273 319q188 201 235 201q12 0 8 -39q-6 -45 -30 -129q-41 20 -68 20q-43 0 -174 -145q-104 -113 -209 -250q-47 -66 -248 -354q-133 -193 -205 -260 l371 -123q512 -170 735 -170q62 0 86.5 7t81.5 42q6 -8 15 -14q2 -5 -15 -15q-102 -65 -159 -78q-37 -8 -162 -8q-146 0 -314 45q-32 8 -329 103l-387 123q-275 -252 -527 -377q-348 -174 -753 -174q-238 0 -383 92q-158 100 -158 284zM-22 -238q0 -124 152 -217 q166 -98 430 -98q322 0 621 154q225 118 491 358q-352 109 -469 141q-393 105 -606 105q-252 0 -416 -94q-203 -117 -203 -349z" />
<glyph unicode="M" horiz-adv-x="2652" d="M59 1036q86 99 170 197q127 135 250 207q166 98 352 98q137 0 223 -69.5t86 -184.5q0 -129 -32 -219q-45 -119 -193 -346q336 303 508 409q135 84 242 84q57 0 92 -32.5t35 -85.5q0 -101 -230 -455q461 451 598 563q221 180 373 180q106 0 106 -135q0 -41 -147 -484.5 t-147 -592.5q0 -23 4 -51.5t4 -52.5q0 -15 -23.5 -23t-36.5 -4q-49 8 -49 121q0 155 76 381q70 186 141 372q76 203 76 299q0 72 -102 72q-133 0 -363 -217q-321 -309 -641 -621q-20 -18 -215 -251q-170 -205 -194 -205q-15 0 -18 4t-1 14q2 17 2 23q0 24 213 293 q240 299 266 342q195 309 195 391q0 28 -19.5 53t-44.5 25q-135 0 -477 -291q-315 -269 -555 -557q-262 -318 -297 -318q-8 0 -8 15q0 32 81 128.5t163 192.5q199 246 344 488q176 294 176 434q0 94 -77 159.5t-183 65.5q-174 0 -336 -96q-115 -68 -231 -191 q-68 -71 -133 -143z" />
<glyph unicode="N" horiz-adv-x="2076" d="M135 987q0 19 172 191q154 153 346.5 249.5t345.5 96.5q117 0 188.5 -73t71.5 -189q0 -107 -40 -218.5t-150 -318.5q188 195 377 389q272 262 442 262q57 0 93 -39t36 -102q0 -94 -170 -721q-61 -225 -100 -475q-47 14 -62 41q-8 16 -8 59q0 97 37 228q29 104 57 208 q19 84 90 365q41 156 41 229q0 50 -28.5 89.5t-67.5 39.5q-72 0 -251 -151.5t-345 -351.5q-141 -170 -282 -338q-121 -146 -218 -281q-106 -149 -131 -180q-43 -53 -71 -53q-19 0 -19 16q0 33 150 244q289 407 405 628q111 216 111 361q0 119 -68 188q-61 62 -149 62 q-137 0 -334 -101q-170 -86 -270 -184q-29 -29 -119 -127q-55 -59 -70 -59q-10 0 -10 16z" />
<glyph unicode="O" horiz-adv-x="1728" d="M61 399q0 297 182 553q156 217 404 363q223 129 405 137v-25q-8 1 -17 1q-91 0 -280 -103q-243 -131 -401 -321q-201 -242 -201 -519q0 -202 128 -327t339 -125q264 0 551 160q281 153 463 389q192 249 192 489q0 154 -124.5 264.5t-299.5 110.5q-165 0 -395 -137 q-241 -144 -393 -346q-16 -13 -37 -5q277 359 537 474q127 55 161 67q78 25 179 25q229 0 351 -104.5t122 -305.5q0 -254 -224 -534q-212 -267 -534 -445q-336 -186 -641 -186q-201 0 -334 128t-133 322z" />
<glyph unicode="P" horiz-adv-x="1570" d="M-233 -29q0 21 18.5 48.5t38.5 27.5q19 0 29 -9t27 -9q59 0 407 422q332 403 385 507q-213 39 -348 95q-41 16 -41 53q0 29 45 29h12q37 -2 160 -37q150 -41 221 -56q242 344 545 607q443 383 819 383q160 0 253 -64.5t93 -175.5q0 -178 -301 -426q-213 -176 -553 -299 t-614 -123q-160 0 -231 6q-152 -229 -392 -542q-135 -177 -317 -338q-168 -148 -215 -148q-41 0 -41 49zM777 1028h229q244 2 553 100q319 105 532 256q238 170 248 345v8q0 89 -87 149q-91 62 -230 62q-572 0 -1245 -920z" />
<glyph unicode="Q" horiz-adv-x="2367" d="M-83 -115q0 187 205 332q194 141 418 141q174 0 323 -36q230 -60 764 -267q254 211 353.5 364.5t99.5 336.5q0 135 -85 216t-223 81q-292 0 -520 -213q-16 -17 -100 -113q-16 -12 -33 6q29 43 107 135q258 269 614 269q156 0 247 -91.5t91 -248.5q0 -152 -82 -295 q-63 -111 -192 -244q-115 -113 -228 -223q226 -96 568 -203q352 -108 444 -108q68 0 140.5 28.5t94.5 28.5q25 0 25 -10q0 -17 -115 -66q-125 -51 -209 -51q-280 0 -1026 303q-288 -248 -696 -379q-291 -94 -469 -94q-201 0 -358.5 122t-157.5 279zM3 -57q0 -174 148.5 -285 t379.5 -111q277 0 621 172q260 129 401 258q-110 33 -354 127q-233 91 -360 127q-203 58 -371 58q-191 0 -328 -101.5t-137 -244.5z" />
<glyph unicode="R" horiz-adv-x="2201" d="M-212 -723q0 16 22.5 37.5t38.5 21.5q13 0 30.5 -7t25.5 -3q305 236 620 658q-186 2 -343.5 116.5t-157.5 255.5q0 144 119.5 245t289.5 101q225 0 502 -167q618 839 1116 839q129 0 217 -66.5t88 -166.5q0 -230 -325 -490q-228 -182 -658 -407q193 -113 656 -396 q57 -36 229 -106q0 -23 -6 -26t-45 -3q-172 0 -975 475q-72 -43 -266 -108q-226 -74 -379 -90q-158 -209 -357 -428q-305 -336 -411 -336q-31 0 -31 51zM67 393q0 -143 188 -243q158 -84 312 -84h24l272 376q-74 62 -182 117q-156 80 -275 80q-143 0 -241 -72.5t-98 -173.5z M646 66q217 10 553 151l-291 197zM974 510q41 -39 370 -240q369 193 605 385q309 252 309 445q0 78 -92 133q-86 49 -191 49q-254 0 -514 -227q-147 -131 -487 -545z" />
<glyph unicode="S" horiz-adv-x="1708" d="M-40 281q0 122 160 170q36 11 55 11q21 0 21 -13q0 -3 -65 -45t-65 -109q0 -154 180.5 -243t483.5 -89q297 0 494.5 108.5t197.5 272.5q0 127 -176 197l-506 200q-151 60 -151 203q0 201 268 366t586 165q168 0 261 -59.5t93 -160.5q0 -141 -137 -254.5t-295 -113.5 q-57 0 -99 23.5t-42 54.5q0 86 53 86q35 0 35 -25q0 -8 -8.5 -18.5t-8.5 -20.5q0 -24 30 -43.5t77 -19.5q106 0 204.5 95t98.5 193q0 91 -89 152t-222 61q-220 0 -473 -135q-277 -145 -277 -303q0 -119 145 -174l512 -195q191 -71 191 -210q0 -218 -221 -350t-584 -132 q-303 0 -515 103.5t-212 251.5z" />
<glyph unicode="T" horiz-adv-x="1867" d="M184 1106q0 223 237.5 364.5t614.5 141.5q176 0 780 -215q137 145 203 145q8 0 8 -16q0 -4 -57 -47q-64 -52 -94 -97q63 -28 303 -71q203 -37 203 -56q-11 -14 -44 -26q-38 -17 -69 -17q-352 0 -471 72q-590 -805 -854 -1106q-127 -143 -258 -258q-142 -121 -191 -121 q-39 0 -39 49q0 25 19.5 51.5t42.5 26.5q4 0 20.5 -7t34.5 -7q17 0 125 96q117 107 205 209q371 432 837 1075q-612 238 -757 238q-721 0 -721 -395q0 -136 123 -230t293 -94q81 0 262 55q24 11 32 4q9 -4 3 -18q-213 -98 -353 -98q-176 0 -307 104.5t-131 247.5z" />
<glyph unicode="U" horiz-adv-x="2252" d="M282 1337q0 15 156 123q243 170 471 170q233 0 374.5 -128t141.5 -339q0 -114 -127 -527t-127 -470q0 -45 30.5 -82t67.5 -37q127 0 617 469q432 412 524 545q115 164 139 196q45 58 66 58q16 0 18 -4v-29q0 -14 -403.5 -581.5t-403.5 -639.5q0 -43 29 -43q8 0 20.5 4.5 t22.5 4.5q-55 -72 -107 -72q-18 0 -36.5 15.5t-18.5 33.5q0 72 182 354q207 322 213 336q-233 -225 -469 -450q-303 -275 -456 -275q-60 0 -99 53.5t-39 120.5q0 74 125 447t125 530q0 209 -129 320.5t-372 111.5q-121 0 -246 -59q-82 -39 -172 -111q-78 -59 -82 -59 q-35 0 -35 14z" />
<glyph unicode="V" horiz-adv-x="2156" d="M258 1178q0 94 211 219q233 139 483 139q199 0 328 -143.5t129 -364.5q0 -147 -109.5 -487t-109.5 -373q0 -53 34.5 -98t80.5 -45q108 0 333 204q191 174 379 410q164 205 301 516q121 275 121 373v41q-55 0 -55 -84q0 -17 -2 -70q-1 -20 -1 -38.5t1 -33.5q0 -10 -23 -16 q-24 -8 -26 0q-19 90 -19 158q0 90 64 135q43 31 71 31q70 0 70 -121q0 -80 -98 -324q-142 -338 -369 -618q-211 -258 -426 -434q-242 -197 -385 -197q-65 0 -113.5 56.5t-48.5 131.5q0 74 117 414t117 449q0 188 -132 310t-335 122q-334 0 -559 -283q-6 -6 -17 -2 q-12 6 -12 23z" />
<glyph unicode="W" horiz-adv-x="2844" d="M194 1085q340 418 813 418q211 0 338 -115.5t127 -302.5q0 -120 -45 -236t-166 -308q182 139 559 454q160 142 178 158q60 47 90 47q11 0 11 -12t-35 -39q-53 -47 -74 -68q-156 -157 -268 -358q-131 -234 -131 -406q0 -114 71.5 -196t192.5 -82q221 0 507 189.5 t476 463.5q211 305 211 592q0 80 -31 138.5t-76 58.5q-47 0 -98 -29l-10 12q65 103 143 103q60 0 101 -61.5t41 -151.5q0 -305 -224 -641q-207 -314 -514 -527q-317 -217 -583 -217q-131 0 -220.5 92.5t-97.5 225.5v12q0 146 182 489q-159 -126 -305 -247 q-350 -293 -575 -508q-29 0 -29 20q629 559 629 989q0 175 -121 282.5t-317 107.5q-175 0 -351 -76q-215 -92 -374 -277z" />
<glyph unicode="X" horiz-adv-x="1947" d="M163 -158q0 19 16.5 37.5t32.5 18.5q6 0 24.5 -8.5t43.5 -4.5q147 52 631 553q108 101 307 316q-64 274 -156 413q-133 201 -356 201q-224 0 -471 -215l-11 10q162 156 282 216.5t278 60.5q366 0 518 -611l319 324q88 90 174 180q90 82 223 146l17 -21 q-152 -94 -228.5 -174t-152.5 -160l-340 -342q43 -174 84 -348q51 -192 119 -338q14 -28 58 -48q32 -15 65 -15q13 0 26 2v-8q-51 -29 -90 -29q-90 0 -145 74q-47 63 -84 200l-113 426q-113 -112 -311 -309q-322 -315 -381 -366q-236 -209 -338 -209q-41 0 -41 28z" />
<glyph unicode="Y" horiz-adv-x="2424" d="M219 1241l6 35q70 49 197 100q162 64 270 64q131 0 262 -117q146 -129 189 -322q59 -342 120 -684q66 -305 207 -305q103 0 394 234q272 221 507 479q19 20 228 260q112 129 129 129q20 0 20 -29q0 -14 -35 -49q-22 -20 -43 -41q-745 -901 -1257 -1663 q-170 -254 -170 -309q0 -16 23.5 -33.5t23.5 -23.5q0 -47 -37 -47q-18 0 -51 36.5t-33 61.5q0 84 103 240q166 251 221 323q323 416 647 834q-446 -351 -448 -351q-179 -129 -279 -129q-123 0 -203 181q-61 137 -102 405q-31 219 -60 436q-20 148 -124 267 q-115 131 -263 131q-188 0 -442 -113z" />
<glyph unicode="Z" horiz-adv-x="2744" d="M184 995q0 203 195.5 335t496.5 132q187 0 424 -80q203 -69 604 -256q33 -8 95 -30l-1147 -942q57 8 170 32q75 17 110 17q164 0 430.5 -116t401.5 -116q137 0 508 158l2 -8q-195 -121 -317 -163t-277 -42q-180 0 -473 108.5t-389 108.5q-181 0 -412 -176q-19 0 -19 14 l1274 1055q-417 195 -661 279q-289 100 -486 100q-188 0 -324 -107.5t-136 -250.5q0 -144 121.5 -242t302.5 -98q215 0 393 63l4 -14q-281 -107 -424 -107q-197 0 -332 101.5t-135 244.5z" />
<glyph unicode="[" horiz-adv-x="714" d="M-296 -297q0 23 152 227q59 80 264 332q198 244 452 539q310 356 447 520q37 45 141 45h180q33 0 29 -6l-31 -39q-8 -10 -30 -10l-144 -2q-94 -2 -133 -47q-582 -678 -704 -824q-441 -524 -510 -653q-21 -51 24 -51h152q16 0 6 -19l-10 -20q-11 -19 -43 -19h-215 q-27 0 -27 27z" />
<glyph unicode="\" horiz-adv-x="59" d="M-491 -63q18 30 92 69q129 0 526 313q19 15 19 -6q0 -16 -6 -22q-191 -168 -305 -240q-181 -114 -326 -114z" />
<glyph unicode="]" horiz-adv-x="714" d="M-542 -317l31 38q8 11 31 11l143 2q92 2 131 47q623 725 704 823q443 524 512 653q21 52 -24 52h-152q-8 0 -8 10q0 4 2 8l10 21q9 18 43 18h215q27 0 27 -27q0 -22 -151 -227q-60 -80 -265 -332q-198 -243 -452 -538q-309 -357 -447 -521q-37 -45 -141 -45h-180 q-33 0 -29 7z" />
<glyph unicode="^" horiz-adv-x="638" d="M292 750q0 -7 41 63q47 82 274 311q148 150 179 176q86 80 114 82q19 0 19 -32q0 -37 -31 -158q-33 -139 -41 -188q-6 -60 -12 -123.5t-23 -87.5q-4 -19 -24 -19q-31 0 -9 187q19 143 74 337q-45 -34 -100 -90q-137 -129 -318 -334q-75 -86 -86 -98q-30 -28 -51 -28 q-4 0 -6 2z" />
<glyph unicode="_" horiz-adv-x="1015" d="M-48 -36q0 6 12 6q11 0 58 -8t69 -8q82 0 370 22.5t402 22.5q60 0 115 -26q49 -27 49 -48q0 -18 -53 -18q-16 0 -50 9t-48 9q-349 0 -535 -18q-12 -2 -129 -16q-104 -13 -115 -13q-57 0 -86 23q-59 45 -59 63z" />
<glyph unicode="`" horiz-adv-x="440" d="M139 705q0 22 25 22q20 0 32 -14l97 -154q32 -53 32 -61q0 -9 -8 -9q-31 0 -76 56l-98 123q-4 8 -4 37z" />
<glyph unicode="a" horiz-adv-x="780" d="M-210 35q0 84 154.5 204.5t273.5 120.5q72 0 72 -34q0 -35 -23.5 -55.5t-48.5 -16.5q2 0 -12.5 28.5t-44.5 28.5q-78 0 -173.5 -82t-95.5 -145q0 -41 29 -41q98 0 215 78q29 20 84 84q38 43 62 43h4q24 0 24 -21q0 -14 -31.5 -70.5t-31.5 -78.5q0 -72 69 -72 q88 0 275 127q47 31 254 186q6 5 12 3q8 -3 8 -11q0 -12 -8 -20q-197 -164 -274 -217q-191 -131 -316 -131q-106 0 -106 153q-49 -41 -131 -82q-88 -43 -138 -43q-36 0 -69 17.5t-33 46.5z" />
<glyph unicode="b" horiz-adv-x="690" d="M-83 35q0 98 121 262q16 20 264 317q74 91 246 256q131 127 131 146q0 2 -24.5 16.5t-24.5 26.5q0 20 155 65q5 1 10 1q19 0 19 -15q0 -18 -35 -53q-49 -47 -100 -94q-252 -250 -430 -465q-240 -293 -240 -406q0 -37 27.5 -61.5t64.5 -24.5q105 0 201 144q82 118 82 176 q0 41 -57 41q-41 0 -77 -48.5t-36 -82.5q0 -19 17.5 -31t17.5 -21q0 -22 -35 -22q-49 0 -49 63q0 76 82 142q71 57 129 57q28 0 53 -22.5t25 -49.5q0 -94 -129 -248q-150 -174 -302 -174q-106 0 -106 105z" />
<glyph unicode="c" horiz-adv-x="704" d="M-110 78q0 96 127 211q137 127 289 127q65 0 65 -56q0 -57 -84 -108q-75 -47 -129 -47q-43 0 -43 20q0 58 58 58q8 0 22 -8.5t37 -8.5q25 0 49.5 29t24.5 51q0 21 -49 21q-88 0 -185.5 -91.5t-97.5 -162.5q0 -54 45 -90.5t119 -36.5q117 0 276 88q105 57 242 162 q113 88 119 88q12 0 12 -19q0 -10 -111 -102q-104 -84 -153 -117q-242 -164 -457 -164q-78 0 -127 45t-49 111z" />
<glyph unicode="d" horiz-adv-x="956" d="M-208 57q0 70 106 158q154 127 291 127q33 0 55.5 -17.5t22.5 -39.5q0 -49 -33 -54q-10 -2 -15 15.5t-11 35t-68 17.5q-78 0 -205 -127q-53 -53 -53 -96q0 -47 62 -47q43 0 141 43q90 39 158 84q32 120 92 225q6 12 90 141q160 246 377 457q258 250 409 250q84 0 84 -92 q0 -156 -487 -594q-168 -150 -512 -404q26 -149 147 -149q86 0 236 86q102 59 235 162l113 86q12 0 12 -17q0 -16 -155 -139q-146 -115 -215 -156q-138 -82 -246 -82q-137 0 -178 172q-84 -47 -168 -92q-95 -45 -181 -45q-43 0 -73.5 25.5t-30.5 66.5zM302 190 q278 205 500 398q161 139 282 297q133 168 133 252q0 51 -49 51q-88 0 -279.5 -174t-357.5 -402q-182 -247 -229 -422z" />
<glyph unicode="e" horiz-adv-x="428" d="M-247 78q0 88 98.5 195.5t171.5 107.5q23 0 43.5 -17.5t20.5 -39.5q0 -35 -35 -67t-70 -60q-59 -52 -145 -93q-1 -6 -1 -12q0 -42 38 -65q31 -21 69 -21q103 0 293 127q41 27 254 186q6 5 13 3q8 -3 8 -11q0 -12 -8 -20q-199 -168 -275 -217q-194 -131 -342 -131 q-133 0 -133 135zM-159 164q10 2 35 10q127 76 127 129q0 14 -23 14q-32 0 -85.5 -56t-53.5 -97z" />
<glyph unicode="f" d="M-1286 -735q0 43 49 43l60 -51q47 -41 90 -41q82 0 224 84t271 215q156 157 297 344q131 174 131 211h-20q-45 0 -45 39q0 32 73 32h58q74 123 309 467q500 699 750 699q39 0 63.5 -25t24.5 -59q0 -88 -197 -312q-188 -213 -409 -385q-211 -166 -390 -254l-73 -131h315 q37 0 37 -35q0 -20 -37 -22l-367 -14q-188 -244 -227 -287q-86 -105 -248 -268q-108 -111 -235 -197q-213 -145 -377 -145q-53 0 -90 27.5t-37 64.5zM72 330q94 63 268 174q195 117 408 350q227 246 227 369q0 43 -66 43q-65 0 -217.5 -137.5t-269.5 -294.5 q-125 -170 -350 -504z" />
<glyph unicode="g" horiz-adv-x="763" d="M-964 -672q0 228 492 414q112 43 380.5 125t311.5 98q137 148 137 283q0 92 -107 92q-81 0 -153 -41q-78 -43 -78 -100q0 -78 64 -78q47 0 131 41q47 24 94 49l-15 -27q-53 -32 -106 -65q-88 -49 -162 -49q-45 0 -71.5 28.5t-26.5 71.5q0 70 117.5 140.5t220.5 70.5 q76 0 123 -39t47 -102q0 -86 -96 -234q127 41 487 313q6 5 12 3q8 -3 8 -11q0 -12 -8 -20q-203 -170 -221 -182q-145 -107 -328 -168q-133 -172 -440 -408q-422 -324 -666 -324q-63 0 -105 34t-42 85zM-892 -629q0 -49 53 -84q47 -28 100 -28q62 0 172 45q119 47 215 116 q392 283 539 492q-178 -51 -358 -102q-310 -91 -480 -181q-241 -127 -241 -258z" />
<glyph unicode="h" horiz-adv-x="735" d="M-178 -14q0 32 70 131q123 170 147 207q176 274 504 626q362 391 487 391q47 0 84 -25.5t37 -66.5q0 -82 -178 -288q-324 -377 -655 -572q-56 -37 -113 -72q-64 -38 -168 -79l-109 -160q33 20 324 213q105 69 143 69q27 0 27 -28q0 -10 -52 -81t-52 -118q0 -39 10 -53 q14 -23 67 -23q54 0 265 156l147 109q10 0 10 -19q0 -8 -43 -43q-69 -57 -88 -76q-59 -55 -143 -108q-125 -76 -205 -76q-113 0 -113 98q0 35 15 121q-15 -2 -43 -14q-17 -10 -215 -158q-113 -82 -144 -82q-16 0 -16 21zM76 295q86 14 330 194q254 189 440 385 q219 232 219 355q0 55 -63 55q-82 0 -232 -141q-94 -92 -286 -320q-201 -237 -275 -327q-123 -158 -133 -201z" />
<glyph unicode="i" horiz-adv-x="464" d="M-118 66q0 71 74 165q69 88 116 99q25 0 25 -17q0 -14 -58.5 -83.5t-58.5 -129.5q0 -77 70 -77q84 0 477 296q6 5 12 3q9 -3 9 -11q0 -12 -9 -20q-204 -172 -256 -209q-168 -123 -254 -123q-55 0 -101 32t-46 75zM91 453q0 55 74 55q73 0 73 -55q0 -54 -73 -54 q-74 0 -74 54z" />
<glyph unicode="j" horiz-adv-x="501" d="M-968 -872q0 26 68 75q122 90 241 207q275 273 557 600q248 287 248 312q-27 -5 -71 -33.5t-46 -28.5q-10 4 -10 16q0 11 17 25q51 45 131 82q67 33 92 33q24 0 24 -13q0 -16 -125 -174q-104 -131 -159 -194q-389 -447 -742 -805q-149 -162 -198 -162q-27 0 -27 60z M300 553q0 51 73 51q74 0 74 -51q0 -49 -74 -49q-73 0 -73 49z" />
<glyph unicode="k" horiz-adv-x="974" d="M-288 -113q123 140 461 549q516 641 565 744q-22 2 -57 20q-6 10 -6 35q0 14 38 31q62 22 101 51h69q3 -41 -464 -625q-482 -604 -488 -614q131 69 264 141q256 133 385 133q70 0 70 -49q0 -41 -39 -41q-16 0 -51 7t-51 7q-121 0 -240 -57q-78 -37 -113 -72 q258 -104 381 -104q144 0 500 268q6 4 12 2q9 -2 9 -10q0 -12 -9 -20q-370 -312 -596 -312q-65 0 -208.5 46t-159.5 46q-78 0 -195 -81q-72 -52 -143 -103z" />
<glyph unicode="l" horiz-adv-x="569" d="M-241 162q0 184 190 469q179 264 414 465q248 211 400 211q47 0 76.5 -30t29.5 -73q0 -162 -281 -463q-172 -186 -391 -368q-141 -117 -336 -258q4 -45 62.5 -76t130.5 -31q135 0 328 125q18 12 249 186q7 5 13 3q8 -3 8 -11q0 -12 -8 -20q-170 -141 -277 -209 q-196 -121 -348 -121q-260 0 -260 201zM-153 203q0 -29 8 -41q54 28 221 164q207 168 377 336q164 161 234 264q96 137 96 256q0 70 -79 70q-9 0 -19 -1q-105 -8 -307.5 -182t-333.5 -364q-90 -130 -146 -285q-51 -137 -51 -217z" />
<glyph unicode="m" horiz-adv-x="1296" d="M-118 -10q0 2 107.5 116.5t107.5 151.5q0 12 -23.5 14t-23.5 13q0 20 27.5 38.5t52.5 18.5q63 0 63 -70q0 -30 -37.5 -74t-74.5 -87q133 79 268 159q70 41 100 41q51 0 51 -39q0 -26 -61 -92q-76 -80 -94 -119q278 166 354 205q98 51 150 51q12 0 12 -24q0 -2 -50 -80 t-50 -127q0 -76 69 -76q88 0 275 125q63 41 254 184q6 5 12 3q8 -3 8 -11q0 -12 -8 -20q-176 -148 -270 -211q-187 -121 -312 -121q-112 0 -112 107q0 73 39 147q-25 0 -89 -39q-100 -65 -108 -70q-90 -51 -177 -100t-110 -49q-37 0 -37 35q0 33 52 96q63 76 127 152 q-437 -275 -461 -275q-31 0 -31 27z" />
<glyph unicode="n" horiz-adv-x="886" d="M-131 -25q0 27 72 127q82 117 94 144q-6 14 -6 33q0 16 24.5 32.5t40.5 16.5q66 0 66 -49q0 -17 -62 -97q-55 -71 -84 -100q363 246 465 246q15 0 15 -25q0 -4 -57.5 -70.5t-57.5 -128.5q0 -69 96 -69q76 0 240 112q33 21 233 172q6 5 13 3q8 -3 8 -11q0 -12 -8 -20 q-187 -156 -256 -203q-174 -117 -299 -117q-109 0 -109 115q0 45 21 125q-144 -82 -302 -182q-112 -74 -120 -74q-4 0 -15.5 8t-11.5 12z" />
<glyph unicode="o" d="M-217 6q0 105 147 230q144 116 242 116t98 -90q0 -102 -114 -199q24 -24 61 -24q62 0 209 104q127 90 209 176q4 7 12 3q8 -3 8 -11q0 -14 -8 -22q-69 -84 -209 -180q-151 -109 -227 -109q-53 0 -92 37q-17 -27 -86 -64q-84 -43 -152 -43q-98 0 -98 76zM-133 63 q0 -69 57 -69q80 0 172 74q-37 38 -37 98q0 84 35 117q-227 -105 -227 -220zM100 190q0 -67 27 -92q115 92 115 178q0 35 -35 35q-41 0 -74 -37.5t-33 -83.5z" />
<glyph unicode="p" horiz-adv-x="712" d="M-804 -799q0 31 23 64q47 71 49 76q121 221 465 620q161 191 649 725q24 27 41 27q14 0 14 -21q0 -8 -399 -459q73 39 147 78q92 41 164 41q84 0 84 -69q0 -50 -72.5 -126.5t-181.5 -134t-176 -57.5q-25 0 -42 20.5t-17 43.5q2 57 36 57q19 0 26 -11.5t13 -25.5 q17 -31 58 -31q59 0 168.5 90.5t109.5 153.5q0 35 -69 35q-62 0 -129 -41q-56 -37 -209 -166q-197 -166 -420 -465q-199 -270 -211 -346q-1 -8 -1 -24.5t1 -42.5q0 -25 -19.5 -39.5t-35.5 -14.5q-23 0 -44.5 12.5t-21.5 30.5z" />
<glyph unicode="q" horiz-adv-x="669" d="M-616 -874q0 53 102 215q164 258 668 731q-57 -25 -113 -47q-71 -31 -98 -31q-39 0 -68.5 32.5t-29.5 73.5q0 97 174 197q164 94 285 94q32 0 54.5 -17.5t22.5 -39.5q0 -45 -92 -58q0 9 3 20t3 17q0 35 -41 35q-55 0 -178 -63q-149 -78 -149 -164q0 -25 18.5 -44.5 t34.5 -19.5q37 0 85 22.5t93 45.5q60 29 166 104q65 46 92 46q5 0 8 -1q0 -30 -43 -53q-391 -327 -594 -565q-133 -158 -182 -221q-86 -119 -110 -203q112 88 364 299q170 145 246 145q43 0 43 -43q0 -20 -17.5 -37.5t-29.5 -17.5q-15 0 -41.5 2t-52.5 2q-68 0 -430 -336 q-33 -28 -78 -77q-47 -78 -78 -78q-37 0 -37 35z" />
<glyph unicode="r" horiz-adv-x="696" d="M-368 6q0 14 18 35q109 43 326 207q-14 14 -14 28q0 39 64.5 108t105.5 69q35 0 35 -27q0 -47 -64 -107q82 21 107 21q57 0 57 -41q0 -43 -82 -118t-82 -115q0 -29 21.5 -50.5t52.5 -21.5q112 0 317 133q51 33 264 195q7 4 13 2q8 -2 8 -11q0 -12 -8 -20 q-201 -168 -281 -221q-203 -135 -356 -135q-41 0 -75 32.5t-34 73.5q0 37 53 100q50 52 97 105q-37 0 -83 -7.5t-73 -7.5h-6q-211 -178 -348 -237q-33 0 -33 10z" />
<glyph unicode="s" horiz-adv-x="579" d="M-368 6q0 14 18 35q179 86 377 246q2 4 2 6q54 45 115 45q92 0 92 -86q0 -55 -57.5 -132t-102.5 -102q117 0 310 121q84 49 256 180q6 5 12 3q8 -3 8 -11q0 -12 -8 -20q-221 -185 -268 -215q-201 -127 -424 -127q-68 0 -113 28q-16 11 -67 60q0 12 4 20q-66 -39 -121 -61 q-33 0 -33 10zM-188 76q10 0 17 -2q71 -45 112 -45q82 0 148 75q57 66 57 123q0 49 -49 49q-25 0 -37 -4q-143 -125 -248 -196z" />
<glyph unicode="t" horiz-adv-x="542" d="M-311 733q4 17 39 17h731l170 165q15 15 47 15q11 0 19 -12q6 -15 0 -21l-166 -147l502 -23q0 -37 -74 -45h-92h-400q-256 -270 -276 -293q-191 -219 -191 -313q0 -62 80 -62q105 0 285 123q121 90 242 182q6 5 12 3q8 -3 8 -11q0 -12 -8 -20q-197 -164 -274 -217 q-189 -131 -314 -131q-47 0 -76.5 34.5t-29.5 83.5q0 113 192 332q139 144 277 289l-684 18q-21 0 -21 20q0 5 2 13z" />
<glyph unicode="u" horiz-adv-x="751" d="M-198 39q0 70 56.5 127t224.5 164q20 0 10 -27q-49 -35 -98 -72q-95 -77 -95 -143q0 -63 35 -63q14 0 74 26q67 31 107 62.5t126 142.5q70 88 97 88q26 0 26 -22q0 -19 -70.5 -85.5t-70.5 -111.5q0 -43 26.5 -78t51.5 -35q80 0 262 123q51 35 250 184q6 5 12 3 q8 -3 8 -11q0 -12 -8 -20q-418 -350 -580 -350q-94 0 -106 147q-53 -55 -145 -98q-78 -35 -109 -35q-33 0 -58.5 24.5t-25.5 59.5z" />
<glyph unicode="v" horiz-adv-x="778" d="M-94 29q0 96 139 282q11 15 37 15q17 0 17 -11q0 -4 -3 -8q-16 0 -68 -91t-52 -138q0 -78 71 -78q58 0 183 113q-35 47 -35 129q0 49 27.5 86t70.5 37q74 0 74 -84q0 -93 -78 -172q51 -66 96 -66q86 0 240 98q143 92 215 178q4 7 12 3q8 -3 8 -11q0 -12 -8 -22 q-65 -76 -188 -164q-170 -121 -285 -121q-55 0 -127 78q-145 -145 -242 -145q-43 0 -73.5 25.5t-30.5 66.5zM236 250q0 -62 26 -107q47 56 52 62q22 33 22 69q0 56 -35 56q-65 0 -65 -80z" />
<glyph unicode="w" horiz-adv-x="1056" d="M-159 29q0 69 74 151q73 74 147 148q35 37 74 37t39 -48q0 -4 -26.5 -12t-33.5 -12q-194 -143 -194 -223q0 -21 29 -21q77 0 397 256q10 8 18 8q15 0 15 -22q0 6 -49.5 -62.5t-49.5 -138.5q0 -76 78 -76q39 0 150 99q-35 47 -35 129q0 49 27.5 86t70.5 37q74 0 74 -84 q0 -93 -78 -172q51 -66 96 -66q86 0 240 98q143 92 215 178q4 7 12 3q8 -3 8 -11q0 -12 -8 -22q-65 -76 -188 -164q-170 -121 -285 -121q-55 0 -127 78q-145 -145 -241 -145q-33 0 -65 40.5t-32 94.5q0 43 23 82q-74 -68 -176.5 -125.5t-149.5 -57.5q-33 0 -41 10.5t-8 47.5 zM515 250q0 -62 26 -107q48 56 52 62q22 33 22 69q0 56 -35 56q-65 0 -65 -80z" />
<glyph unicode="x" horiz-adv-x="845" d="M-151 -88q0 25 119 119q92 71 184 143q-37 66 -70 78q-43 16 -43 35q0 47 66 47q49 0 82 -35q10 -12 43 -70q92 72 178 121q113 64 154 64q18 0 28 -11q2 -16 -34 -28q-74 -27 -95 -37q-125 -62 -217 -148l62 -98q47 -78 96 -78q78 0 258 123q51 33 248 182q6 5 12 3 q8 -3 8 -11q0 -12 -8 -20q-131 -133 -272 -228q-174 -118 -289 -118q-119 0 -186 194q-86 -61 -271 -223q-13 -13 -30 -13q-4 0 -9 1q-14 4 -14 8z" />
<glyph unicode="y" horiz-adv-x="720" d="M-495 -842q0 88 106 205l631 696q-159 -104 -250 -104q-90 0 -90 92q0 78 64 174q57 84 98 103q5 1 10 1q25 0 25 -20q0 1 -1 1q-5 0 -66 -74q-66 -82 -66 -150q0 -64 98 -64q74 0 234.5 131.5t181.5 131.5q20 0 20 -11q0 -22 -123 -143q-229 -229 -305 -307 q-219 -234 -397 -465q-78 -103 -78 -141q0 -11 5 -32.5t3 -31.5q-26 -63 -92 -63q-8 45 -8 71z" />
<glyph unicode="z" horiz-adv-x="794" d="M-108 -31q164 148 360 285h-194q-31 0 -31 16q0 33 33 45.5t133 16.5l129 6q64 0 64 -31q0 -6 -141.5 -101t-153.5 -118q172 -2 236.5 -18.5t101.5 -16.5q84 0 229 101q113 75 199 161q20 17 20 -4q0 -8 -8 -16q-148 -137 -289 -227.5t-215 -90.5q-18 0 -120.5 24 t-153.5 24q-47 0 -107 -23q-43 -18 -84 -35q-1 -1 -2 -1l-2 1q-2 2 -4 2z" />
<glyph unicode="{" horiz-adv-x="784" d="M-227 -238q0 52 100 181l265 338q102 131 102 192q0 21 -16.5 44.5t-16.5 33.5q0 6 4 14q17 29 78 29q121 0 248 145l280 322q86 100 170 199q89 81 213 81h111q23 0 23 -26q0 -19 -37 -19h-109q-104 0 -194 -90q-86 -102 -172 -205l-252 -286q-90 -105 -157 -139.5 t-146 -26.5l-5 -6q27 -19 27 -58q0 -86 -98 -211l-228 -286q-141 -178 -141 -215t76 -37h80q16 0 16 -25q0 -20 -47 -20h-74q-100 0 -100 71z" />
<glyph unicode="|" horiz-adv-x="454" d="M233 61q0 394 31 818q37 520 92 520q20 0 20 -35q0 -80 -32 -240q-13 -63 -29 -313q-21 -299 -21 -569q0 -207 13 -369q2 -31 23.5 -86t21.5 -82q0 -29 -19 -55q-2 -2 -2 -9.5t-2 -9.5q-18 0 -41 15q-55 127 -55 415z" />
<glyph unicode="}" horiz-adv-x="784" d="M-565 -283q0 19 37 19h108q105 0 195 90q86 102 172 205l252 286q90 105 160 140q63 35 143 26l4 6q-27 19 -27 58q0 86 99 211l227 286q141 179 141 216q0 36 -75 36h-80q-17 0 -17 25q0 20 47 20h74q101 0 101 -71q0 -51 -101 -180l-264 -338q-102 -131 -102 -193 q0 -20 16 -43.5t16 -34.5q0 -6 -4 -14q-16 -29 -78 -29q-120 0 -247 -145l-281 -322q-86 -100 -170 -198q-88 -82 -213 -82h-110q-23 0 -23 26z" />
<glyph unicode="~" horiz-adv-x="1032" d="M75 502q25 69 133 149q119 86 215 86q74 0 125 -98q31 -57 49 -78q37 -37 95 -37q151 0 227 168q12 29 39 25q31 0 18 -33q-33 -90 -121 -153.5t-180 -63.5q-117 0 -186 141q-33 68 -82 68q-76 0 -160 -54.5t-129 -123.5q-14 -15 -31 -15q-18 0 -12 19z" />
<glyph unicode="&#xa8;" horiz-adv-x="1024" />
<glyph unicode="&#xa9;" horiz-adv-x="2086" d="M192 358q0 291 143 564q131 243 336 407q201 156 381 168v-24q-100 4 -282 -123q-213 -146 -349 -363q-172 -270 -172 -581q0 -220 148.5 -367.5t378.5 -147.5q293 0 569 193q258 180 422 468t164 572q0 187 -135 289q-125 94 -326 94q-209 0 -467 -164 q-246 -159 -420 -391l-22 11q137 182 327 335q320 261 600 261q242 0 371 -111t129 -322q0 -282 -180 -586t-455 -501q-295 -209 -590 -209q-241 0 -401 137q-170 148 -170 391zM489 453q0 211 160 428q147 202 375.5 336.5t429.5 134.5q102 0 168.5 -52.5t66.5 -130.5 q0 -151 -182 -301q-176 -141 -330 -141q-20 0 -47 12q-33 17 -33 41q0 29 28 52.5t58 23.5q13 -45 17 -51q6 -12 22 -12q86 0 183.5 60t134.5 103q61 68 61 168q0 152 -190 152q-275 0 -547 -232q-291 -247 -291 -546q0 -146 91 -228t251 -82q88 0 215 48q61 22 141 61 q64 33 68 33q18 0 20 -2v-21q0 -33 -129 -94q-219 -102 -368 -102q-168 0 -270.5 94t-102.5 248z" />
<glyph unicode="&#xad;" horiz-adv-x="706" d="M81 414q0 6 16 6q11 0 56 -6t67 -6q6 0 108.5 14t174.5 14q59 0 115 -26q49 -27 49 -48q0 -18 -54 -18q-16 0 -49.5 9t-48.5 9q-100 0 -194 -18q-84 -16 -95 -16q-57 0 -86 22q-59 45 -59 64z" />
<glyph unicode="&#xae;" horiz-adv-x="2086" d="M192 358q0 291 143 564q131 243 336 407q201 156 381 168v-24q-100 4 -282 -123q-213 -146 -349 -363q-172 -270 -172 -581q0 -220 148.5 -367.5t378.5 -147.5q293 0 569 193q258 180 422 468t164 572q0 187 -135 289q-125 94 -326 94q-209 0 -467 -164 q-246 -159 -420 -391l-22 11q137 182 327 335q320 261 600 261q242 0 371 -111t129 -322q0 -282 -180 -586t-455 -501q-295 -209 -590 -209q-241 0 -401 137q-170 148 -170 391zM342 246q0 16 16 37.5t35 21.5q10 0 15 -5t13 -5q29 0 127 156q70 116 140 233q-99 23 -172 51 q-33 13 -33 45q0 15 15.5 35.5t35.5 20.5q61 -17 203 -48q129 185 311 336q250 207 459 207q94 0 152.5 -42t58.5 -109q0 -121 -185 -271q-294 -237 -657 -237h-43l416 -592q0 -19 -23 -21q23 2 -59 2q-33 0 -176 246q-166 283 -244 355q-49 -91 -145 -259 q-129 -202 -220 -202q-40 0 -40 45zM813 778h88q217 0 450 99q260 110 268 247q3 45 -42.5 73t-114.5 28q-312 0 -649 -447z" />
<glyph unicode="&#xb4;" horiz-adv-x="1024" />
<glyph unicode="&#xb6;" horiz-adv-x="1024" />
<glyph unicode="&#xbc;" horiz-adv-x="1950" />
<glyph unicode="&#xbd;" horiz-adv-x="1950" />
<glyph unicode="&#xbe;" horiz-adv-x="1950" />
<glyph unicode="&#xc0;" horiz-adv-x="1972" d="M-385 -199q0 -4 72 33q125 64 356 242q137 106 444 411q297 293 484 504q233 264 469 264q172 0 248 -145q53 -102 53 -260q0 -137 -25.5 -370.5t-56.5 -368.5q16 6 28.5 18t24.5 12q19 0 19 -14q0 -12 -80 -74l-13 -102q-4 -29 -29.5 -48.5t-47.5 -19.5q-15 0 -15 33 q0 41 11 104q-211 -86 -359 -86q-100 0 -362.5 102.5t-329.5 102.5q-152 0 -305 -57q-117 -43 -262 -135q-119 -76 -240 -154q-23 -14 -59 -14q-25 0 -25 22zM57 53q185 80 242 99q98 28 229 28q142 0 432.5 -95t317.5 -95q76 0 162 30q63 25 125 52q24 200 49 401 q29 242 29 336q0 383 -246 383q-146 0 -320 -152q-32 -28 -334 -335q-319 -328 -329 -338q-176 -172 -357 -314zM1196 1827q47 -20 90 -79q0 -93 310 -380q33 -31 -13 -31q-20 0 -29 7q-169 140 -241 224q-117 134 -117 259z" />
<glyph unicode="&#xc1;" horiz-adv-x="1972" d="M-385 -199q0 -4 72 33q125 64 356 242q137 106 444 411q297 293 484 504q233 264 469 264q172 0 248 -145q53 -102 53 -260q0 -137 -25.5 -370.5t-56.5 -368.5q16 6 28.5 18t24.5 12q19 0 19 -14q0 -12 -80 -74l-13 -102q-4 -29 -29.5 -48.5t-47.5 -19.5q-15 0 -15 33 q0 41 11 104q-211 -86 -359 -86q-100 0 -362.5 102.5t-329.5 102.5q-152 0 -305 -57q-117 -43 -262 -135q-119 -76 -240 -154q-23 -14 -59 -14q-25 0 -25 22zM57 53q185 80 242 99q98 28 229 28q142 0 432.5 -95t317.5 -95q76 0 162 30q63 25 125 52q24 200 49 401 q29 242 29 336q0 383 -246 383q-146 0 -320 -152q-32 -28 -334 -335q-319 -328 -329 -338q-176 -172 -357 -314zM1536 1368q310 287 310 380q42 59 90 79q0 -125 -118 -259q-72 -84 -241 -224q-9 -7 -28 -7q-46 0 -13 31z" />
<glyph unicode="&#xc2;" horiz-adv-x="1972" d="M-385 -199q0 -4 72 33q125 64 356 242q137 106 444 411q297 293 484 504q233 264 469 264q172 0 248 -145q53 -102 53 -260q0 -137 -25.5 -370.5t-56.5 -368.5q16 6 28.5 18t24.5 12q19 0 19 -14q0 -12 -80 -74l-13 -102q-4 -29 -29.5 -48.5t-47.5 -19.5q-15 0 -15 33 q0 41 11 104q-211 -86 -359 -86q-100 0 -362.5 102.5t-329.5 102.5q-152 0 -305 -57q-117 -43 -262 -135q-119 -76 -240 -154q-23 -14 -59 -14q-25 0 -25 22zM57 53q185 80 242 99q98 28 229 28q142 0 432.5 -95t317.5 -95q76 0 162 30q63 25 125 52q24 200 49 401 q29 242 29 336q0 383 -246 383q-146 0 -320 -152q-32 -28 -334 -335q-319 -328 -329 -338q-176 -172 -357 -314zM1244 1381q7 36 138 129q83 59 103 69q54 33 89 34q24 0 46 -15q23 -15 59 -64q43 -54 62 -73q27 -23 60.5 -50.5t28.5 -38.5q15 -19 -30 -19q-39 0 -125 76 q-64 58 -110 128q-23 -10 -54 -31q-81 -50 -168 -130q-37 -34 -42 -40q-22 -13 -49 -13q-6 0 42 -11q-53 36 -50 49z" />
<glyph unicode="&#xc3;" horiz-adv-x="1972" d="M-385 -199q0 -4 72 33q125 64 356 242q137 106 444 411q297 293 484 504q233 264 469 264q172 0 248 -145q53 -102 53 -260q0 -137 -25.5 -370.5t-56.5 -368.5q16 6 28.5 18t24.5 12q19 0 19 -14q0 -12 -80 -74l-13 -102q-4 -29 -29.5 -48.5t-47.5 -19.5q-15 0 -15 33 q0 41 11 104q-211 -86 -359 -86q-100 0 -362.5 102.5t-329.5 102.5q-152 0 -305 -57q-117 -43 -262 -135q-119 -76 -240 -154q-23 -14 -59 -14q-25 0 -25 22zM57 53q185 80 242 99q98 28 229 28q142 0 432.5 -95t317.5 -95q76 0 162 30q63 25 125 52q24 200 49 401 q29 242 29 336q0 383 -246 383q-146 0 -320 -152q-32 -28 -334 -335q-319 -328 -329 -338q-176 -172 -357 -314zM1189 1468q23 55 122 116q108 66 196 66q70 0 118 -78q27 -41 42 -56q30 -25 78 -25q129 0 194 121q14 27 43 23q41 0 24 -37q-30 -70 -110.5 -119t-164.5 -49 q-109 0 -174 110q-26 46 -65 46q-65 0 -137.5 -39.5t-112.5 -90.5q-16 -14 -34 -14q-29 0 -19 26z" />
<glyph unicode="&#xc8;" horiz-adv-x="1605" d="M-53 104q0 150 111 256q63 62 249 166q123 68 246 133q117 66 117 93q0 26 -65.5 116t-65.5 144q0 168 307 343t600 175q121 0 202 -52.5t81 -129.5q0 -115 -164 -227.5t-338 -112.5q-141 0 -141 92q0 61 65 69q56 7 56 -20q0 -4 -4.5 -26.5t-2.5 -30.5q7 -35 82 -35 q135 0 252 83t117 171q0 69 -79 116.5t-204 47.5q-237 0 -486 -145.5t-249 -287.5q0 -65 65.5 -149t65.5 -111q0 -61 -170 -145q-266 -131 -315 -166q-127 -86 -164 -123q-76 -80 -76 -188q0 -121 91 -195t235 -74q225 0 428 70q211 74 459 240q8 -4 16 -27 q-258 -188 -483.5 -270t-477.5 -82q-170 0 -265 74.5t-95 207.5zM1052 2105q48 -20 90 -79q0 -93 310 -380q33 -31 -13 -31q-19 0 -28 7q-169 140 -242 224q-117 134 -117 259z" />
<glyph unicode="&#xc9;" horiz-adv-x="1605" d="M-53 104q0 150 111 256q63 62 249 166q123 68 246 133q117 66 117 93q0 26 -65.5 116t-65.5 144q0 168 307 343t600 175q121 0 202 -52.5t81 -129.5q0 -115 -164 -227.5t-338 -112.5q-141 0 -141 92q0 61 65 69q56 7 56 -20q0 -4 -4.5 -26.5t-2.5 -30.5q7 -35 82 -35 q135 0 252 83t117 171q0 69 -79 116.5t-204 47.5q-237 0 -486 -145.5t-249 -287.5q0 -65 65.5 -149t65.5 -111q0 -61 -170 -145q-266 -131 -315 -166q-127 -86 -164 -123q-76 -80 -76 -188q0 -121 91 -195t235 -74q225 0 428 70q211 74 459 240q8 -4 16 -27 q-258 -188 -483.5 -270t-477.5 -82q-170 0 -265 74.5t-95 207.5zM1440 1646q310 287 310 380q43 59 90 79q0 -125 -117 -259q-73 -84 -241 -224q-9 -7 -29 -7q-46 0 -13 31z" />
<glyph unicode="&#xca;" horiz-adv-x="1605" d="M-53 104q0 150 111 256q63 62 249 166q123 68 246 133q117 66 117 93q0 26 -65.5 116t-65.5 144q0 168 307 343t600 175q121 0 202 -52.5t81 -129.5q0 -115 -164 -227.5t-338 -112.5q-141 0 -141 92q0 61 65 69q56 7 56 -20q0 -4 -4.5 -26.5t-2.5 -30.5q7 -35 82 -35 q135 0 252 83t117 171q0 69 -79 116.5t-204 47.5q-237 0 -486 -145.5t-249 -287.5q0 -65 65.5 -149t65.5 -111q0 -61 -170 -145q-266 -131 -315 -166q-127 -86 -164 -123q-76 -80 -76 -188q0 -121 91 -195t235 -74q225 0 428 70q211 74 459 240q8 -4 16 -27 q-258 -188 -483.5 -270t-477.5 -82q-170 0 -265 74.5t-95 207.5zM1225 1669q7 36 138 129q83 59 103 69q54 33 89 34q24 0 46 -15q23 -15 59 -64q44 -54 62 -73q28 -23 61 -50.5t28 -38.5q16 -19 -29 -19q-40 0 -126 76q-63 58 -110 128q-23 -10 -53 -31q-82 -50 -169 -130 q-37 -34 -42 -40q-22 -13 -48 -13q-6 0 41 -11q-53 36 -50 49z" />
<glyph unicode="&#xcc;" horiz-adv-x="1679" d="M-8 309q0 217 211 375q199 147 438 147q297 0 523.5 -80.5t226.5 -187.5q0 -41 -10 -41q-3 0 -103 56q-119 67 -237 106q-177 55 -365 55q-254 0 -437.5 -102t-183.5 -250q0 -166 143.5 -274.5t364.5 -108.5q342 0 673 234.5t564 648.5q156 274 156 520q0 82 -71.5 131 t-190.5 49q-92 0 -135 -6q123 84 227 84q119 0 186 -86q56 -74 56 -172q0 -211 -172 -512q-262 -457 -630 -713t-769 -256q-205 0 -335 108.5t-130 274.5zM1685 2192q47 -20 89 -79q0 -93 311 -380q32 -31 -13 -31q-20 0 -29 7q-169 140 -241 224q-117 134 -117 259z" />
<glyph unicode="&#xcd;" horiz-adv-x="1679" d="M-8 309q0 217 211 375q199 147 438 147q297 0 523.5 -80.5t226.5 -187.5q0 -41 -10 -41q-3 0 -103 56q-119 67 -237 106q-177 55 -365 55q-254 0 -437.5 -102t-183.5 -250q0 -166 143.5 -274.5t364.5 -108.5q342 0 673 234.5t564 648.5q156 274 156 520q0 82 -71.5 131 t-190.5 49q-92 0 -135 -6q123 84 227 84q119 0 186 -86q56 -74 56 -172q0 -211 -172 -512q-262 -457 -630 -713t-769 -256q-205 0 -335 108.5t-130 274.5zM1890 1733q310 287 310 380q42 59 89 79q0 -125 -117 -259q-72 -84 -241 -224q-9 -7 -29 -7q-45 0 -12 31z" />
<glyph unicode="&#xd2;" horiz-adv-x="1728" d="M61 399q0 297 182 553q156 217 404 363q223 129 405 137v-25q-90 11 -297 -102q-243 -131 -401 -321q-201 -242 -201 -519q0 -202 128 -327t339 -125q264 0 551 160q281 153 463 389q192 249 192 489q0 154 -124.5 264.5t-299.5 110.5q-165 0 -395 -137 q-241 -144 -393 -346q-16 -13 -37 -5q277 359 537 474q127 55 161 67q78 25 179 25q229 0 351 -104.5t122 -305.5q0 -254 -224 -534q-212 -267 -534 -445q-336 -186 -641 -186q-201 0 -334 128t-133 322zM812 2144q47 -20 89 -79q0 -93 310 -380q33 -31 -13 -31q-19 0 -28 7 q-169 140 -241 224q-117 134 -117 259z" />
<glyph unicode="&#xd3;" horiz-adv-x="1728" d="M61 399q0 297 182 553q156 217 404 363q223 129 405 137v-25q-90 11 -297 -102q-243 -131 -401 -321q-201 -242 -201 -519q0 -202 128 -327t339 -125q264 0 551 160q281 153 463 389q192 249 192 489q0 154 -124.5 264.5t-299.5 110.5q-165 0 -395 -137 q-241 -144 -393 -346q-16 -13 -37 -5q277 359 537 474q127 55 161 67q78 25 179 25q229 0 351 -104.5t122 -305.5q0 -254 -224 -534q-212 -267 -534 -445q-336 -186 -641 -186q-201 0 -334 128t-133 322zM1132 1685q311 287 311 380q42 59 89 79q0 -125 -117 -259 q-72 -84 -241 -224q-9 -7 -29 -7q-45 0 -13 31z" />
<glyph unicode="&#xd4;" horiz-adv-x="1728" d="M61 399q0 297 182 553q156 217 404 363q223 129 405 137v-25q-90 11 -297 -102q-243 -131 -401 -321q-201 -242 -201 -519q0 -202 128 -327t339 -125q264 0 551 160q281 153 463 389q192 249 192 489q0 154 -124.5 264.5t-299.5 110.5q-165 0 -395 -137 q-241 -144 -393 -346q-16 -13 -37 -5q277 359 537 474q127 55 161 67q78 25 179 25q229 0 351 -104.5t122 -305.5q0 -254 -224 -534q-212 -267 -534 -445q-336 -186 -641 -186q-201 0 -334 128t-133 322zM1225 1669q7 36 138 129q82 59 103 69q54 33 88 34q25 0 46 -15 q24 -15 60 -64q43 -54 62 -73q27 -23 60 -50.5t28 -38.5q16 -19 -29 -19q-39 0 -125 76q-64 58 -110 128q-23 -10 -54 -31q-82 -50 -169 -130q-36 -34 -41 -40q-23 -13 -49 -13q-6 0 42 -11q-53 36 -50 49z" />
<glyph unicode="&#xd5;" horiz-adv-x="1728" d="M61 399q0 297 182 553q156 217 404 363q223 129 405 137v-25q-90 11 -297 -102q-243 -131 -401 -321q-201 -242 -201 -519q0 -202 128 -327t339 -125q264 0 551 160q281 153 463 389q192 249 192 489q0 154 -124.5 264.5t-299.5 110.5q-165 0 -395 -137 q-241 -144 -393 -346q-16 -13 -37 -5q277 359 537 474q127 55 161 67q78 25 179 25q229 0 351 -104.5t122 -305.5q0 -254 -224 -534q-212 -267 -534 -445q-336 -186 -641 -186q-201 0 -334 128t-133 322zM1199 1660q23 55 122 116q107 66 195 66q71 0 119 -78q27 -41 42 -56 q30 -25 78 -25q129 0 194 121q13 27 43 23q40 0 24 -37q-31 -70 -111.5 -119t-164.5 -49q-109 0 -173 110q-27 46 -65 46q-65 0 -138 -39.5t-112 -90.5q-16 -14 -34 -14q-30 0 -19 26z" />
<glyph unicode="&#xd9;" horiz-adv-x="2252" d="M282 1337q0 15 156 123q243 170 471 170q233 0 374.5 -128t141.5 -339q0 -114 -127 -527t-127 -470q0 -45 30.5 -82t67.5 -37q127 0 617 469q432 412 524 545q115 164 139 196q45 58 66 58q16 0 18 -4v-29q0 -14 -403.5 -581.5t-403.5 -639.5q0 -43 29 -43q8 0 20.5 4.5 t22.5 4.5q-55 -72 -107 -72q-18 0 -36.5 15.5t-18.5 33.5q0 72 182 354q207 322 213 336q-233 -225 -469 -450q-303 -275 -456 -275q-60 0 -99 53.5t-39 120.5q0 74 125 447t125 530q0 209 -129 320.5t-372 111.5q-121 0 -246 -59q-82 -39 -172 -111q-78 -59 -82 -59 q-35 0 -35 14zM1646 2029q47 -20 90 -79q0 -93 310 -380q33 -31 -13 -31q-20 0 -29 7q-169 140 -241 224q-117 134 -117 259z" />
<glyph unicode="&#xda;" horiz-adv-x="2252" d="M282 1337q0 15 156 123q243 170 471 170q233 0 374.5 -128t141.5 -339q0 -114 -127 -527t-127 -470q0 -45 30.5 -82t67.5 -37q127 0 617 469q432 412 524 545q115 164 139 196q45 58 66 58q16 0 18 -4v-29q0 -14 -403.5 -581.5t-403.5 -639.5q0 -43 29 -43q8 0 20.5 4.5 t22.5 4.5q-55 -72 -107 -72q-18 0 -36.5 15.5t-18.5 33.5q0 72 182 354q207 322 213 336q-233 -225 -469 -450q-303 -275 -456 -275q-60 0 -99 53.5t-39 120.5q0 74 125 447t125 530q0 209 -129 320.5t-372 111.5q-121 0 -246 -59q-82 -39 -172 -111q-78 -59 -82 -59 q-35 0 -35 14zM1948 1570q310 287 310 380q42 59 90 79q0 -125 -118 -259q-72 -84 -241 -224q-9 -7 -28 -7q-46 0 -13 31z" />
<glyph unicode="&#xdd;" horiz-adv-x="2424" d="M219 1241l6 35q70 49 197 100q162 64 270 64q131 0 262 -117q146 -129 189 -322q59 -342 120 -684q66 -305 207 -305q103 0 394 234q272 221 507 479q19 20 228 260q112 129 129 129q20 0 20 -29q0 -14 -35 -49q-22 -20 -43 -41q-745 -901 -1257 -1663 q-170 -254 -170 -309q0 -16 23.5 -33.5t23.5 -23.5q0 -47 -37 -47q-18 0 -51 36.5t-33 61.5q0 84 103 240q166 251 221 323q323 416 647 834q-446 -351 -448 -351q-179 -129 -279 -129q-123 0 -203 181q-61 137 -102 405q-31 219 -60 436q-20 148 -124 267 q-115 131 -263 131q-188 0 -442 -113zM1810 1388q310 287 310 380q43 59 90 79q0 -125 -117 -259q-72 -84 -241 -224q-9 -7 -29 -7q-46 0 -13 31z" />
<glyph unicode="&#xe0;" horiz-adv-x="780" d="M-210 35q0 84 154.5 204.5t273.5 120.5q72 0 72 -34q0 -35 -23.5 -55.5t-48.5 -16.5q2 0 -12.5 28.5t-44.5 28.5q-78 0 -173.5 -82t-95.5 -145q0 -41 29 -41q98 0 215 78q29 20 84 84q41 47 66 43q24 0 24 -21q0 -14 -31.5 -70.5t-31.5 -78.5q0 -72 69 -72q88 0 275 127 q47 31 254 186q6 5 12 3q8 -3 8 -11q0 -12 -8 -20q-197 -164 -274 -217q-191 -131 -316 -131q-106 0 -106 153q-49 -41 -131 -82q-88 -43 -138 -43q-36 0 -69 17.5t-33 46.5zM-1 731q51 -8 107 -54q24 -90 396 -289q40 -22 -4 -33q-19 -5 -30 -1q-198 92 -290 156 q-147 100 -179 221z" />
<glyph unicode="&#xe1;" horiz-adv-x="780" d="M-210 35q0 84 154.5 204.5t273.5 120.5q72 0 72 -34q0 -35 -23.5 -55.5t-48.5 -16.5q2 0 -12.5 28.5t-44.5 28.5q-78 0 -173.5 -82t-95.5 -145q0 -41 29 -41q98 0 215 78q29 20 84 84q41 47 66 43q24 0 24 -21q0 -14 -31.5 -70.5t-31.5 -78.5q0 -72 69 -72q88 0 275 127 q47 31 254 186q6 5 12 3q8 -3 8 -11q0 -12 -8 -20q-197 -164 -274 -217q-191 -131 -316 -131q-106 0 -106 153q-49 -41 -131 -82q-88 -43 -138 -43q-36 0 -69 17.5t-33 46.5zM37 445q373 199 396 289q56 46 107 54q-32 -121 -179 -221q-91 -64 -290 -156q-10 -4 -29 1 q-45 11 -5 33z" />
<glyph unicode="&#xe2;" horiz-adv-x="780" d="M-210 35q0 84 154.5 204.5t273.5 120.5q72 0 72 -34q0 -35 -23.5 -55.5t-48.5 -16.5q2 0 -12.5 28.5t-44.5 28.5q-78 0 -173.5 -82t-95.5 -145q0 -41 29 -41q98 0 215 78q29 20 84 84q41 47 66 43q24 0 24 -21q0 -14 -31.5 -70.5t-31.5 -78.5q0 -72 69 -72q88 0 275 127 q47 31 254 186q6 5 12 3q8 -3 8 -11q0 -12 -8 -20q-197 -164 -274 -217q-191 -131 -316 -131q-106 0 -106 153q-49 -41 -131 -82q-88 -43 -138 -43q-36 0 -69 17.5t-33 46.5zM37 437q5 26 99 93q60 42 74 50q39 23 64 24q18 0 33 -10q17 -12 43 -47q31 -39 44 -52 q20 -17 44 -36.5t20 -27.5q11 -14 -21 -14q-28 0 -90 55q-46 41 -79 92q-17 -7 -39 -22q-58 -37 -121 -94q-26 -24 -30 -28q-16 -10 -35 -10q-4 0 30 -8q-38 26 -36 35z" />
<glyph unicode="&#xe3;" horiz-adv-x="780" d="M-210 35q0 84 154.5 204.5t273.5 120.5q72 0 72 -34q0 -35 -23.5 -55.5t-48.5 -16.5q2 0 -12.5 28.5t-44.5 28.5q-78 0 -173.5 -82t-95.5 -145q0 -41 29 -41q98 0 215 78q29 20 84 84q41 47 66 43q24 0 24 -21q0 -14 -31.5 -70.5t-31.5 -78.5q0 -72 69 -72q88 0 275 127 q47 31 254 186q6 5 12 3q8 -3 8 -11q0 -12 -8 -20q-197 -164 -274 -217q-191 -131 -316 -131q-106 0 -106 153q-49 -41 -131 -82q-88 -43 -138 -43q-36 0 -69 17.5t-33 46.5zM19 454q18 43 97 92q86 52 156 52q56 0 94 -62q21 -33 33 -44q24 -21 62 -21q103 0 154 96 q11 22 35 19q32 0 19 -30q-24 -55 -88 -94t-131 -39q-87 0 -138 88q-21 36 -52 36q-52 0 -109.5 -31.5t-89.5 -72.5q-12 -10 -27 -10q-23 0 -15 21z" />
<glyph unicode="&#xe8;" horiz-adv-x="428" d="M-260 769q51 -8 107 -54q23 -90 396 -289q40 -22 -5 -33q-19 -5 -29 -1q-199 92 -290 156q-147 100 -179 221zM-247 78q0 88 98.5 195.5t171.5 107.5q23 0 43.5 -17.5t20.5 -39.5q0 -35 -35 -67t-70 -60q-59 -52 -145 -93q-6 -51 37 -77q30 -21 69 -21q103 0 293 127 q41 27 254 186q6 5 12 3q9 -3 9 -11q0 -12 -9 -20q-198 -168 -274 -217q-195 -131 -342 -131q-133 0 -133 135zM-159 164q10 2 35 10q127 76 127 129q0 14 -23 14q-33 0 -86 -56t-53 -97z" />
<glyph unicode="&#xe9;" horiz-adv-x="428" d="M-247 78q0 88 98.5 195.5t171.5 107.5q23 0 43.5 -17.5t20.5 -39.5q0 -35 -35 -67t-70 -60q-59 -52 -145 -93q-6 -51 37 -77q31 -21 69 -21q103 0 293 127q41 27 254 186q6 5 13 3q8 -3 8 -11q0 -12 -8 -20q-199 -168 -275 -217q-194 -131 -342 -131q-133 0 -133 135z M-159 164q10 2 35 10q127 76 127 129q0 14 -23 14q-32 0 -85.5 -56t-53.5 -97zM-135 455q373 199 396 289q56 46 107 54q-32 -121 -179 -221q-91 -64 -290 -156q-11 -4 -30 1q-44 11 -4 33z" />
<glyph unicode="&#xea;" horiz-adv-x="428" d="M-247 78q0 88 98.5 195.5t171.5 107.5q23 0 43.5 -17.5t20.5 -39.5q0 -35 -35 -67t-70 -60q-59 -52 -145 -93q-6 -51 37 -77q31 -21 69 -21q103 0 293 127q41 27 254 186q6 5 13 3q8 -3 8 -11q0 -12 -8 -20q-199 -168 -275 -217q-194 -131 -342 -131q-133 0 -133 135z M-159 164q10 2 35 10q127 76 127 129q0 14 -23 14q-32 0 -85.5 -56t-53.5 -97zM-145 437q5 26 99 93q60 42 74 50q39 23 64 24q17 0 33 -10q17 -12 43 -47q31 -39 44 -52q20 -17 43.5 -36.5t20.5 -27.5q11 -14 -21 -14q-28 0 -90 55q-46 41 -79 92q-17 -7 -39 -22 q-59 -37 -121 -94q-26 -24 -30 -28q-16 -10 -35 -10q-4 0 30 -8q-38 26 -36 35z" />
<glyph unicode="&#xec;" horiz-adv-x="464" d="M-259 769q51 -8 107 -54q23 -90 396 -289q40 -22 -5 -33q-19 -5 -29 -1q-199 92 -290 156q-147 100 -179 221zM-118 66q0 71 74 165q70 88 117 99q24 0 24 -17q0 -14 -58 -83.5t-58 -129.5q0 -77 69 -77q84 0 477 296q6 5 13 3q8 -3 8 -11q0 -12 -8 -20 q-205 -172 -256 -209q-168 -123 -254 -123q-56 0 -102 32t-46 75z" />
<glyph unicode="&#xed;" horiz-adv-x="464" d="M-118 66q0 71 74 165q69 88 116 99q25 0 25 -17q0 -14 -58.5 -83.5t-58.5 -129.5q0 -77 70 -77q84 0 477 296q6 5 12 3q9 -3 9 -11q0 -12 -9 -20q-204 -172 -256 -209q-168 -123 -254 -123q-55 0 -101 32t-46 75zM94 426q373 199 397 289q56 46 107 54 q-32 -121 -179 -221q-92 -64 -290 -156q-11 -4 -30 1q-44 11 -5 33z" />
<glyph unicode="&#xf2;" d="M-217 6q0 105 147 230q144 116 242 116t98 -90q0 -102 -114 -199q24 -24 61 -24q62 0 209 104q127 90 209 176q4 7 12 3q8 -3 8 -11q0 -14 -8 -22q-69 -84 -209 -180q-151 -109 -227 -109q-53 0 -92 37q-17 -27 -86 -64q-84 -43 -152 -43q-98 0 -98 76zM-144 769 q51 -8 107 -54q23 -90 396 -289q40 -22 -4 -33q-19 -5 -30 -1q-199 92 -290 156q-147 100 -179 221zM-133 63q0 -69 57 -69q80 0 172 74q-37 38 -37 98q0 84 35 117q-227 -105 -227 -220zM100 190q0 -67 27 -92q115 92 115 178q0 35 -35 35q-41 0 -74 -37.5t-33 -83.5z" />
<glyph unicode="&#xf3;" d="M-217 6q0 105 147 230q144 116 242 116t98 -90q0 -102 -114 -199q24 -24 61 -24q62 0 209 104q127 90 209 176q4 7 12 3q8 -3 8 -11q0 -14 -8 -22q-69 -84 -209 -180q-151 -109 -227 -109q-53 0 -92 37q-17 -27 -86 -64q-84 -43 -152 -43q-98 0 -98 76zM-133 63 q0 -69 57 -69q80 0 172 74q-37 38 -37 98q0 84 35 117q-227 -105 -227 -220zM100 190q0 -67 27 -92q115 92 115 178q0 35 -35 35q-41 0 -74 -37.5t-33 -83.5zM248 426q373 199 396 289q56 46 107 54q-32 -121 -179 -221q-91 -64 -290 -156q-11 -4 -30 1q-44 11 -4 33z" />
<glyph unicode="&#xf4;" d="M-217 6q0 105 147 230q144 116 242 116t98 -90q0 -102 -114 -199q24 -24 61 -24q62 0 209 104q127 90 209 176q4 7 12 3q8 -3 8 -11q0 -14 -8 -22q-69 -84 -209 -180q-151 -109 -227 -109q-53 0 -92 37q-17 -27 -86 -64q-84 -43 -152 -43q-98 0 -98 76zM-133 63 q0 -69 57 -69q80 0 172 74q-37 38 -37 98q0 84 35 117q-227 -105 -227 -220zM-1 427q5 26 99 93q60 42 74 50q39 23 64 24q18 0 33 -10q17 -12 43 -47q31 -39 44 -52q20 -17 44 -36.5t20 -27.5q11 -14 -21 -14q-28 0 -90 55q-46 41 -79 92q-17 -7 -39 -22q-59 -37 -121 -94 q-26 -24 -30 -28q-16 -10 -35 -10q-4 0 30 -8q-38 26 -36 35zM100 190q0 -67 27 -92q115 92 115 178q0 35 -35 35q-41 0 -74 -37.5t-33 -83.5z" />
<glyph unicode="&#xf5;" d="M-217 6q0 105 147 230q144 116 242 116t98 -90q0 -102 -114 -199q24 -24 61 -24q62 0 209 104q127 90 209 176q4 7 12 3q8 -3 8 -11q0 -14 -8 -22q-69 -84 -209 -180q-151 -109 -227 -109q-53 0 -92 37q-17 -27 -86 -64q-84 -43 -152 -43q-98 0 -98 76zM-133 63 q0 -69 57 -69q80 0 172 74q-37 38 -37 98q0 84 35 117q-227 -105 -227 -220zM-9 454q18 43 97 92q86 52 156 52q56 0 94 -62q21 -33 33 -44q24 -21 62 -21q103 0 154 96q11 22 35 19q32 0 19 -30q-24 -55 -88 -94t-131 -39q-87 0 -138 88q-21 36 -52 36q-52 0 -109.5 -31.5 t-89.5 -72.5q-12 -10 -27 -10q-23 0 -15 21zM100 190q0 -67 27 -92q115 92 115 178q0 35 -35 35q-41 0 -74 -37.5t-33 -83.5z" />
<glyph unicode="&#xf7;" horiz-adv-x="1706" />
<glyph unicode="&#xf9;" horiz-adv-x="582" />
<glyph unicode="&#xfa;" horiz-adv-x="580" />
<glyph unicode="&#xfd;" horiz-adv-x="629" />
<glyph unicode="&#x2000;" horiz-adv-x="1096" />
<glyph unicode="&#x2001;" horiz-adv-x="2192" />
<glyph unicode="&#x2002;" horiz-adv-x="1096" />
<glyph unicode="&#x2003;" horiz-adv-x="2192" />
<glyph unicode="&#x2004;" horiz-adv-x="730" />
<glyph unicode="&#x2005;" horiz-adv-x="548" />
<glyph unicode="&#x2006;" horiz-adv-x="365" />
<glyph unicode="&#x2007;" horiz-adv-x="365" />
<glyph unicode="&#x2008;" horiz-adv-x="274" />
<glyph unicode="&#x2009;" horiz-adv-x="438" />
<glyph unicode="&#x200a;" horiz-adv-x="121" />
<glyph unicode="&#x2010;" horiz-adv-x="706" d="M81 414q0 6 16 6q11 0 56 -6t67 -6q6 0 108.5 14t174.5 14q59 0 115 -26q49 -27 49 -48q0 -18 -54 -18q-16 0 -49.5 9t-48.5 9q-100 0 -194 -18q-84 -16 -95 -16q-57 0 -86 22q-59 45 -59 64z" />
<glyph unicode="&#x2011;" horiz-adv-x="706" d="M81 414q0 6 16 6q11 0 56 -6t67 -6q6 0 108.5 14t174.5 14q59 0 115 -26q49 -27 49 -48q0 -18 -54 -18q-16 0 -49.5 9t-48.5 9q-100 0 -194 -18q-84 -16 -95 -16q-57 0 -86 22q-59 45 -59 64z" />
<glyph unicode="&#x2012;" horiz-adv-x="706" d="M81 414q0 6 16 6q11 0 56 -6t67 -6q6 0 108.5 14t174.5 14q59 0 115 -26q49 -27 49 -48q0 -18 -54 -18q-16 0 -49.5 9t-48.5 9q-100 0 -194 -18q-84 -16 -95 -16q-57 0 -86 22q-59 45 -59 64z" />
<glyph unicode="&#x2013;" horiz-adv-x="1144" d="M81 414q0 6 28 6q19 0 97.5 -6t117.5 -6q10 0 189.5 14t304.5 14q104 0 201 -26q86 -27 86 -48q0 -18 -94 -18q-28 0 -86.5 9t-85.5 9q-174 0 -339 -18q-146 -16 -166 -16q-99 0 -150 22q-103 45 -103 64z" />
<glyph unicode="&#x2014;" horiz-adv-x="2168" d="M81 414q0 6 56 6q38 0 195.5 -6t234.5 -6q21 0 379 14t610 14q206 0 402 -26q171 -27 171 -48q0 -18 -189 -18q-56 0 -173 9t-169 9q-350 0 -678 -18q-294 -16 -332 -16q-199 0 -301 22q-206 45 -206 64z" />
<glyph unicode="&#x2018;" horiz-adv-x="245" d="M325 1026q0 43 12.5 65.5t77.5 98.5q74 65 115 65q14 0 14 -28q0 -15 -26 -35q-35 -29 -46 -43q-20 -29 -28 -57q-10 -35 -19.5 -68t-50.5 -33q-49 0 -49 35z" />
<glyph unicode="&#x2019;" horiz-adv-x="245" d="M360 1020q0 14 27 35q34 28 45 43q20 28 29.5 60t18.5 64.5t50 32.5q49 0 49 -34q0 -43 -12 -65.5t-78 -98.5q-74 -66 -115 -66q-14 0 -14 29z" />
<glyph unicode="&#x201c;" horiz-adv-x="339" d="M389 1018q0 41 18 67q2 5 80 97q88 75 121 75q12 0 12 -26q0 -17 -24 -31q-33 -24 -53 -51q-35 -47 -56 -133q-8 -33 -49 -33q-49 0 -49 35zM561 1018q0 41 16 65q7 11 82 99q86 75 121 75q12 0 12 -26q0 -14 -24 -31q-35 -24 -53 -51q-37 -47 -56 -133q-8 -33 -49 -33 q-49 0 -49 35z" />
<glyph unicode="&#x201d;" horiz-adv-x="339" d="M425 1010q0 14 25 30q34 25 53 52q37 47 55 133q8 32 49 32q49 0 49 -34q0 -41 -16 -66q-6 -10 -82 -98q-86 -76 -121 -76q-12 0 -12 27zM597 1010q0 16 25 30q32 25 53 52q35 47 55 133q8 32 49 32q49 0 49 -34q0 -41 -18 -68q-2 -4 -80 -96q-88 -76 -121 -76 q-12 0 -12 27z" />
<glyph unicode="&#x2026;" horiz-adv-x="1051" d="M34 43q0 68 84 68q33 0 59.5 -19.5t26.5 -48.5q0 -66 -88 -66q-82 0 -82 66zM353 43q0 68 84 68q33 0 59.5 -19.5t26.5 -48.5q0 -66 -88 -66q-82 0 -82 66zM719 43q0 68 84 68q33 0 59.5 -19.5t26.5 -48.5q0 -66 -88 -66q-82 0 -82 66z" />
<glyph unicode="&#x202f;" horiz-adv-x="438" />
<glyph unicode="&#x205f;" horiz-adv-x="548" />
<glyph unicode="&#x25fc;" horiz-adv-x="415" d="M0 0v415h415v-415h-415z" />
</font>
</defs>
</svg>
